<mxfile host="Electron" agent="Mozilla/5.0 (Macintosh; Intel Mac OS X 10_15_7) AppleWebKit/537.36 (KHTML, like Gecko) draw.io/27.0.9 Chrome/134.0.6998.205 Electron/35.4.0 Safari/537.36" version="27.0.9">
  <diagram name="Page-1" id="Sm2bS-YEmD1y8tSHlb9R">
    <mxGraphModel dx="1409" dy="446" grid="1" gridSize="10" guides="1" tooltips="1" connect="1" arrows="1" fold="1" page="1" pageScale="1" pageWidth="827" pageHeight="1169" math="0" shadow="0">
      <root>
        <mxCell id="0" />
        <mxCell id="1" parent="0" />
        <mxCell id="uibnQeh16Y-J-jfBilOQ-1" value="" style="rounded=1;whiteSpace=wrap;html=1;" parent="1" vertex="1">
          <mxGeometry x="220" y="50" width="950" height="770" as="geometry" />
        </mxCell>
        <mxCell id="uibnQeh16Y-J-jfBilOQ-31" value="" style="rounded=1;whiteSpace=wrap;html=1;fillColor=none;" parent="1" vertex="1">
          <mxGeometry x="420" y="70" width="720" height="720" as="geometry" />
        </mxCell>
        <mxCell id="uibnQeh16Y-J-jfBilOQ-2" value="Server - Bare-Metal&lt;div&gt;Lenovo Thinkstation P700&lt;/div&gt;&lt;div&gt;&lt;span style=&quot;color: rgb(242, 242, 242); font-family: helvetica, arial, verdana, sans-serif; font-size: 13px; text-align: start; text-wrap: wrap; background-color: rgb(38, 38, 38);&quot;&gt;x1 Intel Xeon E5-2650L v3&lt;br&gt;&lt;/span&gt;(12c, 24t, 1.80Ghz)&lt;br&gt;48Go RAM&lt;br&gt;[140 TDP, 45W Idle]&lt;/div&gt;" style="verticalLabelPosition=bottom;sketch=0;aspect=fixed;html=1;verticalAlign=top;strokeColor=none;align=center;outlineConnect=0;shape=mxgraph.citrix.chassis;" parent="1" vertex="1">
          <mxGeometry x="280" y="120" width="69.71" height="90" as="geometry" />
        </mxCell>
        <mxCell id="uibnQeh16Y-J-jfBilOQ-87" style="edgeStyle=orthogonalEdgeStyle;rounded=0;orthogonalLoop=1;jettySize=auto;html=1;entryX=0.5;entryY=1;entryDx=0;entryDy=0;exitX=1;exitY=0;exitDx=0;exitDy=0;endArrow=box;endFill=0;" parent="1" source="uibnQeh16Y-J-jfBilOQ-6" target="uibnQeh16Y-J-jfBilOQ-73" edge="1">
          <mxGeometry relative="1" as="geometry">
            <Array as="points">
              <mxPoint x="716" y="472" />
            </Array>
          </mxGeometry>
        </mxCell>
        <mxCell id="uibnQeh16Y-J-jfBilOQ-103" value="192.168.1.142" style="edgeLabel;html=1;align=center;verticalAlign=middle;resizable=0;points=[];" parent="uibnQeh16Y-J-jfBilOQ-87" vertex="1" connectable="0">
          <mxGeometry x="0.8388" relative="1" as="geometry">
            <mxPoint as="offset" />
          </mxGeometry>
        </mxCell>
        <mxCell id="uibnQeh16Y-J-jfBilOQ-5" value="Hyperviseur" style="swimlane;whiteSpace=wrap;html=1;startSize=23;fillColor=#f0a30a;fontColor=#000000;strokeColor=#BD7000;" parent="1" vertex="1">
          <mxGeometry x="270" y="417" width="130" height="253" as="geometry" />
        </mxCell>
        <mxCell id="uibnQeh16Y-J-jfBilOQ-8" value="" style="group;fillColor=#6d8764;fontColor=#ffffff;strokeColor=#3A5431;container=0;" parent="uibnQeh16Y-J-jfBilOQ-5" vertex="1" connectable="0">
          <mxGeometry y="55" width="130" height="35" as="geometry" />
        </mxCell>
        <mxCell id="uibnQeh16Y-J-jfBilOQ-23" value="" style="group" parent="uibnQeh16Y-J-jfBilOQ-5" vertex="1" connectable="0">
          <mxGeometry y="23.5" width="130" height="35" as="geometry" />
        </mxCell>
        <mxCell id="uibnQeh16Y-J-jfBilOQ-24" value="&lt;font color=&quot;#f0950c&quot;&gt;&lt;b&gt;Proxmox&lt;/b&gt;&lt;/font&gt;" style="rounded=0;whiteSpace=wrap;html=1;fillColor=#fad7ac;strokeColor=#b46504;align=left;" parent="uibnQeh16Y-J-jfBilOQ-23" vertex="1">
          <mxGeometry width="130" height="35" as="geometry" />
        </mxCell>
        <mxCell id="uibnQeh16Y-J-jfBilOQ-25" value="" style="shape=image;verticalLabelPosition=bottom;labelBackgroundColor=default;verticalAlign=top;aspect=fixed;imageAspect=0;image=data:image/png,iVBORw0KGgoAAAANSUhEUgAAA+gAAAPoCAYAAABNo9TkAAAABHNCSVQICAgIfAhkiAAAAAlwSFlzAAAN1wAADdcBQiibeAAAABl0RVh0U29mdHdhcmUAd3d3Lmlua3NjYXBlLm9yZ5vuPBoAACAASURBVHic7N131GwFee/x70Mv0owSnatJNPYSjTUKKCCecyhBqiUiodhFcYItRhNrvKjJRBJRRAQrFhRFqRZQRKMmRo3B2PsIKCJVaee5f+x9Loio58zM+z57z3w/a511Vlwu+Bo4e+/fO3v2jsxEkiRJkiTVWq86QJIkSZIkOdAlSZIkSeoEB7okSZIkSR3gQJckSZIkqQMc6JIkSZIkdYADXZIkSZKkDnCgS5IkSZLUAQ50SZIkSZI6wIEuSZIkSVIHONAlSZIkSeoAB7okSZIkSR3gQJckSZIkqQMc6JIkSZIkdYADXZIkSZKkDnCgS5IkSZLUAQ50SZIkSZI6wIEuSZIkSVIHONAlSZIkSeoAB7okSZIkSR3gQJckSZIkqQMc6JIkSZIkdYADXZIkSZKkDnCgS5IkSZLUAQ50SZIkSZI6wIEuSZIkSVIHONAlSZIkSeoAB7okSZIkSR3gQJckSZIkqQMc6JIkSZIkdYADXZIkSZKkDnCgS5IkSZLUAQ50SZIkSZI6wIEuSZIkSVIHONAlSZIkSeoAB7okSZIkSR3gQJckSZIkqQMc6JIkSZIkdYADXZIkSZKkDnCgS5IkSZLUAQ50SZIkSZI6wIEuSZIkSVIHONAlSZIkSeoAB7okSZIkSR3gQJckSZIkqQMc6JIkSZIkdYADXZIkSZKkDnCgS5IkSZLUAQ50SZIkSZI6wIEuSZIkSVIHONAlSZIkSeoAB7okSZIkSR3gQJckSZIkqQMc6JIkSZIkdYADXZIkSZKkDnCgS5IkSZLUAQ50SZIkSZI6wIEuSZIkSVIHONAlSZIkSeoAB7okSZIkSR3gQJckSZIkqQMc6JIkSZIkdYADXZIkSZKkDnCgS5IkSZLUAQ50SZIkSZI6wIEuSZIkSVIHONAlSZIkSeoAB7okSZIkSR3gQJckSZIkqQMc6JIkSZIkdYADXZIkSZKkDnCgS5IkSZLUAQ50SZIkSZI6wIEuSZIkSVIHONAlSZIkSeoAB7okSZIkSR3gQJckSZIkqQMc6JIkSZIkdYADXZIkSZKkDnCgS5IkSZLUAQ50SZIkSZI6wIEuSZIkSVIHONAlSZIkSeoAB7okSZIkSR3gQJckSZIkqQMc6JIkSZIkdYADXZIkSZKkDnCgS5IkSZLUAQ50SZIkSZI6wIEuSZIkSVIHONAlSZIkSeoAB7okSZIkSR3gQJckSZIkqQMc6JIkSZIkdYADXZIkSZKkDnCgS5IkSZLUAQ50SZIkSZI6wIEuSZIkSVIHONAlSZIkSeoAB7okSZIkSR3gQJckSZIkqQMc6JIkSZIkdYADXZIkSZKkDnCgS5IkSZLUAQ50SZIkSZI6wIEuSZIkSVIHONAlSZIkSeoAB7okSZIkSR3gQJckSZIkqQM2qA6QtHgiYgNgyxv92grYArgOuBS4bM3vmXlFVackaf5ExOY0550155+taK6JL+eGc9BlNOeg66o6JS2myMzqBklzICL+ELhr++suwLb8+gC/8SDfdB3+0tfz6xdNN/39EuBbwNeAr2XmJTP4nyNJ6omI2BS4G3B3mnPQrfjNAX7j/3v9dfjL/5IbDXZ+fcBfBHwD+Drw9cy8cAb/cyQtOAe6pLXWXgTdpf11V359kG9VmHZjFwLn0w729tf5mfmT0ipJ0lQiYkuaEX6Pm/z+J3Tja5uX0Y51bhju3wC+kZlXVYZJ6g8HuqSbFREbA38B7AQ8lGaI3x6Iyq4pXMqNBjtwLvAfmXl9aZUk6TdExB2BnYF7c8MQ/z+lUZNL4Ec0g/2zwCeAz2bm1aVVkjrJgS4J+P/fC38AzQXRTsB2rNut6H10Cc2F0lnAWZn5vdocSVpM7afjOwMr2l9/Wlu05H4FfIbmHPQJ4At+310SONClhRUR6wH3pRnjOwM70DyobZF9k3asA2dn5uXFPZI0lyJifeCB3DDIH8xiP7z4Cpo7u9YM9i9l5uraJEkVHOjSAmmfXLsPsDewI7BNaVC3XQf8OzcM9i94sSRJk4uIO3DDIN8Z2Lq2qNMuAc4BTgY+kJlX1uZIWi4OdGnORUTQjPG/BvYFblEa1F8XAscDx2bmd6pjJKkP2lvXHw88Cfjz4py+ugJ4P/BW4Jz04l2aaw50aU5FxF2AA4EnAH9UnDNPEvgYcAxwSmZeW9wjSZ0TEX9BM8ofA2xenDNPfgC8HXhbZn6jOkbS7DnQpTkSEdvQXAz9Nc0T2LW0LuCGT9W/Wx0jSZUiYmuaHwo/iebp61pa/07zqfp7MvOS6hhJs+FAl3quvYV9N+Ag4C+BjUuDFlMCH+WGT9V9Eq+khRER29OM8v2Z/7d/dNHVwIeBE4DTvAVe6jcHutRT7VPYHwP8HXDP4hzd4ALgLcAxmfmD6hhJWgrtHVsH0Qzzu9fW6EbOB15J86n69dUxktadA13qmfZ95QcAfwvcpThHv921wJuAV2TmBdUxkjQLEbEF8GzgCGCr4hz9dt8EXgW8w2elSP3iQJd6IiI2ovm04gXAHWprtA6uAo4CXu13BCX1VURsCjwDeD5wq+Icrb3vA/8XOD4zr66OkfT7OdCljouITWhuIXwecLviHE3uF8CrgaN8n62kvoiIDWnOQX8HDIpzNLkxzTnoTZn5y+oYSb+dA13qqIjYHHgq8BzgNsU5mp0LgVfQXCRdUx0jSTcnItaneSL7PwB/UlujGboI+Cfg6My8ojpG0m9yoEsd0z787Uk0I87bCOfX94CXAG/PzNW1KZLUaN8Msj/wMuCuxTlaOj8H/h54g+cgqVsc6FKHRMT9gaOBB1W3aNmcD/xdZn6wOkTSYouI3WmeAH6f6hYtmy8CT8vMz1eHSGo40KUOiIitaS6KngqsV5yjGh8CnuoT3yUtt4i4Dc0Ph/eublGJ1cCxwAsz8+fVMdKic6BLhdpbCQ+keXDLtsU5qncJcHhmvr06RNJiiIiDab6TvE11i8r9jOaBtCekA0Eq40CXikTEvWk+sdi+ukWd8xHgKZk5rg6RNJ8i4k+ANwGPrC1RB50HPD0zv1IdIi0ib6WVlllEbBER/0zzvS/HuW7OHsD/RMRB1SGS5ktErBcRhwNfxXGum7cd8J8R8c8RsUV1jLRo/ARdWkYRsRfwenyXrNbe6cCTM/NH1SGS+i0i7g4cBzykukW9MQae4YNMpeXjJ+jSMoiIjSLiKOBkHOdaN7sCX42IQ6tDJPVTRGwYES8C/gvHudbNADg5Io6KiI2qY6RF4Cfo0hKLiD8F3gPcv7pFvXcWcKifpktaWxFxP+B44M+qW9R7/wk8JjO/XR0izTM/QZeWUETsT/Ndc8e5ZmEFzfcCfXaBpN+rvfPmMzjONRv3B77YXttIWiIOdGkJRMTGEXE08F5gy+oezZVtgY9HxBOrQyR1U3tL+9HAm4GNq3s0V7YE3hsRR0eE/25JS8Bb3KUZi4g70wzz+1a3aO4dBfxNZl5fHSKpGyLiD4GT8C0hWnpfAh6dmd+sDpHmiZ+gSzMUEY+l+Y6W41zL4VnAGRGxTXWIpHoR8SCac5DjXMvhvjRfu3psdYg0Txzo0gxExCYRcQxwIuA7Q7WcdgE+374+SdKCiohDgE8B/6e6RQtlC+DEiDgmIjapjpHmgbe4S1OKiK2AU4CHVbdooV0G/FVmnlodImn5RMSGwL8AT69u0cL7FLBnZl5aHSL1mQNdmkJE3AY4A7hPdYsErAZemJlHVodIWnrt983fB+xQ3SK1vgysyswLqkOkvnKgSxOKiDvRvJf6DtUt0k28k+Z96VdXh0haGhHxQOBkvKVd3fNdYEVmfqs6ROojB7o0gYi4H3A6zSuvpC46E9grM39VHSJptiJiJ+DDwObVLdJvcRGwa2Z+sTpE6hsfEieto4h4BHAOjnN120rggz60R5ovEbESOBXHubptW+Cc9ppJ0jpwoEvrICL2B07DJ7WrHxzp0hyJiD2BDwGbVrdIa2EL4LT22knSWnKgS2spIp4OvBvYqLpFWgeOdGkOtCPnJGDj6hZpHWwEvLu9hpK0Fhzo0lqIiJcCr8c/M+onR7rUYxFxAHAisGF1izSB9YDXt9dSkn4Px4b0e0TE+sADqjukKa0ETo4IP32TeiQingi8FVi/ukWa0gPaaypJv4NPcZfWQkRsBnwMeEh1izQln+4u9UREHAYcBUR1izSlzwK7ZOZV1SFS1znQpbUUEbcEPg3cvbpFmpIjXeq4iHgO8JrqDmkGvgZsn5k/rw6R+sBb3KW11J5YVgA/rG6RprTmO+ne7i51UES8CMe55sMPgRWOc2ntOdCldZCZP6IZN55o1HcraZ6s6/cBpQ6JiCHw8uoOaQZ+Dqxsr50krSUHurSOMvNrwO6A36NS3+0FHFMdIakREY8H/qm6Q5qBq4Dd22smSevAgS5NIDP/HdgfuK66RZrSoRHxquoIadFFxCrgeHwgnPrvOmD/9lpJ0jpyoEsTyszTgEMAn7SovntBe1utpAIR8WDgJHzPufovgUPaayRJE3CgS1PIzLcDz63ukGbgnyLiCdUR0qKJiLsBpwKbV7dIM/Dc9tpI0oR8zZo0AxHxGuA51R3SlK6jef3aqdUh0iKIiNsB5wF/VN0izcBrM9MPLaQpOdClGYiIAE4ADixOkab1S2CXzPxMdYg0zyJiG+Bc4J7VLdIMvA04KB0W0tQc6NKMRMQGwAdpnvAu9dklwMMy86vVIdI8iohNgY8BD61ukWbgVJq7r3xwrjQDDnRphiJiM5qLrodUt0hTGgPbZeb3qkOkeeIPczVnPktz15WvnpVmxIfESTPUnqD2AM6vbpGmNADOiohbV4dI86L9OtSbcZxrPpwP7OE4l2bLgS7NWGb+HFgJ/LC6RZrSnYHTI2KL6hBpThwJ/HV1hDQDPwRWttc8kmbIgS4tgcz8Ec1Iv7i6RZrS/YEPRsTG1SFSn0XEEfhaTs2Hi2nG+Y+qQ6R55ECXlkhmfo3mdndv/VLf7Qy8MyI8Z0gTiIgnAK+p7pBm4Cqa29q/Vh0izSsvtqQllJn/DuxH835pqc/2BY6ujpD6JiJ2Bd4CRHWLNKXrgP3aaxtJS8SBLi2xzDwdOATwlQnqu6dExMurI6S+iIi/AE4CNqhukaaUwCHtNY2kJeRAl5ZBZr4dv3uo+fCiiHhWdYTUdRFxd5r3Q29W3SLNwHPbaxlJS8z3oEvLKCJejUNd/ZfAAZn5ruoQqYsi4nbAZ4DbV7dIM/CazHxedYS0KBzo0jJq34F7PL5mR/13LbBnZp5RHSJ1SUTcEjgXuEd1izQDbwUOTgeDtGwc6NIyi4gNgA8Cu1e3SFO6EtjFBwZJjYjYDPgY8JDqFmkGTgX2ykwfdCstIwe6VKC9iPso8NDqFmlKPwd2yMzzq0OkSu0PXz8E7FbdIs3AZ4BHZqavipWWmQNdKhIR2wCfxtsg1X8/ArbLzB9Uh0gV2q8vnQAcWJwizcL5wPaZeUl1iLSIfIq7VKQ98a0EfljdIk3pdsBZEXGr6hCpyKtxnGs+/BBY6TiX6jjQpUKZ+SNgBXBxdYs0pbsCp0XELapDpOUUEc8BnlPdIc3AxcCK9tpEUhEHulQsM/+X5oFxV1a3SFN6IPCBiNioOkRaDhFxIM2n51LfXQns3l6TSCrkQJc6IDM/B+xH8+oqqc8eCbw9Ijy/aK5FxG7AcUBUt0hTuhbYr70WkVTMCyipI9r3SR8C+ORG9d2jgX+tjpCWSkQ8BHgfsEF1izSlBA5pr0EkdYADXeqQzHwHfpdR8+HpEfGS6ghp1iLiHsBHgM2qW6QZeE577SGpI3zNmtRBEXEk8LzqDmkGDsvM11dHSLMQEbeneT/07apbpBl4dWY+vzpC0q9zoEsdFRHHAwdVd0hTWg38VWa+pzpEmkZE/AFwLnD36hZpBk7IzIOrIyT9Jge61FERsQFwMrBHdYs0pWuAPTLzo9Uh0iQiYjPg48BfVLdIM/ARYO/MvK46RNJvcqBLHRYRmwIfAx5a3SJN6QrgEZn5+eoQaV20Pyw9Bdi1ukWagc8Au2TmL6tDJN08B7rUcRGxDc1tlfesbpGm9DNgB9+zq76IiADeBhxQ3SLNwP/QHIMvqQ6R9Nv5FHep49oT6UrgB9Ut0pRuBZwVET5gS33xWhznmg8/AFY6zqXuc6BLPZCZP6YZ6RdXt0hTuj3NSL9ldYj0u0TE84C/qe6QZuBimnH+4+oQSb+fA13qifa24N2BK6tbpCndHTgtIjavDpFuTkT8NXBkdYc0A1cCu/vVIqk/HOhSj2Tm54D9gGurW6QpPRh4f0RsWB0i3VhE7AG8ubpDmoFrgf3aawdJPeFAl3omM88ADgZ8wqP6biXw1vZBXFK5iHgo8F5gg+oWaUoJHNxeM0jqEQe61EOZ+U7giOoOaQYeB7yuOkKKiHvSvB960+oWaQaOaK8VJPWMA13qqcwc4XckNR+eGREvro7Q4oqIPwLOBLapbpFm4Mj2GkFSD/kedKnnIuJ44KDqDmkGnpqZx1RHaLFExB8AnwbuVt0izcAJmXlwdYSkyTnQpZ6LiA2Ak4E9qlukKa0GHpOZJ1WHaDG0bxL4OM1DC6W++wiwd2ZeVx0iaXIOdGkORMSmwEeB7apbpCldA+yWmR+vDtF8a98gcAqwqrpFmoHzgEdm5i+rQyRNx4EuzYmI2AY4F7hndYs0pcuBnTLzP6tDNJ/aNwe8HXh8dYs0A/8D7JCZl1SHSJqeD4mT5kR7Yl4J/KC6RZrSFsDpEXGX6hDNrX/Cca758ANgpeNcmh8OdGmOZOaPgRXAxdUt0pRuDZwVEYPqEM2XiHg+MKzukGbgYmBFe+6XNCe8xV2aQxHxIOATwObVLdKUvHVTMxMRBwNvqe6QZuBKYOfM/Hx1iKTZ8hN0aQ61J+x9gWurW6Qp3RP4SERsVh2ifouIvwSOre6QZuBaYF/HuTSfHOjSnMrMM4GDAW+TUd89FHhf+0pBaZ1FxHbAe4D1q1ukKSVwcHuOlzSHHOjSHMvMdwJ/U90hzcBuwPHt07eltRYR9wI+DGxa3SLNwN+053ZJc8qBLs25zPwX4MjqDmkGDgD+uTpC/RERfwycAWxT3SLNwJHtOV3SHPMhcdKCiIi30NzyLvXdCzPzVdUR6raIuBXwaeCu1S3SDByfmYdUR0haeg50aUFExPrAycBfVrdIM/CkzHxzdYS6KSI2p3mTxYOqW6QZ+DCwd2ZeXx0iaek50KUFEhGbAh8FtqtukaZ0PbB/Zp5cHaJuiYgNaQbNyuoWaQbOAx6Zmb+sDpG0PBzo0oKJiG2ATwH3qm6RpnQ1sCozz6kOUTe0DxF8B/BX1S3SDHwVeFhmXlIdImn5+JA4acG0J/pVwPerW6QpbQx8KCL+vDpEnTHCca758H2aH0A6zqUF40CXFlBm/pjm9s+fVbdIU9oSOCMi7lQdoloR8bfA4dUd0gz8DFjZnqslLRhvcZcWWEQ8iOZBSptXt0hT+i6wXWb+pDpEyy8iDgGOq+6QZuBKYOfM/Hx1iKQaDnRNZDyMDYAtaD69uvGvzWlOLpcCl93o98sHo1xdU6vfJSJW0jxQacPqFmlKXwEenpm/qA7R8omIPYEPAOtXt0hTuhb4y8w8szpEv2k8jPW44dp3qxv9vuba97Kb/Lp8MMrramrVZw50Af9/cN+B5n2xdwH+hBsOPjf3a7N1/FskcAW/Odxv/PvPgK8DXwO+5UFt+UTEX9E8WCmqW6QpfRpY4ROPF0NEbE/zZopNqlukKSVwQGa+qzpkUbTXvncC7k5z/Xsrfn143/T3W7Du10lX8ZvDfc2vS4HvAd+guf79rte+Agf6whkP49Y0B6E1v+7S/v6ndOsT1GuBb9KM9fNv9PvXB6P8VWXYvIqIZ9M8YEnquw8D+2R6oTPPIuLeNG+k2Lq6RZqBYWb+S3XEPBoPYxOaa9170IzxNb/fme5d+36bZqyvGe1fp7n2/WllmJaXA31OtT8VfBCwA82BaM0Y36ayawZW0/y0cc1o/xrwP8AX/anj9CLiVcALqjukGXgrcHB6kptLEfHHwGeAQXWLNAP/NzP/tjqi79pr3/sB96QZ4GvG+J/Q/wdjX8INo/184Fzg8177zicH+pxovxdzX2Dn9tcONLfiLIrLaR52dhZw1mCU3yru6a2IOA44pLpDmoHXZuZzqyM0WxFxK+A8mh86S333lsw8tDqir8bDuBOwov21M813xBfFFTRD/RPtry/5vKf54EDvsfEw7sENg3xH+v/p+Cx9l3asA58YjHxo1NqKiPVpHri0Z3WLNAPPz8xXV0doNiLiFjQXog+sbpFm4BSar+NcXx3SF+NhbE1z3btmlN+htqhTLgHOoR3sg1GeX5ujSTnQe2Q8jDtywyDfCbhNbVFvXA98nhsG++cGI0+Gv0tEbErz/6vtq1ukGTgkM4+vjtB0ImJD4FTgkdUt0gz4QMu1MB7G+sCDuWGQPwjf2LC2LgDO5obB/p3iHq0lB3rHjYexLfB44ECaW9g1vUtpDlanAe8ZjPLy4p5OioitaW6duld1izSl62k+pTqlOkSTiYgA3gU8trpFmoGvAjv4SsibNx7GFsBjgN1oPpTaqrZobnwJeBvwzsEoL6qO0W/nQO+g8TA2prm9+EBgFbBBbdFcuxI4EXjTYJRfqI7pmogY0DyI6Y+rW6Qp/QpYmZmfqg7RuouI1wHPqu6QZuD7wEMzc1wd0jXjYTwQeDLwOJp3i2tpXAecQTPWTxmM8uriHt2EA71DxsN4CM0ofwx+n7zCl4A30fxk8bLqmK6IiLvS3Ip3q+oWaUqXAg/PzC9Xh2jtRcQLgVdWd0gz8DNg+8z8enVIV4yHsSXNnaJPxjtFK1wCvAd422CUn62OUcOBXmw8jD8CnkAzzH0ibTdcBbyb5lP1z1XHdEFEPJDme0z+RFt9dwGwXabfxeuDiHgicGx1hzQDVwI7ZXq3HsB4GA+mGeWPBTYrzlHjGzSfqr99MMofVMcsMgd6gfEwNqI5IB1E8/T1qOzR7/QVmk/V3zEY5aXVMZUiYgXwEWDD6hZpSt+mGekXVofot4uIRwHvxwdCqf+uBfbIzLOqQyqNh7EVcADNMP+z4hz9dknzNPgTgHcPRnlNac0CcqAvo/EwNgWeBDwP+D/FOVo3VwHvBY4ZjPLfq2OqRMTjgHfiD5XUf18Cdsxc7B+8dVVE7EDzJolNqlukKSXw+Mw8sTqkyngYfwE8BXg0flreNz8GXg0cOxj5xoHl4kBfBuNh3AJ4OnAEsG1xjqb3ceBFizrUI+Jw4F+qO6QZ+CSwKjN/VR2iG0TEn9H8s9m6ukWagWdn5uuqIyq0w/wVwCOqWzS1i4B/Ao4ejPKK6ph550BfQuNhbE3z1NnDgVsW52j2PgK8eDDKL1WHLLeI+Efgb6s7pBn4ELBvZl5fHSKIiD+heXPEbWtLpJl4VWa+sDpiuY2HcV/g5cAe1S2auZ8DrwOOGox8TeBScaAvgfEwbg0MgWcAWxbnaGklcBLwD4NRfq06ZjlFxHHAIdUd0gy8JTMPrY5YdBFxa+A84M7VLdIMLNxxZTyMuwMvBfbDr8LNu8uA1wOjwSh/Wh0zbxzoMzQexm2B59J8z8bv2CyW1TTfzX7JYLQYT4eOiPWBDwB7VrdIM3BkZr6gOmJRRcQtaN4U8YDqFmkGTgH2WZQ7c8bDuCPwEprXpa1XW6NldhVwDPCawSh/Uh0zLxzoMzAexm2Av6f5NHHj4hzVuhY4Hnj5YJQ/qo5ZahGxCfBRYPvqFmkGjsjMf66OWDQRsRFwKrBLdYs0A58GHrkIz7YYD+N2wIuBg/ENL4vuauAtwMsGo7ygOqbvHOhTGA9jfeAw4GV4K7t+3dXAG4FXDUbz/SqniNga+BRw7+oWaUoJHJSZb6sOWRQRsR7wLuAx1S3SDPw38LDM+f5u7ngYf0jzHJqn4gdT+nWX0Xxo+W+D0WLcQbIUHOgTGg/jIcAbgPtUt6jTrgReC/zjPL9HMiIGNA92+uPqFmlK1wF7Zeap1SGLICL+leYH3VLffR94aGaOq0OWyngYGwEvBJ4DbF6co277MvC0wSg/Wx3SRw70dTQexq2AI2lu5/EBGFpb5wOHzvOr2SLiLjQPeLpVdYs0pV/S3KJ6XnXIPIuIF9E86Vnqu58B22XmN6pDlkr7yrTjgHtUt6g3kuZrn88fjPJn1TF94kBfS+NhrAc8EXgVvjJNk1kN/Cvwd4NRXlkdsxQi4oHAJ4BbVLdIU/oFza2q/10dMo8i4knAm6o7pBm4Atg5M79QHbIUxsPYHHgl8Ex8AJwm83Oar0S8eTDK1dUxfeBAXwvjYdyP5nb2B1W3aC58F3jyYJQfqw5ZChGxguYd8T4wRn03pvlU7HvVIfMkIvYG3gesX90iTelaYI/MPKs6ZCmMh7ELzQ/S7lDdornweZrb3r9YHdJ1DvTfYTyMrYFXAE/Dnxpq9t4CHDEYzd/DZCLicTSvnfNrIOq7bwLbZ+ZF1SHzICIeBpwJbFLdIk0pgcdn5onVIbPWXv/+E83biaRZWk3zoeeL5vH6d1Yc6L/FeBiPBV4HbFvdorn2E+Dpg1F+sDpk1iLiWTR/hqS++yKwY2ZeXh3SZxFxH+CTwFbVLdIMHJ6ZR1VHzNp4GHsBRwO3rW7RXLsIOHwwyndXh3SRA/0mxsPYFPg3/Kmhltd7gWcORvP1KV1EvJLmia9S350N7JqZV1eH9FFE3IHmIZJe9Gse/GNm/l11xCyNh7EtzXNyHl3dooXyFuCwwSh/WR3SJQ70GxkP4x40Q+me1S1aSBcDw8Eo314dMksR8Wbg0OoOaQY+AOyf6UNu1kVEbEszzu9U3SLNwHGZ+cTqiFkaD+MJwAj4g+oWLaT/AR49GOX51SFd4UBvjYdxEPB6YLPiFOk9NK9km4snvUfE+sD7gUdVt0gzcGxmPrk6oi8iYguakE6VMgAAIABJREFUuw/uX90izcCHgH0z8/rqkFlon9B+HPCY6hYtvKuAZwxGeUJ1SBcs/EBvD05HAwdWt0g38t/AXoNRfqc6ZBYiYhPgLGCH6hZpBl6ZmS+qjui6iNgIOA14RHWLNAPnAisy81fVIbMwHsYdgQ8C965ukW7kbTTPZpqLD6kmtdADfTyMe9Pc0n636hbpZlwCPG4wyjOrQ2YhIrYGPoUXA5oPz85MH4L4W0TEesCJ+H1WzYf/Bh6WOR9PnR4PYyXNn89tqlukm/G/NLe8/3d1SJWFfXXYeBhPAj6H41zdtQ1w2ngYL6gOmYX2wmYV8L3iFGkWRhHx+OqIDjsKx7nmw/eAVXM0zl9Ac2eL41xddTfgc+1WW0gL9wn6eBhbAMcAj6tukdbBScBB83DLT0TcBfg0cOvqFmlK1wKPyszTq0O6JCJeDLysukOagZ8C22fmN6pDptV+pfMEYL/iFGldnAg8ZTBarNecLtRAb5/S/kHgztUt0gS+Cuw9GOW3qkOmFREPoHlw1C2qW6QpXQXskpmfrQ7pgoh4Ms0PwaW+uwLYKTP/ozpkWuNh3Ak4GbhXdYs0gW/SPJdpYZ7yvjC3uI+H8RCaB3w4ztVX9wK+MB7GrtUh02ovePYBrqlukaa0GfCRiFj413NGxD7AG6o7pBm4BthnTsb5rsAXcJyrv+4MnNtuuYWwEJ+gj4exG/A+fIWa5sNq4MXAqwajfv8BjojHAu8CorpFmtKPgYdm5g+qQypExI7AGcDGxSnStBL4q8x8d3XINMbDCOBvgZezQB/Iaa5dBew/GOVp1SFLbe4H+ngYTwDeAmxQ3SLN2AeAA/v+vfSIeBbg07A1D75O833Vn1WHLKeIuC/wSWDL6hZpBg7PzKOqI6bRft/8bTR3qknz5DrgkMEo314dspTm+idq42EcAbwVx7nm0z7AR8fD2Ko6ZBrthdA/VndIM3BX4PSIWJhnK0TEHYHTcZxrPvzjHIzzrYCP4jjXfNoAeGu78ebW3H6CPh7GkcDzqjukZfAfwIrBKC+pDplGRBwLPLG6Q5qBjwG7Z+ZcP2MhIrYFzgPuVN0izcCbM7PXr3UaD2Mb4CzgAdUt0jJ49WCUz6+OWApzN9DHw9gAOBY4qDhFWk5fBh45GOVPq0MmFRHrA+8HHlXdIs3A+4DHZubq6pClEBFbAOcA9ytOkWbhQ8C+mXl9dcikxsO4Nc0n5/epbpGW0QnAkwajvK46ZJbmaqCPh7Ep8F5gj+oWqcD5wCMGo7ygOmRSEbEJzU//d6hukWbgDZn59OqIWYuIjWhua9+5ukWagXOBFZn5q+qQSY2HcRvg48A9qlukAh8BHj0Y5S+rQ2Zlbr6D3t7W81Ec51pc9wA+OR7G7apDJtVeIO0JfKW6RZqBp0XES6sjZiki1gPegeNc8+ErwJ49H+e3o3lIo+Nci2oPmmcybVMdMitzM9CBk4DtqiOkYnehGel/XB0yqcz8BbAK+F5xijQLfx8Rh1VHzNC/AftXR0gz8D1gVXvO6aX2XP9JmnO/tMi2o9mCc2GeBvpzgcurI6QOuCPwqfEwevvgpsz8CbAC6O136qUbeV1EPLY6YloR8Q/A06o7pBn4Kc1t7T+pDplUe47/FM05X1p0l9Nswbkwb99BfwRwGrBRdYvUAWOa76T/b3XIpCLiAcDZwMK8tkpz61pgj8w8qzpkEhHxVOAN1R3SDFwB7JSZ/1EdMqnxMO5G853zQXWL1AHXALsNRvnx6pBZmadP0Gn/wRwAzOVTc6V1NKC53f3e1SGTai+g9qY5+Ep9tiHwgYh4UHXIuoqIfYHXV3dIM3ANsHfPx/m9aG5rd5xLzeY7YJ7GOczZQAcYjPJ9wDOrO6SO2BY4ezyM+1aHTCozPwYcCMzP7T5aVJsDp0XE3atD1lZE7AS8kzm8XtDCSeDA9pzSS+25/Byac7skeGa7/ebKXJ5wB6M8GnhZdYfUEX8AnNnz76S/Bzi8ukOagT8AzoyI21eH/D4R8efAB4GNq1ukGTi8PZf0UnsOP5PmGCIJXtZuvrkzV99Bv6nxMN4IPKW6Q+qI7wLbDUb9fShORLwC+LvqDmkGvgbskJkXV4fcnIj4U+A84A+rW6QZeGVmvqg6YlLjYdyW5s/jHapbpI44ZjDKp1ZHLJW5/AT9Rp4OvL86QuqIOwBnjIexVXXIpNoLrDdXd0gzcHfg1IjYvDrkpiLiD2k+qXOcax68uefjfCvgDBzn0hrvp9l4c2uuP0EHGA9jY5oD247FKVJXnAusGIzyV9Uhk4iI9WnedblXdYs0A2fRPN392uoQgIjYkuY7rn9enCLNwgeB/TLz+uqQSYyHsQnNMWKH6hapI84BVg1GeXV1yFKa90/Qaf8BPgr4UnWL1BE7AO8eD2P96pBJtBdaj6N5/6vUdyuAt0VEVIdExMY0g8ZxrnnwKeBxPR7n6wPvxnEurfEl4FHzPs5hAQY6wGCUlwGrgO9Ut0gd8SjgmOqISWXmr4A9ga9Ut0gz8FjgqMqAiFiP5mntO1V2SDPyFWDP9lzRV8fQnKslNRtuVbvp5t5CDHSAwSgvpPmk4sLqFqkjDh0P41XVEZPKzEtpfvD2veIUaRYOi4i/L/z7vx7Yt/DvL83K94BV7Tmil9pz86HVHVJHXEjz1cyF2XALM9ABBqP8NrArsBA/fZHWwgvGw3h2dcSkMvMnND94+2l1izQDL42IZX8qbUS8BJjbp+FqofwUWNGeG3qpPSe/oLpD6ojLgF3bDbcw5v4hcTdnPIydgNPx3a4SQAJPGIzyndUhk4qI+9M8OOQWxSnStFYDj83M9y3H3ywingbM5XtktXCuAHbMzP+sDpnUeBiPB94OlD+TQuqAq2nG+dnVIcttIQc6wHgY+wLvZcHuIpB+i2uBPQejPKM6ZFIRsQtwKrBRdYs0pWuA3TLz40v5N4mI/YD34HlQ/XcNsHtmfqw6ZFLjYawCTgE2rG6ROmA18OjBKBfyddkLe1Ju/4E/o7pD6ogNgZPGw3hwdcik2guzA2kO6lKfbQR8MCIesFR/g4jYGXgHC3wdoLmxGjiw5+P8wTSvD3WcS41nLOo4hwU/MQ9G+UbgJdUdUkdsDpw6Hsbdq0MmlZnvAQ6v7pBm4BbA6RFx11n/hSPifjSvU/NrXpoHh7fH/l5qz7mn0pyDJcFL2o22sBb2FvcbGw/j9cDTqzukjvghsN1glD+sDplURLwceFF1hzQD3we2y8wfz+IvFhF/CnwG2HYWfz2p2Csy88XVEZMaD+P2wHnA7atbpI44ejDKhb/DeaE/Qb+RZwLL8kAeqQduD5w5HsYtq0Mm1V6wHVvdIc3AHwNnRkz/5zEibgOcheNc8+HYno/zWwJn4jiX1ngfzSZbeH6C3hoPYyOaJ7vvXN0idcS/A48YjPKq6pBJRMT6NAf7vatbpBn4LLBL5mR/HiNiS+CTwH1nWiXVOBnYPzOvrw6ZxHgYmwEfB/6iukXqiE/QPLH9muqQLnCg38h4GFvQvKrpfsUpUlecQfN092urQyYREZvQfELxsOoWaQZOBx6VuW5/HiNiY5o/yzsuRZS0zD4FrMzMX1WHTGI8jA1pnta+qrpF6ogvAjsORnl5dUhXeIv7jbT/YuwKfKu6ReqIVcDx42H08p2s7QXcnsBXqlukGdgVOD5i7f88RsR6wLtwnGs+fAXYs8fjPIDjcZxLa3yL5pNzx/mNONBvYjDKi4AVwAXVLVJHPB745+qISWXmpTQXQ9+tbpFm4PHAaB3++0cD+yxRi7Scvgusao/pffXPNH+GJTVba0W7vXQjDvSbMRjld2ku6Pt8EpBm6dnjYbygOmJSmfkTYCXgSUDz4PCIeOHv+y9FxMuApyxDj7TULqK5rf0n1SGTas+hz67ukDriUmBVu7l0E34H/XcYD+PhNN/b26S6ReqIQwejfEt1xKQi4v7A2cAW1S3SDDw5M2/2bQUR8Qzg35a5R1oKlwM7ZeZ/VodMajyMQ4DjqjukjvgVzTj/ZHVIVznQf4/xMPameRL0+tUtUgdcD+w7GOWHqkMmFRGPAE4DNqpukaZ0PfDozPzAjf/DiHg0cCLeJaf+uwbYLTM/Xh0yqfEwHgW8H68jJWjOW/sPRnlydUiXefL+Pdp/gZ5W3SF1xPrAu8fD2KE6ZFLthd4TgNXVLdKU1gfeFRE7rfkP2h9AvR3P7+q/1cATej7OdwDejeNcWuNpjvPfz0/Q19J4GC8CXl7dIXXEpcDDBqPs7dPRvQVYc+Rymqe0B36FQ/PjsMx8fXXEpMbD+DOaV8JtVd0idcSLB6N8RXVEHzjQ18F4GP8KHFbdIXXET4Dt+vyAj/YhWi+u7pBmYM0DELctrZBm4+WZ+ffVEZMaD+MOwHnAbatbpI74t8Eon1kd0RfeArduDgfeUx0hdcRtgbPGw+jtIGgvAN9U3SHNwLY4zjUf3tTzcb4tcBaOc2mN99BsKK0lP0FfR+NhbAScCuxS3SJ1xBeBHQejvLw6ZBIRsT7NgyD3rm6RpAV3MrB/Zl5fHTKJ8TC2AM4B7lecInXFx4DdB6O8pjqkTxzoExgP4xY03/N7QHWL1BGfAHbt6wE4IjYGzgQeXt0iSQvqkzTvOr+6OmQS7Qc4pwM7V7dIHfEfwE6DUV5RHdI33uI+gfZftN2Ab1a3SB2xM/DO8TB6eUxpLwgfBXy5ukWSFtCXgUf1eJyvB7wTx7m0xjeB3Rznk+nlxXQXDEb5U2AFzYOyJMF+9Pip6Jl5KbAK6O1D7ySph74LrGqPwX31bzTnQEnNNlrRbiVNwIE+hcEovwesBH5RnCJ1xdPGw3hJdcSkMvMCmh+8XfT7/ruSpKldBKxoj7291J7znlbdIXXEL4CV7UbShPwO+gyMh7EDzRM7N6lukTriGYNRHl0dMamIuB/Ng358n7QkLY3LgR0z84vVIZMaD+PpQG/f1S7N2K9oPjk/tzqk7/wEfQbafxEfC/TyqaPSEvjX8TD2r46YVHvBuDfQy4feSVLHXQPs3fNxvj/wr9UdUkdcDzzWcT4bDvQZGYzyQ8BTqjukjlgPeMd4GI+oDplUZn4ceAKwurpFkubIauAJ7TG2l9pz2zvwOlpa4yntFtIMeGCZocEojwNeWN0hdcRGwMnjYdy/OmRSmfle4FnVHZI0R57VHlt7qT2nnUxzjpMEL2w3kGbEgT5jg1G+CnhddYfUEVsAp4+HcefqkEll5uuBl1d3SNIceHl7TO2l9lx2Oj6fRFrjde320Qw50JfGEDixOkLqiFsDZ42HcdvqkEll5t8Db6rukKQee1N7LO2l9hx2Fs05TVKzdYbVEfPIp7gvkfEwNgQ+QvPKJknw38DDBqPs5WsJI2I94H3APtUtktQzHwD2z8xePtNjPIytgU8B965ukTriLGCPwSivrQ6ZRw70JTQexubA2cADq1ukjvg0zSs4flkdMomI2Bg4E3h4dYsk9cQngZWZeXV1yCTGw9iUZoxsX90idcQXgJ0Go7yyOmReOdCX2HgYt6IZJXetbpE64hRgn8Eoe/lawojYkuaTlPtUt0hSx30ZeFhmXlYdMonxMNan+fR/z+oWqSO+Dmw/GOXPqkPmmd9BX2Ltv8ArgR9Xt0gdsSdwbHXEpNoLzVXAd6pbJKnDvgOs6us4bx2L41xa48fASsf50nOgL4PBKL9Pc0F/SXWL1BEHj4fxf6sjJpWZF9D84O2i6hZJ6qCLaG5rv6A6ZFLtOerg6g6pIy4BVrWbRkvMgb5MBqP8KvCXQC+/eystgeePh/E31RGTysxvAbsCl1e3SFKHXA7s2h4je6k9Nz2/ukPqiF8Cf9luGS0DB/oyGozyPOAxwHXVLVJHvHY8jAOqIyaVmV8E9gKuqW6RpA64BtirPTb2UntOem11h9QR1wGPaTeMlokDfZkNRvlh4EnVHVJHBHD8eBi7VodMKjM/ARwA9PL1QZI0I6uBA9pjYi+156Ljac5NkuBJ7XbRMnKgFxiM8gTgBdUdUkdsAJw0HsZDqkMmlZnvA55Z3SFJhZ7ZHgt7qT0HnURzTpIEL2g3i5aZA73IYJRHAqPqDqkjNgM+Mh7GPapDJpWZRwMvq+6QpAIva4+BvdSeez5Ccy6SBKN2q6iAA73WEcA7qiOkjrglcOZ4GLevDplUZv4DcEx1hyQto2PaY18vteecM2nOQZKabXJEdcQii8ysblho42FsCJxC8xo2SfC/wPaDUV5cHTKJiFgPeB+wT3WLJC2xDwD7Z2Yvn8ExHsYfAJ8G7lbdInXEGcCeg1FeWx2yyBzoHTAexubAx4EHV7dIHfE54BGDUV5ZHTKJiNiY5iS3Y3GKJC2Vc4BVmXl1dcgkvPaSfkOvr73miQO9I/wprvQbzqR572Yvf4obEVsCnwTuW90iSTP2JeDhmXlZdcgk2rsXPwysrG6ROuJrwA59vXtx3vgd9I5o/0CsAH5U3SJ1xErghPEwevm6m/bCdVfgO9UtkjRD3wF27fE4D+AEHOfSGj8CVjrOu8OB3iGDUf6Q5oTx8+oWqSP+ih6/7SAzL6D5wduF1S2SNAMXAivaY1tfjWjOLZKazbGy3SDqCAd6xwxGeT6wB3BVdYvUEYePh/HC6ohJZea3aT5Jv7y6RZKmcDnNJ+ffrg6ZVHsuOby6Q+qIq4A92u2hDnGgd9BglJ8F9geuq26ROuKV42E8sTpiUpn5X8BeQC8fpiRp4V0N7NUey3qpPYe8srpD6ojrgP3bzaGOcaB31GCUpwGHAj7FT2q8cTyMvaojJpWZnwAOAHr5OiJJC2s1cEB7DOul9tzxxuoOqSMSOLTdGuogB3qHDUb5NuB51R1SR6wPnDgexsOqQyaVmScBh1V3SNI6OKw9dvVSe844keYcIgme124MdZQDveMGo3wt8NrqDqkjNgFOGQ/jPtUhk8rMNwAvre6QpLXw0vaY1UvtueIUmnOHJHhtuy3UYQ70fnge4E+6pMZWwBnjYdyxOmRSmfkSvN1SUre9sT1W9VJ7jjiD5pwhqdkS3pnbA5HpV5z7YDyMDYAPAbtVt0gd8S1gu8EoL6oOmURErAe8F9i3ukWSbuL9wKMzs5fPzBgPY1vgPOBO1S1SR5wGPGowSh9A3QMO9B4ZD2Mz4GPAQ6pbpI74L2DHwSgvqw6ZRERsDJwO7FTdIkmts2lep9bLt06Mh7ElcA7w58UpUld8FthlMEpf4dwTDvSeGQ/jlsC5wD2qW6SOOBvYdTDq58VkRGwJfBK4b3WLpIX3JeDhmf38oed46A89pZs4H9hhMMqfV4do7fkd9J5p/4CtBH5Y3SJ1xE7AO8fD6OXxrL0QXgV8p7pF0kL7DrCqx+N8PeCdOM6lNX4IrHSc908vL2gX3WCUPwJWABdXt0gdsS9wdHXEpDLzQpo/0xdWt0haSBcCK9pjUV8djc/0kNa4GFjRbgb1jAO9pwaj/F9gd+DK6hapI54yHsbLqiMmlZnfBnYFevnplaTeuozmO+ffrg6ZVHvsf0p1h9QRVwK7t1tBPeRA77HBKD8H7AdcW90idcSLx8N4RnXEpDLzv4C9gF5+n15S71wN7NUee3qpPea/uLpD6ohrgf3ajaCecqD33GCUZwCHAD7tT2ocNR7GY6ojJpWZZwMHAL18vZGk3lgNHNAec3qpPdYfVd0hdUQCh7TbQD3mQJ8Dg1G+AziiukPqiPWAt42HsUt1yKQy8yTgsOoOSXPtsPZY00vtMf5teC0rrXFEuwnUcx7U5sRglCPgyOoOqSM2Ak4eD+MB1SGTysw3AC+t7pA0l17aHmN6qT22n0xzrJcER7ZbQHPA96DPmfEw3gIcXN0hdcRPge0Ho/xGdcikIuJo4GnVHZLmxhsy8+nVEZMaD+MuwKeBW1e3SB1x/GCUh1RHaHb8BH3+PBn4cHWE1BG3Bs4aD2NQHTKFw4De3oYqqVN6/fWZ9lh+Fo5zaY0P01z7a474CfocGg9jU+CjwHbVLVJHfBXYYTDKX1SHTCIiNgZOB3aqbpHUW2fTvE6tl2+JGA9ja+Bc4F7VLVJHnAc8cjDKX1aHaLYc6HNqPIxtgE/hiUxao9cnsojYEjgH+PPiFEn981/Ajpl5WXXIJPzgQfoNXwUeNhjlJdUhmj1vcZ9T7R/YVcD3q1ukjtgOeO94GBtUh0yivbDeFfh2dYukXvk2zSfnfR3nGwDvxXEurfF9YJXjfH450OfYYJQ/BlYCP6tukTpiD+DY6ohJZeaFNH+mL6xukdQLFwIr22NHXx1Lc+yW1FzTr2yv8TWnHOhzbjDKrwO7AVdWt0gdcdB4GK+ujphUZn6b5u6YXn4aJmnZXAasao8ZvdQeqw+q7pA64kpgt/baXnPMgb4ABqP8ArAPcG11i9QRzx0P44jqiEll5peAvYBePuxJ0pK7GtirPVb0UnuMfm51h9QR1wL7tNf0mnMO9AUxGOVZwF8DPhVQarxmPIwDqyMmlZlnA48HVle3SOqU1cDj22NEL7XH5tdUd0gdkcBft9fyWgAO9AUyGOWJwLC6Q+qIAI4bD2P36pBJZeb7gWdUd0jqlGe0x4Zeao/Jx9EcoyXBsL2G14JwoC+YwShfB7yqukPqiA1onuz+0OqQSWXmG4GXVHdI6oSXtMeEXmqPxe+lOTZLgle11+5aIL4HfUGNh/Fm4NDqDqkjLgF2GIzyf6pDJhURRwNPq+6QVOYNmfn06ohJjYdxT+BcYJvqFqkjjhuM8onVEVp+foK+uJ4CfKg6QuqIbYAzx8P4o+qQKRwGnFQdIanESTTHgF5qj71n4jj/f+zdd7hlZXn38e8tXUBRirowYgM09oL6ztDLFMoAGkVaFBUDQ10xBisGTXLFJGZhQ0EEsSG9D8xIhyHF2DWxUNToQ7FQlSIz9/vH85wERWRmnXI/a+/f57reP16jc75n71We+6y91xKZcB55rS5jSFfQx1hqbU1gCbBVdItIJb4PbNl0/ovokD7MbA1gEbB9dIuIzJjLgZ3dfZBPdUitbQBcC2we3SJSiWuAOU3n90WHSAwN6GMutbYecDXwgugWkUr8B7B90/mvo0P6MLN1gauAl0S3iMi0+zqwjbvfHR3SR2ptbfIfGF4R3SJSiW8DWzed3xEdInH0EfcxVw4Ac4EfBaeI1OIVwNmptdWiQ/ooC/X5wA3RLSIyrW4A5g94OF8NOBsN5yITfgTM1XAuGtCFpvObgTnAz6NbRCoxBzgltTbIx/y4+63k3+GW6BYRmRa3AHPKvj445dh6Cvk4JSJ5DT6nrMllzGlAFwCazn8I7AzcE90iUom9gcE+2sTdbyRfSb8rukVEptRd5CvnN0aHTMKHycdYEclr753LWlxEA7r8n6bz/wT2BB6IbhGpxGGptXdHR/Tl7t8AdgcGefMoEXmY+4Hdy749SOWYelh0h0glHgD2LGtwEUADuvyepvNLgT8Hlke3iFTib1NrB0ZH9OXuVwL7oH1aZOiWA/uUfXqQyrH0b6M7RCqxHPjzsvYW+V8a0OVhms5PA46I7hCpyCdSa3tGR/Tl7mcDC6M7RGRSFpZ9eZDKMfQT0R0iFTmirLlFfocGdPmDms4/hv7KLTJhFeDU1No20SF9ufvxwPuiO0Skl/eVfXiQyrHzVPKxVETgb8taW+Rh9Bx0+aNSaycAg/14r8gUuwvYpumG+/1PM/s4upouMiTHufsh0RF9pdZeDFwFPC66RaQSn2o6f2t0hNRLV9Dl0RwMnBMdIVKJxwGXpNaeGR0yCYcBZ0RHiMgKOYMB31CtHCsvQcO5yIRzyGtrkUekK+jyqFJra5JPsIP9eK/IFLsBmN10w3wGsZmtDlwMbB/dIiKP6HLy49QG+WSV1NqTgKXAs6JbRCpxFTCv6fy+6BCpmwZ0WSGptceTDywvim4RqcQ3yB93H+Rzxs1sXeBK4KXBKSLycF8DtnX3u6ND+kitPY68ZnhxdItIJb5JXjPcGR0i9dNH3GWFlAPKPOCm6BaRSrwYOC+1tkZ0SB9l4T8fuD66RUR+x/XkK+dDHc7XAM5Dw7nIhJvIV841nMsK0YAuK6zp/BZgDnBbdItIJbYFvphaG+Sdid39NmAucEt0i4gAeV+cW/bNwSnHwi+Sj40iktfMc8oaWmSFaECXldJ0fj35qtsg/7IvMg1eDRwXHdGXu99I/nTMID+qLzJC7gLmlX1yqI4jHxNFJK+V55e1s8gK04AuK63p/GvAHsAgb1wjMg3emlr7QHREX+7+TWABcH90i8iYuh9YUPbFQSrHQD06SiR7ANijrJlFVooGdOml6fxyYD9geXSLSCXek1ob7OOQ3P0qYB+0T4vMtOXAPmUfHKRy7HtPdIdIJZYD+5W1sshK04AuvTWdD/r5rCLT4MOptddHR/Tl7mcDC6M7RMbMwrLvDVI55n04ukOkIoeVNbJILxrQZVKazo8DjonuEKmEAZ9Nre0UHdKXux8PHB3dITImji773CCVY91nycc+EYFjytpYpDc9B12mRGrtE8BB0R0ilbgH2L7p/CvRIX2Z2ceAQ6I7REbYx9390OiIvlJrWwCXA+tEt4hU4pNN5wdHR8jw6Qq6TJVDgLOiI0QqsQ6wKLW2eXTIJBwOnB4dITKiTifvY4NUjm2L0HAuMuEs9EdtmSK6gi5TJrW2BnAxsF10i0glfgLMajr/WXRIH2a2OnkRvkN0i8gIuQzY2d0H+SSU1NrGwHXA06JbRCpxBflxanoSikwJDegypVJrjwOuBF4SnCJSi+8CWzWd3x4d0oeZrUvep18anCIyCr4GbOvud0eH9JFaewJwDfC86BaRSnwd2Lbp/K7oEBkdGtBlyqXWngQsBZ4V3SJSieuAHZvO740O6cPMNiLv08+ObhEZsOuB2e5+W3RIH6m1tYBLgVnRLSKVuAGY3XR+a3SIjBZ9B12mXDlQzQF0wBLJZgFnpNZWjQ7powwUc4DRtrq3AAAgAElEQVRboltEBuoWYM6Ah/NVgTPQcC4y4VZgjoZzmQ4a0GVaNJ3fCMwD9JEfkWwX4NOptUE+jsjdbyLv03dGt4gMzJ3AvLIPDU45Zn2afAwTkby2nVfWuiJTTgO6TJum828AuwO6aYZI9ufAP0ZH9OXu30T7tMjKuB/Yvew7Q/WP5GOXiJR9uqxxRaaFBnSZVk3nVwL7AsuDU0Rq8VeptbdHR/Tl7lcBewPLoltEKrcM2LvsM4NUjlV/Fd0hUonlwL5lbSsybTSgy7RrOj8LWBjdIVKRD6bW3hAd0Ze7n4P2aZFHs7DsK4NUjlEfjO4QqcjCsqYVmVYa0GVGNJ0fD7wvukOkEgacmFrbNTqkL3c/ATg6ukOkUkeXfWSQyrHpRPKxSkTgfWUtKzLt9Jg1mVGptY+jK28iE+4Fdmo6Xxod0peZfQw4JLpDpCIfd/dDoyP6Sq3NBr4MrBXdIlKJ45rOdZ6TGaMr6DLTDgNOj44QqcRawAWptedHh0zC4WifFplwOnmfGKRyLLoADeciE04nr11FZoyuoMuMS62tDiwCdohuEanEz4DZTec/jg7pw0z7tAhwGbCzuz8QHdJHam0TYCmwcXSLSCUuA3ZuumHu0zJcGtAlRGptXeBK4KXBKSK1+AF5SP9FdEgfZrYucAXwsugWkQBfBbZz97ujQ/pIrW1AHs43i24RqcTXgG2bbpj7tAybBnQJk1rbiLwgeHZ0i0glvgJs33R+T3RIH2a2EXAtsGl0i8gM+iGwpbvfFh3SR2ptHeByYIvoFpFKXE/+g/kg92kZPn0HXcKUA98c4OboFpFKbAGcXb4GMjhlQJmL9mkZHzcDcwc8nK8OnI2Gc5EJNwNzNJxLJA3oEqrp/CZgHnBndItIJXYCPptaG+Tx2d1vAuajfVpG353A/LLND045xnyWfMwRkbxPzytrU5Ewg1wAymhpOv8WsAC4L7pFpBJ7AR+OjujL3b+J9mkZbfcBC8q2PlQfJh9rRKTs02VNKhJKA7pUoen8amBvYFl0i0glDk2tvTc6oi93vxrYB+3TMnqWAfuUbXyQyrFlsM9qF5liy4C9y1pUJJwGdKlG0/m5wMHRHSIVeX9q7S+iI/py93PQPi2j5+CybQ9SOaa8P7pDpCIHlzWoSBU0oEtVms4/BbwnukOkIsel1l4dHdGXu38KGOwnAUR+z3vLNj1I5VhyXHSHSEXeU9aeItXQY9akSqm1jwCHRXeIVOJ+YH7T+RXRIX2Z2UfRR2pl2D7m7oM9L6XWtgMuBtaIbhGpxEebzg+PjhD5fbqCLrU6AvhSdIRIJdYAzk2tvSQ6ZBKOAE6LjhDp6TTyNjxI5dhxLhrORSZ8iQHv0zLadAVdqlWez3ohegSMyIRbgdlN5zdEh/RhZqsDFwE7RreIrIRLgV3c/YHokD5Sa88ClgJPim4RqcSXgV2bbpj7tIw+DehStdTaOsAVwMujW0QqcSN5SL8lOqQPM1sHuBJ4WXCKyIr4KrCtu98THdJHau3J5OH8mdEtIpX4T2C7phvmPi3jQQO6VC+1tiFwLbBZdItIJb4JbNN0fmd0SB9mtiF5aNg0ukXkj/ghMNvdfx4d0kdq7fHAVcCLoltEKvEDYMumG+Y+LeND30GX6pUD6VwgRbeIVOJFwHmptTWjQ/ooA89c4OboFpFHcDMwd8DD+ZrAeWg4F5mQgLkazmUINKDLIDSd/wiYB9wRnCJSi22AU1Nrq0SH9OHuN5H36UF+CkBG2p3AvLKNDk45JpxKPkaISF47zitrSZHqaUCXwWg6/zawG3BfdItIJfYAPhkd0Ze7fwtYgPZpqcd9wIKybQ7VJ8nHBhHJ+/RuZQ0pMgga0GVQms6vBfYClkW3iFTiLam1v4uO6Mvdrwb2Rvu0xFsG7F22yUEqx4K3RHeIVGIZsFdZO4oMhgZ0GZym8/OBt0Z3iFTkXam1w6Mj+nL3c4GDojtk7B1UtsVBKseAd0V3iFTkrWXNKDIoGtBlkJrOTwLeGd0hUpFjU2t7R0f05e4nAu+J7pCx9Z6yDQ5S2fePje4Qqcg7y1pRZHD0mDUZtNRaBxwZ3SFSid+Sv2u3ODqkLzP7CHBYdIeMlY+6+2A/gZJamwtcAKwW3SJSiWObztvoCJG+dAVdhu4vgS9GR4hUYjXgrNTaK6JDJuEI4LToCBkbp5G3uUEq+/pZaDgXmfBF8tpQZLB0BV0GL7W2GvnqwdzoFpFK/BLYsun8e9EhfZjZ6sBFwI7RLTLSLgV2cfcHokP6SK09B7gWWD+6RaQSi8mfIvttdIjIZGhAl5GQWlsbuBwY8pVDkan0E2B20/lPo0P6MLN1gCuAl0e3yEj6T2A7d78nOqSP1NpTgaXA06JbRCrxH8D2Tee/jg4RmSwN6DIyUmsbkK8mbB7dIlKJ/wK2ajr/VXRIH2a2IXkI2TS6RUbKD4HZ7v7z6JA+UmtPBK4B/jS6RaQS3yd/auwX0SEiU0HfQZeRUQ7Mc4CfRbeIVOJPgQtTa4+NDumjDFBzgJujW2Rk3AzMGfBw/ljgQjSci0z4GTBHw7mMEg3oMlKazn9C/i767dEtIpX4f8AZqbVVo0P6cPcfAfOAO4JTZPjuAOaVbWpwyj58BnmfFpG81ptb1n4iI0MDuoycpvPvArsC90a3iFRiZ+Ck1JpFh/Th7t8CFgD3RbfIYN0HLCjb0uCUffck8r4sInmNt2tZ84mMFA3oMpKazq8DXgc8GN0iUon9gX+OjujL3a8BXg8si26RwVkGvL5sQ0P1z+R9WETy2u51Za0nMnI0oMvIajq/EDgwukOkIn+ZWvvr6Ii+3P084KDoDhmcg8q2M0hln9VznUX+z4FljScykjSgy0hrOv8McFR0h0hFPphaOyA6oi93PxF4d3SHDMa7yzYzSGVf/WB0h0hFjiprO5GRpcesyVhIrX0IXYEQmbAM2LPp/ILokL7M7CPAYdEdUrWPuvvh0RF9pdZ2A84BVoluEanEvzSdvy06QmS66Qq6jIu/Aj4fHSFSiVWA01JrW0aHTMIRwJeiI6RaXyJvI4NU9s3T0HAuMuHz5LWcyMjTFXQZG+URNecD86NbRCpxB7B10/m3o0P6MLPVyc+E3im6RaryZWBXd38gOqSP1NoLgKuB9aJbRCpxMbCg6Vw3/pWxoAFdxkpq7bHAZcCroltEKpGA2U03zGdDm9k6wBXAy6NbpAr/CWzn7vdEh/SRWns6sBRoYktEqvFvwA5N57+JDhGZKRrQZeyk1p4IXAs8N7pFpBI/ALZsOv95dEgfZrYheZ/eLLpFQv0A2NJ9mNtxarUdi/ye/yafm34VHSIyk/QddBk75UA/F/hpdItIJTYDFqXW1okO6aMMZHPJnwaQ8ZSAuQMeztcBFqHhXGTCT4G5Gs5lHGlAl7HUdP4/5AW9Dvwi2cuBc1Jrq0eH9OHuPwLmkb9XL+PlDmBe2QYGp+xz56CvaYhM+BV5OP+f6BCRCBrQZWw1nf8XsCug7zWJZDsCn0utDfLc4O7fBhYA90W3yIy5D1hQ3vvBKfva58j7nojkNdmuZY0mMpYGuQgTmSpN5/8KvBbQnUFFstcBH42O6MvdrwFeT37Wu4y2ZcDry3s+VB8l73Miktdiry1rM5GxpQFdxl7T+SLgTYDumCiSLUytHR0d0Ze7nwf8RXSHTLu/KO/1IJV9bGF0h0glHHhTWZOJjDUN6CJA0/nngLdHd4hU5JjU2kHREX25+6eBd0d3yLR5d3mPB6nsW8dEd4hU5O1lLSYy9vSYNZGHSK39IxrURSYsB/ZqOj8zOqQvM/swcHh0h0ypj7j7EdERfaXW/gw4DV0kEZnwT03nfx0dIVILnRxEftdRwCnRESKVeAzw+dTa9tEhk3AkcGp0hEyZU8nv6SCVfenzaP0lMuEU8tpLRApdQRf5Pam1VYFzgV2iW0QqcTewbdP516JD+jCz1YALgTnRLTIpS4Bd3f230SF9pNZeClwJrBucIlKLi4A9ms51o16Rh9CALvIHpNbWAi4FZkW3iFTiNmB20/n10SF9mNk6wOXAFtEt0stXgO3d/Z7okD5Sa88GlgIbRbeIVOI6YMem83ujQ0RqowFd5BGk1p4AXAM8L7pFpBI3kYf0m6ND+jCzDchD0mbRLbJSfgDMdvdfRIf0kVp7Cnm7e0Z0i0glvgts1XR+e3SISI30HSiRR1BOHPOAn0S3iFTiGcAlqbXHR4f0UQa8OUCKbpEVloA5Ax7OHw9cgoZzkQk/AeZpOBd5ZBrQRf6IpvOfAnOBX0a3iFTihcD5qbU1o0P6cPcfk//wdkd0izyqO4B55T0bnLKPnE/eZ0Qkr6XmlrWViDwCDegij6Lp/HvkG8b9OrpFpBJbA19Kra0SHdKHu38b2A24L7pFHtF9wG7lvRqcsm98ibyviEheQ+1S1lQi8kdoQBdZAU3n/w78GTDIuweLTIPdgeOjI/py92uBvYBl0S3yMMuAvcp7NFTHk/cREclrpz8raykReRQa0EVWUNP5JcABgO6sKJK9ObX299ERfbn7+cBbozvkYd5a3ptBKvvEm6M7RCrhwAFlDSUiK0ADushKaDr/AvC26A6RirwztXZkdERf7n4S8K7oDvlf7yrvySCVfeGd0R0iFXlbWTuJyArSY9ZEekit/QNwVHSHSCUc2H/IizAzOxY4IrpjzH3Y3Qf7x57U2r7A5wCLbhGpxAebzt8RHSEyNBrQRXpKrZ1E/si7iOTvGC4Y6scYzcyALwB7R7eMqVOBfX2gi5LU2jzyHdtXi24RqcTJTedvio4QGSJ9xF2kvwOBC6IjRCqxGnBmau2V0SF9lMHwDcCS6JYxtAR4w4CH81cCZ6LhXGTCBeQ1koj0oCvoIpOQWluLvLjcMrpFpBK/BLZqOv/v6JA+zGxt4Apgi+iWMfEVYDt3H+RjLFNrzwWuAdaPbhGpxLXAnKbze6NDRIZKA7rIJKXW1iMv0J4f3SJSif8BZjWd/zQ6pA8z24C8yNw8umXEfR/Y0t1/ER3SR2rtqcB1wJ9Et4hU4jvkP9DeER0iMmQa0EWmQGqtIS/UNoluEanEfwNbNp3/KjqkDzPbhLxPN9EtIyoBs9z9x9EhfaTWnkj+I85zo1tEKvFj8h9mU3SIyNDpO+giU6CckOYAg7wSJDINngtclFp7bHRIH2VwnAvoStDUuwOYO+Dh/LHARWg4F5nwC/LH2jWci0wBDegiU6Tp/AfAzsA90S0ilXgV+cZxg7x5lrt/B9gN0Hcpp869wG7ltR2csi2fSd62RSSveXYuayARmQIa0EWmUNP5V4DXkB85JSIwHzgptTbIZ0O7+7XA64Fl0S0jYBnw+vKaDk7Zhk8ib9Miktc6rylrHxGZIhrQRaZY0/kS8uOadIMHkWw/4EPREX25+/nAW6M7RsBby2s5VB8ib8siktc4byhrHhGZQhrQRaZB0/mpwJHRHSIVaVNr74iO6MvdTwLeGd0xYO8sr+EglW23je4QqciRZa0jIlNMd3EXmUaptb8D3hXdIVKRNzfdcAc1M+vQH99W1rHuPtjhNrX2JuDT0R0iFfn7pvN3R0eIjCoN6CLTLLX2KeAt0R0ilVgGvLrphvlRZzMz4PPAPtEtA/FFYD8f6GIjtbYAOBtYJbpFpBInNp0fGB0hMsr0EXeR6XcQcF50hEglVgFOS61tFR3SRxk03wgsDk4ZgsXAGwc8nG8FnIaGc5EJ55HXNCIyjXQFXWQGpNbWJC9Wt45uEanEHcA2Teffig7pw8zWBi4HXhHdUqn/ALZ3919Hh/SRWnshcBWwXnSLSCWuBuY2nd8XHSIy6jSgi8yQ1NrjySe4F0a3iFTiZmB20/lN0SF9mNkGwLXA5tEtlfk+sKW7/yI6pI/U2jOApcBToltEKvEtYOum8zujQ0TGgQZ0kRmUWnsKcB3w9OAUkVr8ENiy6fy26JA+zGwT8jC3cXRLJX4GzHb3H0eH9JFa24j8R5dNo1tEKvEjYFbT+c3RISLjQt9BF5lB5QQ3B/h5dItIJTYFLk6trRsd0kcZROcBt0e3VOB2YN6Ah/N1gUVoOBeZ8HNgjoZzkZmlAV1khjWd/xCYD9wd3SJSiZcC56bWVo8O6cPdvwPsBtwb3RLoXmC38loMTtn2zgVeFt0iUom7gfllzSIiM0gDukiApvOvAq8GHohuEanE9sDnU2uDPC+5+1JgL/Jj5MbNMmCv8hoMTtnmPk/eBkUkr01eXdYqIjLDBrkQEhkFTeeXAvsDy6NbRCrxWuBj0RF9ufsFwDg+H/jA8rsP1cfI256I5DXJ/mWNIiIBNKCLBGo6Px04PLpDpCIHp9b+JjqiL3c/GXhHdMcMekf5nQepbGsHR3eIVOTwsjYRkSC6i7tIBVJr7wfeG90hUpGFTeefiI7oy8w64Mjojml2rLu30RF9pdYOBo6L7hCpyAeazo+OjhAZdxrQRSqRWjseeGt0h0gllgOvbzo/IzqkDzMz4HPAvtEt0+QLwP4+0EVEau21wJfQJwlFJpzQdP4X0REiohOTSE0OBs6OjhCpxGPIN43bITqkjzK4HgAsjm6ZBouBAwY8nO9Avimc1kAi2dnoqx4i1dAVdJGKpNbWIC9+t4luEanE3cB2Q72bsJmtDVwOvCK6ZYr8B7C9u/86OqSP1NrLgCuAdaNbRCpxJTCv6fz+6BARyTSgi1QmtfY44CrgxdEtIpX4OTB7qM/jNbP1gaXA5tEtk/R9YLa7/zI6pI/U2qbk92HD6BaRSnwD2Kbp/K7oEBH5PxrQRSqUWnsyeSH5zOgWkUr8CJjVdH5zdEgfZvY04Dpg4+iWnn4GzHL3n0SH9JFaewr59X96cIpILW4k/+HzlugQEfld+v6VSIXKCXMOcGt0i0glng4sTq2tFx3SRxls5wK3R7f0cDswd8DD+Xrkrw49PThFpBa3AnM0nIvUSQO6SKWazm8A5pO/gysi8ALg/NTamtEhfbj7d4HdgHujW1bCvcBupX1wyrZyPnnbEZG8pphf1hgiUiEN6CIVazr/OrAHoJu3iGRbAael1laJDunD3ZcCrwMejG5ZAQ8CryvNg1O2kdPI24yI5LXEHmVtISKV0oAuUrmm88uB/cjPhRYRWACcEB3Rl7tfCBwY3bECDiytQ3UCeVsRkbyG2K+sKUSkYhrQRQag6fxM4NDoDpGKvCm19g/REX25+2eAd0R3/BHvKI2DVLaNN0V3iFTk0LKWEJHKaUAXGYim808Ax0R3iFTkqNRaGx3Rl7t/EOiiO/6ArrQNUtkmjoruEKnIMWUNISIDoMesiQxMau044ODoDpFKOPDnTeefjw7pw8wM+Bywb3RL8QVgfx/o4iC1th/wWcCiW0Qq8Ymm84XRESKy4nQFXWR4DgX0MTWRzICTU2vzo0P6KIPwAcAl0S3khgMGPJzPB05Gw7nIBH09TmSAdAVdZIBSa2sAFwPbRbeIVOI3wA5N5/8WHdKHma0NXAa8Mijh34Ed3P3XQT9/UlJrryK/fo+NbhGpxBXkx6npKTAiA6MBXWSgUmvrAlcBL4luEanEr4Ctms7/KzqkDzNbH7gWeM4M/+jvAVu6+y9n+OdOidTanwLXAE+MbhGpxNeBbZrO744OEZGVpwFdZMBSa08ClgLPim4RqcRPgVlN5/8THdKHmT0NuA7YeIZ+5M+AWe7+kxn6eVMqtfYn5NfrqdEtIpW4AZjddH5rdIiI9KPvoIsMWDkBzwFuiW4RqcRTgSWptfWjQ/oog/Jc4PYZ+HG3A3MHPJyvDyxBw7nIhFuAORrORYZNA7rIwDWd3wjMB+6KbhGpxHOAi1Jra0eH9OHu3wV2Be6dxh9zL7Br+VmDU97bi5j5rwOI1Oou8nfOb4wOEZHJ0YAuMgKazr8B7A7oZjAi2SuBM1Nrq0WH9OHu1wGvAx6chn/+QeB15WcMTnlPzyLuhnoitbkf2L2sBURk4DSgi4yIpvMrgX2A5cEpIrWYB3wmtTbIx265+4XAgdPwTx9Y/u3BKe/lZ8hfAxCRfM7fp6wBRGQEaEAXGSFN52cDB0d3iFRkH6CLjujL3T8DHDWF/+RR5d8cqo78nopIdnA594vIiNCALjJims5PAI6O7hCpyBGptXdGR/Tl7v8I/MsU/FP/Uv6tQSrv4RHRHSIVObqc80VkhOgxayIjKrX2MeCQ6A6Riryl6fzT0RF9mJkBnwX26/lPfB74cx/oST+19mbgxOgOkYp8vOn80OgIEZl6uoIuMroOB06PjhCpyPGptT2iI/oog/WbgEt6/M8vAQ4Y8HC+B3B8dIdIRU4nn+NFZATpCrrICEutrQ4sAnaIbhGpxH3A3Kbzq6ND+jCztYHLWPE7mP87sJ27T+cj26ZNam1rYDGwZnSLSCUuA3ZuOn8gOkREpocGdJERl1pbF7gCeFl0i0gl7gS2aTr/ZnRIH2a2PnAtj/4M8O8Br3L3O6e/auql1l4EXAU8PrpFpBJfBbZrOr87OkREpo8GdJExkFrbEFgKbBrdIlKJW4BZTec3RYf0YWZ/AlwHPPUR/is/BV7m7rfNXNXUSa09g/z7PTm6RaQSPwRmN53/PDpERKaXvoMuMgbKCX0ucHN0i0glngwsSa1tFB3Sh7v/D7ATcPsf+D/fDswa8HC+EbAEDeciE24mfzVHw7nIGNCALjImypXCeeSP94oIPBu4pHwNZHDc/Xvk+0v85iH/8W+AV5QBfnDKe3EJ+b0RkXzOnjfUT/uIyMrTgC4yRprOvwUsIN8oS0TgJcB5qbU1okP6cPevA9sAD5b/93J3vz62qp/yHpxHfk9EJJ+rF5Rzt4iMCX0HXWQMlccWnQmsEt0iUomzgNc1nS+PDunDzF5Ifhrbt6Nb+kitPYb86KjXRLeIVGIZ8GdN5+dGh4jIzNIVdJExVE74B0V3iFTkNcDHoyP6cvdvDXU4Lz6OhnORhzpIw7nIeNKALjKmms5PBN4d3SFSkYNSa8dER4yb8prrD4Yi/+fd5RwtImNIH3EXGXOptQ8Dh0d3iFTk0KbzwV5NH5LU2iHAx6I7RCrykabzI6IjRCSOrqCLyJHAqdERIhX5SGrtddERo668xh+J7hCpyKnkc7KIjDFdQRcRUmurARcCc6JbRCrxALBL0/ml0SGjKLW2I3ARsHp0i0gllgC7Np3/NjpERGJpQBcRAFJr6wCXA1tEt4hU4h5gu6bz/4wOGSWptZcDVwDrRLeIVOIrwPZN5/dEh4hIPA3oIvK/UmsbAEuBzaJbRCrxc2DLpvMfRIeMgtTaZsC1wIbRLSKV+AEwu+n8F9EhIlIHDegi8jtSa5sA1wFNdItIJX4MzGo6T9EhQ5Zaa8jHlk2iW0QqkcjHlh9Hh4hIPXSTOBH5HWWhMBe4I7pFpBKbAItTa+tFhwxVee0Wo+FcZMIdwFwN5yLy+zSgi8jDNJ1/B9gNuDe6RaQSzwcuTK2tFR0yNOU1u5D8GopIPrfuVs61IiK/QwO6iPxBTefXAnsBy6JbRCoxGzgttbZqdMhQlNfqNPJrJyL5nLpXOceKiDyMBnQReURN5xcAB0Z3iFRkN+BT0RED8inyayYi2YHl3Coi8gdpQBeRP6rp/GTgndEdIhV5Y2rtg9ERtSuv0RujO0Qq8s5yThUReUS6i7uIrJDUWgccGd0hUpG/ajr/UHREjVJrbwP+ObpDpCLHNp230REiUj9dQReRFfWXwBeiI0Qq8k+ptf2jI2pTXpN/iu4QqcgXyOdQEZFHpSvoIrLCUmurAecD86JbRCrxILB70/mi6JAapNZ2Bs4DdCM9kewSYEHT+W+jQ0RkGDSgi8hKSa2tDVwGvDK6RaQSvwF2bDr/1+iQSKm1/wdcCjw2ukWkEv8O7NB0/uvoEBEZDg3oIrLSUmvrA9cCz4luEanE7cBWTeffjQ6JkFp7HnAN8IToFpFKfA/Ysun8l9EhIjIsGtBFpJfU2tOA64CNo1tEKvEzYFbT+U+iQ2aSjgUiDzOWxwIRmRq6SZyI9FIWHnPJVw5FJA+oi1NrG0SHzJTyuy5Gw7nIhNuBuRrORaQvDegi0lv5OO+uwL3RLSKVeA5wUblXw0grv+NF6KsuIhPuBXYd16+6iMjU0IAuIpPSdH4d8Fry3axFBF4BnF2eejCSyu92Nvl3FZF8DnxtOSeKiPSmAV1EJq3p/CLgLYBuaiGSzQFOSa1ZdMhUK7/TKeTfUUTyue8t5VwoIjIpGtBFZEo0nZ8CHBXdIVKRvYFjoyOmwbHk301EsqPKOVBEZNI0oIvIlGk6/yfgQ9EdIhU5PLX27uiIqVJ+l8OjO0Qq8qFy7hMRmRIa0EVEREREREQqoOegi8iUSa29HfjH6A6Riny06Xykrjin1j4CHBbdIVKRv9ZVdBGZKrqCLiJTIrX2BuCD0R0iFTkNODI6YhocSf7dRCT7YDkHiohMmq6gi8ikpdZ2Ac4FVo1uEanEpcAuTecPRIdMh9Ta6uRnoO8Y3SJSiQeBPXQndxGZLA3oIjIpqbVZ5GFkregWkUp8Fdi26fye6JDplFpbB7gSeFlwikgt7gV21LPQRWQyNKCLSG+ptecB1wBPiG4RqcQPgdlN5z+PDpkJqbUNgaXAptEtIpW4Hdiq6fy70SEiMkwa0EWkl9Ta08gL86dGt4hU4mbycH5TdMhMSq09g3wseEp0i0glfko+FvwkOkREhkc3iRORlZZaWx9YjIZzkQl3AvPGbTgHKL/zPPJrICL53Li4nCtFRFaKBnQRWSmptbXJN4d6TnSLSCXuAxY0nX8rOiRK+d0XkF8LEcnnyIvKOVNEZIVpQBeRFZZaWw04E3hldItIJZYBezedXx0dEq28BnuTXxMRyefKM8u5U0RkhWhAF5EVkloz4GTyR1lFJDu46fzc6IhalNfi4OgOkYrMA04u51ARkUelAV1EVtSHgH2jI0Qq8t6m809FR9SmvBW6YBkAACAASURBVCbvje4Qqci+5HOoiMij0l3cReRRpdaOAv4hukOkIh9rOj8sOqJmqbWPAodGd4hU5B1N5x+MjhCRuukKuoj8Uam1A9BwLvJQpwFHREcMwBHk10pEsn8o51QRkUekK+gi8ohSa7sB5wCrRLeIVOJSYJem8weiQ4YgtbY6+akPO0a3iFRiGbBn0/kF0SEiUicN6CLyB6XWZgNfBtaKbhGpxFeB7ZrO744OGZLU2rrAFcDLoltEKnEvsFPT+dLoEBGpjwZ0EXmY1NrzgWuA9aJbRCpxPTC76fy26JAhSq1tBCwFnh3dIlKJO4Ctms6/Ex0iInXRgC4ivyO1tglwHdBEt4hU4mbycH5TdMiQpdaeQR7SnxLdIlKJBMxqOv9xdIiI1EM3iROR/5Va2wBYjIZzkQl3AvM1nE9eeQ3nk19TEcnn2sXl3CsiAmhAF5EitbYOsAjYPLpFpBL3Abs3nX8zOmRUlNdyd/JrKyL5nLuonINFRDSgiwik1lYDzgK2iG4RqcQyYJ+m86uiQ0ZNeU33Ib/GIpLPvWeVc7GIjDkN6CJjLrVmwCnAnOgWkYosbDo/JzpiVJXXdmF0h0hF5gCnlHOyiIwxDegiciywd3SESEWObjo/ITpi1JXX+OjoDpGK7E0+J4vIGNNd3EXGWGrtXcDfRXeIVOTjTeeHRkeMk9Tax4BDojtEKvLupvO/j44QkRi6gi4yplJrb0bDuchDnQ4cHh0xhg4nv/Yikv1dOUeLyBjSFXSRMZRa2518U7hVoltEKnEZsHPT+QPRIX2Y2Z8Cq7v7N6Jb+kitrU5+isQO0S0ilVgGvKbp/LzoEBGZWRrQRcZMam0rYAmwZnSLSCW+BmzbdH53dEgfZrY58J3y/53t7v8R2dNXam1d4ErgpcEpIrW4D5jTdH5NdIiIzBwN6CJjJLX2AuBqYL3oFpFKXA/Mbjq/LTqkDzN7FvAt4LHlP/oNsJW7fy2uqr/U2kbAUuDZ0S0ilbgD2Lrp/NvRISIyMzSgi4yJ1NrTgeuAp8SWiFTjFmBW0/lN0SF9mNlTycP5E37v/3Q7MMvdvzfzVZOXWnsG+Vj15OgWkUrcTD5W/Sg6RESmn24SJzIGUmsbkj/WruFcJLsTmDfg4XxD4F95+HBO+c++bGZ/MrNVU6O8J/PI75GI5HP3knIuF5ERpwFdZMSl1tYh33xp0+gWkUrcD+zedP7N6JA+zOzx5K+qPPWP/NeeCiwxs/Vnpmpqlfdmd/J7JSL5HL6onNNFZIRpQBcZYeXOyOcAL49uEanEcmCfpvOrokP6MLO1gMXAc1bgv/4c4CIzW3t6q6ZHeY/2Ib9nIpLP5eeUc7uIjCgN6CIjKrX2GOCzwI7RLSIVObjp/OzoiD7MbFXgbOCVK/E/eyVwppmtNj1V06u8VwdHd4hUZEfgs+UcLyIjSDu3yOj6MLBXdIRIRY5uOj8hOqIPMzPgZPJ3s1fWPOCk8m8MTnnPjo7uEKnIXuRzvIiMIA3oIiMotfYe4NDoDpGKHNd0/oHoiEn4Z2C/Sfzv9yv/xiCV9+646A6RihxazvUiMmI0oIuMmNTagcCQBxGRqXYGcFh0RF9m9tfAX07BP/WX5d8aqsPI76WIZB8o53wRGSF6DrrICEmt7UlewK4S3SJSicuB+U3nD0SH9GFmbyR/tH0qHeDun5nif3NGlJtjXQxsH90iUollwGubzs+JDhGRqaEBXWREpNa2AS4B1oxuEanE14Btm87vjg7pw8x2JT+FYdUp/qcfBPZ09wun+N+dEam1dYErgZcGp4jU4j5g3lCfTiEiv0sDusgISK29CLgKeHx0i0glrgdmN53fFh3Sh5nNAi4F1pqmH3EvsKO7XzdN//60Sq1tBCwFnh3dIlKJO4Ftms6/GR0iIpOjAV1k4FJrzwCuA54c3SJSiVvIw/mN0SF9mNnzgGuAJ0zzj7od2MrdvzvNP2dapNaeSR7SdewTyW4BZjWd3xQdIiL96SZxIgNWriItQQtUkQl3kb9zPtTh/GnAYqZ/OKf8jMXlZw5OeY/nk99zEclrgSVlbSAiA6UBXWSgyvcwL0Yf8RSZcD+we9P5N6JD+jCz9cnD+cYz+GM3Jg/p68/gz5wy5b3enfzei0heE1xc1ggiMkAa0EUGqNzJ+Fx0kySRCcuBfZrOr4wO6cPM1gYuAp4T8OOfA1xUGganvOf7kLcBEclrg3PLWkFEBkYDusjApNYeA3wePWZI5KEWNp2fHR3Rh5mtBpwJvDIw45XAmaVlcMp7vzC6Q6Qi2wOfL2sGERkQ7bQiw/NR4LXRESIVeV/T+fHREX2YmZGfcz4vuoXccHJpGpyyDbwvukOkIq8lrxlEZEA0oIsMSGrtaHSVSOShjms6f390xCR8CNg3OuIh9iU3DVLZFo6L7hCpyMKydhCRgdCALjIQqbWDgGOiO0QqcgZwWHREX2Z2FNBGd/wBbWkbqsPI24aIZMeUNYSIDICegy4yAKm11wCnoz+qiUy4nPw4tQeiQ/owszeSP9peswPc/TPREX2Um2NdjO7VITJhOfC6pvOzokNE5I/TgC5SudTaduSF5hrRLSKV+DqwTdP53dEhfZjZrsA5wKrRLY/iQWBPd78wOqSP8pipq4CXRLeIVOJ+YN5Qn3YhMi40oItULLX2YvIC83HRLSKVuAGY3XR+a3RIH2Y2G/gysFZ0ywq6F9jJ3ZdGh/SRWnsSsBR4VnSLSCXuIv+B8xvRISLyh2lAF6lUau1Z5IXlk6JbRCpxKzCr6fzG6JA+zOx5wDXAE6JbVtLtwFbu/t3okD5Sa88ErkPHUpEJt5L/0HlDdIiIPJy+zypSoXLVZzFaUIpMuIv80cyhDudPI+/TQxvOITcvLr/D4JRtZh55GxKRvLZYXNYaIlIZDegilUmtPY78nXN9JFMkux/YfagfyTSz9YElwMbRLZOwMbCk/C6DU7ad3cnbkojkNcbFZc0hIhXRgC5SkdTaGsC56KZGIhOWA/sO9aZGZrY2sAjYPLplCmwOLCq/0+CUbWhf8jYlInmtcW5Ze4hIJTSgi1QitfYY4AvAdtEtIhU5ZKiPBTKz1YCzgFdEt0yhVwBnld9tcMq2dEh0h0hFtgO+UNYgIlIB7Ywi9fg48JroCJGK/E3T+SejI/owMyM/53xudMs0mAucXH7HwSnb1N9Ed4hU5DXkNYiIVEADukgFUmvHAAdFd4hU5BNN58dER0zCv5A/Tj2q9iX/joNUtq1PRHeIVOSgshYRkWAa0EWCpdYWAkdHd4hU5Ezg0OiIvszsKODI6I4ZcGT5XYfqUPK2JiLZ0WVNIiKB9Bx0kUCptdcCX0J/LBOZcAUwv+l8kHfbNrMDgJOiO2bYm9z95OiIPsrNsS5G9/4QmbAceH3T+RnRISLjSgO6SJDU2vbkheHq0S0ilfg6sG3T+SCfV21muwHnAKtEt8ywZcCe7n5BdEgf5TFTV6KnZ4hMeID8h9LLo0NExpEGdJEAqbWXkheE6waniNTiBmB20/mt0SF9mNls4MvAWtEtQe4FdnL3pdEhfaTWngQsJT8bWkTgbvIfTL8WHSIybjSgi8yw1NqzyQvBjaJbRCpxK3k4vyE6pA8zez5wNfCE6JZgtwNbu/t3okP6SK09i3xsflJ0i0glbiMfm6+PDhEZJ/req8gMSq09GViChnORCXeRP0o51OF8E+ASNJxDfg0uKa/J4JRtcD55mxSRvFZZUtYuIjJDNKCLzJDU2uPJC/lnRLeIVOJ+YI+m869Hh/RhZhsAi4GNo1sqsjGwuLw2g1O2xT3I26aI5DXLJWUNIyIzQAO6yAxIra0JnAe8KLpFpBLLgf2azq+IDunDzNYGLgI2j26p0ObAReU1GpyyTe5H3kZFJK9dzitPPRCRaaYBXWSapdZWAb4IbBPdIlKRQ5vOB/kMajNbDTgLeEV0S8VeAZxVXqvBKdvmodEdIhXZBji1rGlEZBppQBeZfscBe0ZHiFTkmKbzT0RH9GFmBnwGmBucMgRzgc+U12xwyjZ6THSHSEX2JK9pRGQaaUAXmUaptQ8Ab43uEKnIJ5vO/yY6YhL+BdgnOmJA9iG/ZoNUttVPRneIVOStZW0jItNEA7rINEmtHQq8J7pDpCJnAYdER/RlZu8AjozuGKAjy2s3VIeQt10Ryd5T1jgiMg30HHSRaZBa24v8vXP9EUwku4L8OLVB3h3bzN4EfDq6Y+De7O4nRUf0UW6OdTGwXXSLSCWWA/s0nZ8WHSIyajSgi0yx1NqO5Ls7rx7dIlKJbwDbNJ0P8vnSZrYAOBvQzZEmZxnwanc/Pzqkj9Ta44CrgBdHt4hU4gFgl6bzS6NDREaJBnSRKZRaexlwJbBOcIpILW4EZjWd3xod0oeZbQksAdaKbhkR9wJz3P3a6JA+UmtPAq4DnhndIlKJe4Btm86/Gh0iMio0oItMkdTapsBSYMPoFpFK3ArMbjq/ITqkDzN7PnANsF50y4i5A9jK3b8THdJHau1Z5GP9k6JbRCrxc/Kx/ofRISKjQN+PFZkCqbWnkK+yaTgXye4if+d8qMP5JsBiNJxPh/WAxeU1HpyyTc8nb+Miktc+S8paSEQmSQO6yCSl1tYDLgGeHpwiUov7gT2azr8eHdKHmW1AHs6b6JYR1pCH9A2iQ/oo2/Ye5G1dRPIa6JKyJhKRSdCALjIJqbU1gfOBF0a3iFRiObBf0/kV0SF9mNnawCJg8+iWMbA5sKi85oNTtvH9yNu8iOS10PllbSQiPWlAF+kptbYK8CVgq+gWkYoc2nR+ZnREH2a2Gvlu7VtEt4yRLYCzy2s/OGVb1/OgRf7PVsCXyhpJRHrQgC7S3/HA7tERIhU5pun8E9ERfZiZAacAc6JbxtAc4JTyHgxO2eaPie4Qqcju5DWSiPSgAV2kh9Ta3wFvju4Qqcgnm87/JjpiEjpg7+iIMbY3+T0YpLLtfzK6Q6Qiby5rJRFZSRrQRVZSau1w4F3RHSIVOQs4JDqiLzN7J3BEdIdwRHkvhuoQ8r4gItm7yppJRFaCnoMushJSa3sDXwAG+VFMkWlwJTCv6XyQd7M2szcBn47ukN/xZnc/KTqij9TaGuSnemwbnCJSCwf2bTo/NTpEZCg0oIusoNTaHOBCYJA3MxKZBt8Atmk6H+TzoM1sAfmmcLqZUV2WAa929/OjQ/pIrT0OuAp4cXSLSCV+C+zadL4kOkRkCDSgi6yA1NoWwOXAOtEtIpW4EZjddH5LdEgfZrYl8GVAjwOq033ATu5+bXRIH6m1JwNLgWdGt4hU4h5g+6bzr0SHiNROA7rIo0itbQ5cC2wQ3SJSiduAWU3nN0SH9GFmLwCuBtaLbpE/6g5ga3f/dnRIH6m1ZwHXARtFt4hU4hfAlk3n348OEamZbhIn8kek1hpgMRrORSbcDcwf8HC+Cfk7whrO67cecEl5zwan7CPzyfuMiOS11OKythKRR6ABXeQRpNbWIw/ng1wcikyDB4A9ms6/Fh3Sh5ltACwBtDgcjgZYUt67wSn7yh7kfUdE8ppqcVljicgfoAFd5A9Ira0FXAA8P7pFpBLLgf2azi+PDunDzNYBFgGbRbfIStsMWFTew8Ep+8x+5H1IRPLa6oKy1hKR36MBXeT3pNZWAU4DtoxuEanIYU3nZ0RH9GFmq5GfT71FdIv0tgVwVnkvB6fsO4dFd4hUZEvgtLLmEpGH0IAu8nCfAnaLjhCpyPubzo+LjujDzAw4BZgT3SKTNgc4pbyng1P2ofdHd4hUZDfymktEHkIDushDpNb+ATggukOkIsc3nb8vOmISjgX2jo6QKbM3+T0dpLIvHR/dIVKRA8raS0QKDegiRWqtBY6K7hCpyNnAwuiIvszsXcDh0R0y5Q4v7+1QLSTvWyKSHVXWYCKCnoMuAkBqbV/gc8AgPzopMg2uBOY1nd8fHdKHmb0ZODG6Q6bVW9z909ERfaTW1iA/7m/b4BSRWjiwf9P5F6JDRKJpQJexl1qbB5wPDPLmQyLT4JvA1k3nd0WH9GFmu5NvCqebD422ZcBr3P286JA+UmuPA64GXhTdIlKJ3wILms4viQ4RiaQBXcZaau2VwGXA2tEtIpW4EZjddH5LdEgfZrYV+Vnna0a3yIy4D5jj7tdEh/SRWnsysBR4ZnSLSCV+DezQdP7v0SEiUTSgy9hKrT0HuBZYP7pFpBK3kYfz66ND+jCzF5CvSK4X3SIz6g5ga3f/dnRIH6m1Z5OH9I2iW0Qq8Utgy6bz70WHiETQTeJkLKXWNgYWo+FcZMLdwPwBD+dPJ3+nV8P5+FkPuKRsA4NT9rn55H1QRPLabHFZq4mMHQ3oMnZSa08gD+dPi24RqcQDwJ5N51+LDunDzDYk79NNdIuEaYDFZVsYnLLv7UneF0Ukr9EWlzWbyFjRgC5jJbW2FnAh8LzoFpFKLAf2azq/LDqkDzNbB1gEbBbdIuE2AxaVbWJwyj64H3mfFJG8VruwrN1ExoYGdBkbqbVVgTOAWdEtIhU5vOn8jOiIPsxsdfLzpF8e3SLVeDlwdtk2Bqfsi4dHd4hUZBZwRlnDiYwFDegyFlJrRn4m8i7RLSIV+UDT+cejI/owMwNOAXaKbpHq7AScUraRwSn75AeiO0QqsgtwYlnLiYw8DegyLj4IvCE6QqQiJzSdHx0dMQkfBl4fHSHVej15Gxmksm+eEN0hUpE3kNdyIiNPA7qMvNTa24C3R3eIVOQcYGF0RF9m9i7gsOgOqd5hZVsZqoXkfVVEsreXNZ3ISNNz0GWkpdb2J38MVh+LEsmuAuY2nd8fHdKHmb0F+FR0hwzKge5+YnREH6m1NchPKNgmukWkEg68oen8c9EhItNFA7qMrNTazsB5gG4sIpJ9E9im6fzO6JA+zGx34CxglegWGZRlwGvc/bzokD5Sa48n/2HtRdEtIpV4EFjQdH5xdIjIdNCALiMptfYq4DLgsdEtIpW4CZjVdH5LdEgfZrYVsARYM7pFBuk+YI67XxMd0kdq7cnAdcAzoltEKvEbYIem83+LDhGZahrQZeSk1p4LXAs8MbpFpBK3AbObzq+PDunDzF5IvoK4XnSLDNodwDbu/q3okD5Sa88GlgIbRbeIVOJXwJZN5/8dHSIylXSTOBkpqbU/IX9fT8O5SHY3sPOAh/OnA5eg4Vwmbz3gkrJNDU7Zh3cm79Miktd6i8vaT2RkaECXkZFaeyJ5ONeBWiR7ANiz6fyr0SF9mNmG5I+1PyW6RUbGU4AlZdsanLIv70net0Ukr/kWlzWgyEjQgC4jIbX2WOAi4LnRLSKVWA7s33R+WXRIH2a2DrAI2DS6RUbOpsCiso0NTtmn9yfv4yKS134XlbWgyOBpQJfBS62tCpwJvCq6RaQihzednx4d0YeZrU5+/vPLo1tkZL0cOKdsa4NT9u3DoztEKvIq4MyyJhQZNA3oMmipNQNOAuZHt4hU5G+bzj8eHdGHmRnwWWDH6BYZeTsCny3b3OCUffxvoztEKjIfOKmsDUUGSwO6DN0/kT/qJyLZCU3n742OmIQPA3tFR8jY2Iu8zQ1S2ddPiO4Qqcj+5LWhyGBpQJfBSq29HXhbdIdIRc4BFkZH9GVm7wYOi+6QsXNY2faGaiF53xeR7G1ljSgySHoOugxSau0NwMmAPsYkkl0NzG06vy86pA8zewvwqegOGWsHuvuJ0RF9pNbWJD/FZOvoFpFKOHBA0/kp0SEiK0sDugxOam0X4FxANwIRyb4FbN10fmd0SB9mtgf5Ro+rRLfIWFsG/Jm7nxsd0kdq7fHkP9S9MLpFpBIPAns0nV8UHSKyMjSgy6Ck1v4/e/cZrkdZ7WH8XiBNqkgdRECKIAgKophCgEBClRZERHoHFQYVPbZj7zpWUGlSpUpPskMnBXs7KmJXZERBeoAQyDofnokgCiTzzt5r5n3/v+vi4ouGW9kz86w9M8+MAq4DlopuEWmJPwKjs8L/Fh1Sh5ltTbrzt2R0iwjwGDDR3W+JDqmjzG11YCawTnSLSEs8CmyfFT4rOkRkQWlAl84oc9sYmA68KLpFpCXuJg3nv40OqcPMNiXd8Vs+ukXkaR4Atnb3n0eH1FHmtj5pSF85ukWkJe4DxmaF/zI6RGRBaJM46YQyt5eS7rJpOBdJHgJ26vBwvg4wFQ3n0j7LA1Orn9HOqc4JO5HOESKS1o5D1VpSpPU0oEvrlbm9mDScrxHdItISjwN7ZYX/KDqkDjNbmXRMrx7dIvIsVgeGqp/VzqnODXuRzhUiktaQQ9WaUqTVNKBLq5W5LQ1cA2wY3SLSEvOAA7PCr4sOqcPMlgGmAOtHt4g8j/WBKdXPbOdU54gDSecMEUlryWuqtaVIa2lAl9Yqc1uMtLPz66JbRFrk+KzwC6Mj6jCzxUnfa94iukVkAW0BXFb97HZOda44PrpDpEVeB1xSrTFFWkkDurRSmZuRvnO+Y3SLSIt8LCv8q9ERdZjZIsDZwPbRLSILaXvg7OpnuHOqc8bHojtEWmRH4MxqrSnSOp282MhA+AKwf3SESIucmhX+geiIHnwJ2Dc6QqSmfUk/w51UnTtOje4QaZH9SWtNkdbRgC6tU+b2buCE6A6RFrkcOCY6oi4zez/w1ugOkR69tfpZ7qpjSOcSEUlOKHN7T3SEyDPpO+jSKmVuhwBnRHeItMgtwMSs8MeiQ+owsyOAb0Z3iDToSHfv5N3oMrclSV9Q2Dq6RaRFDs0KPzM6QmQ+DejSGmVuu5E2kFo0ukWkJX4ObJ0V/kB0SB1mtidwMTqmpb88Cezj7pdFh9RR5rY86Rd/m0a3iLTEk8CeWeFXRYeIgAZ0aYkytzHANGCp6BaRlvgTMCor/G/RIXWY2dakO3VLRreIDIPHgInufkt0SB1lbqsDs4C1g1NE2uJRYEJW+IzoEBEN6BKuzG0TYDqwQnSLSEvcDYzOCv9tdEgdZrYZcDOwfHSLyDB6ABjn7j+LDqmjzG19YCawcnSLSEvcD4zNCv9FdIgMNm0SJ6HK3NYi3WXTcC6SPAzs3OHhfB1gChrOpf8tD0ypfuY7pzrH7Ew654hIWosOVWtTkTAa0CVMmdtKpOE8i24RaYnHSe/B/TA6pA4zW4V0TK8e3SIyQlYHhqqf/c6pzjV7ks49IpLWpEPVGlUkhAZ0CVHmtgwwGXh5dItISzhwYFb4ddEhdZjZsqRjev3oFpERtj4wuToGOqc65xxIOgeJSFqbTq7WqiIjTgO6jLgyt8WAS4Eto1tEWuT4rPALoyPqMLPFSV9g2CK6RSTIFsBl1bHQOdW55/joDpEW2RK4tFqziowoDegyosrcDDgLmBDdItIiH88K/0p0RB1mtghwDjA+ukUk2HjgnOqY6JzqHPTx6A6RFpkAnFWtXUVGTCcvItJpXwT2i44QaZHTssLfHx3Rgy8Db4yOEGmJN5KOiU6qzkWnRXeItMh+pLWryIjRgC4jpsztvcDboztEWuRy4OjoiLrM7APAcdEdIi1zXHVsdNXRpHOTiCRvr9awIiNC30GXEVHmdhj6rbzI000HJmSFPxYdUoeZHQl8I7pDpMWOcvdvRkfUUea2JDANGBvdItIih2eFnx4dIf1PA7oMuzK33Umbwi0a3SLSEj8HxmWF3x8dUoeZ7QlcjI5pkefyJLCPu18WHVJHmdsKwM3AptEtIi3xJLB3VvgV0SHS3zSgy7AqcxtL+i38ktEtIi3xJ2BUVvjfokPqMLNxpG+dLxHdItIBc4CJ7n5zdEgdZW6rA7OAtYNTRNriMdLTb9OjQ6R/aUCXYVPmtinpt+8rRLeItMTdwJis8N9Eh9RhZpuRjunlo1tEOuQBYJy7/yw6pI4ytw2AGcDK0S0iLXE/6Sm4n0eHSH/SgC7DosxtbdJv3VePLRFpjYeBbbPCfxgdUoeZrUM6pleLbhHpoLuAUe7+x+iQOsrcXgPcCCwT3SLSEn8jPQ33p+gQ6T/axV0aV+a2Mumxdg3nIsnjwF4dHs5XIR3TGs5F6lkNmFYdS51Tnbv2Ip3LRCStcadVa16RRmlAl0aVuS0DTAHWj24RaQkHDsoKvzY6pA4zW5Z0TK8X3SLScesBU6pjqnOqc9hBpHOaiKS17pRq7SvSGA3o0pgyt8WBy4AtoltEWuSErPALoiPqMPvXMb15dItIn9gcuKw6tjqnOpedEN0h0iJbAJdVa2CRRmhAl0aUuS0CnA1sH90i0iKfyAr/cnREHWa2CHAOMD66RaTPjAfOqY6xzqnOaZ+I7hBpke2Bs6u1sEjP9IMkTfkSsG90hEiLnJ4V/r7oiB58GXhjdIRIn3oj6RjrpOrcdnp0h0iL7EtaC4v0TAO69KzM7f3AW6M7RFrkCuCo6Ii6zOwDwHHRHSJ97rjqWOuqo0jnOhFJ3lqtiUV6os+sSU/K3I4EvhHdIdIi04EJWeGPRYfUYWZHAV+P7hAZIEe7eyevo2VuS5K+8DA2ukWkRY7KCv9mdIR0lwZ0qa3MbU/gYmDR6BaRlvg/YOus8PujQ+ows71Ix7SerhIZOfOAfdz9O9EhdZS5rQDcArwyukWkJZ4E9skKvyw6RLpJA7rUUuY2DhgClohuEWmJPwGjs8LL6JA6zHRMiwSaA0x095ujQ+ooc8uAmcDawSkibTEHmJgV3TymJZYGdFloZW6bATcDy0e3iLTE3cCYrPDfRIfUYWabke6ALRfdIjLAHgS2dvefRYfUUea2ATADWDm6RaQlHgDGZUU3j2mJowFdFkqZ2zrALGC16BaRlngY2C4r/AfRIXWY2ctId750TIvEuwsY7e5/iA6po8xtS+AGYJnoFpGWuAsYlRX+x+gQ6Q69ZygLrMxtFdJmMFrIiyRzgb06PJyvQnqsXce0SDusBgxVx2bnVOfCvUjnRhFJx/S0ag0tskA0oMsCKXNbFpgCrBfdItISDhyUFX5tdEgdZjqmRVpqPWBKJ1Y/ugAAIABJREFUdYx2TnVOPIh0jhSR6piu1tIiz0sDujyvMrfFgcuBzaNbRFrkhKzwb0dH1GGmY1qk5TYHLq+O1c6pzo0nRHeItMjmwOXVmlrkOWlAl+dU5rYIcC6wXXSLSIt8Miv8y9ERdZjpmBbpiO2Ac6tjtnOqc+QnoztEWmQ74NxqbS3yrPQDIs/nK8A+0REiLXJ6Vvh7oyN6oGNapDv2IR2znVSdK0+P7hBpkU4f0zIyNKDLsypz+yBwbHSHSItcCRwVHVGXmY5pkQ46tjp2u+oo0rlTRJJjqzW2yH+lz6zJf1XmdjRwSnSHSIvMAHbICn8sOqQOMzsK+Hp0h4jUdrS7fyM6oo4ytyWBa4Ex0S0iLXJMVriuy/IfNKDLfyhz2xu4CD1hITLf/wFbZ4XfHx1Sh5ntBVyMjmmRLpsH7OPu34kOqaPMbQXgFuCV0S0iLTEPeGNW+KXRIdIuGtDl35S5bUv69NIS0S0iLfFnYFRWeBkdUoeZbQNMRce0SD+YA+zo7jdFh9RR5pYBs4C1oltEWmIOsFNW+I3RIdIeGtDlX8rcXg3cBCwXnCLSFvcAo7PCfxMdUoeZvQq4GR3TIv3kQWCcu/80OqSOMrcNgJnAStEtIi3xILBNVvhPokOkHTSgCwBlbuuSLpirRreItMTDwHZZ4T+IDqnDzF5GOqZXi24RkcbdBYx29z9Eh9RR5rYlcAOwTHSLSEv8nXRD4PfRIRJP7yMKZW6rAkNoOBeZby6wd4eH81WBaWg4F+lXqwHTqmO9c6pz696kc62IpDX4ULUmlwGnAX3AlbktR3o/dd3oFpGWcOCgrPBp0SF1mNmypH0kdEyL9Ld1gSnVMd851Tn2INI5V0TSMT21WpvLANOAPsDK3JYArgBeFd0i0iJ5Vvi3oyPqMLMlgMuBV0e3iMiIeDVweXXsd051rs2jO0Ra5FXAFdUaXQaUBvQBVea2CHAesE1wikibfDIr/EvREXWY2SLAucB20S0iMqK2A86tzgGdU51zPxndIdIi2wDnVWt1GUD6Fz+4Tia9/yUiyRlZ4e+NjujBV4FJ0REiEmIS6RzQSdW594zoDpEW2Zu0VpcBpAF9AJW5fRg4KrpDpEWuBI6MjqjLzP4XOCa6Q0RCHVOdC7rqSNK5WESSo6o1uwwYfWZtwJS5HQt8LbpDpEVmABOywh+NDqnDzI4GTonuEJHWOMbdvx4dUUeZ21KkL1CMiW4RaZHjssJ1N32AaEAfIGVu+wAXoCcnROb7BTA2K/z+6JA6zGxv4CJ0TIvIU+YBb3T3S6ND6ihzWwGYDmwS3SLSEvOAN2WFXxwdIiNDA/qAKHPbjvTppcWjW0Ra4s/AqKzwMjqkDjPblnRMa6dXEXmmOcBO7n5jdEgdZW4ZMAtYK7pFpCUeB3bKCr8hOkSGnwb0AVDmtjlwE9DJb6WKDIN7gDFZ4bdHh9RhZq8Cbgb0rVQReTYPAuPc/afRIXWUub2c9ArSStEtIi3xELBNVviPo0NkeGlA73NlbusBM4FVoltEWmI2sF1W+PejQ+ows3VJx/Sq0S0i0np/B0a7+++jQ+ooc3stcAOwdHSLSEv8AxidFf676BAZPnpvsY+Vua1G2mxFw7lIMhfYu8PD+arAEBrORWTBrAoMVeeOzqnO1XuTzt0iktb006o1vvQpDeh9qsxteWAqsE50i0hLOHBwVvhQdEgdZrYc6Z3zdaNbRKRT1gWmVOeQzqnO2QeTzuEiktb2U6u1vvQhDeh9qMxtSeAKYLPoFpEWOTEr/PzoiDrMbAngcuDV0S0i0kmvBi6vziWdU527T4zuEGmRzYArqjW/9BkN6H2mzG1R4HxgXHSLSIt8Kiv8i9ERdZjZIsC5wLbRLSLSadsC51bnlM6pzuGfiu4QaZFxwPnV2l/6SCdP0vKcTgH2jI4QaZEzs8L/JzqiB18FJkVHiEhfmEQ6p3RSdS4/M7pDpEX2JK39pY9oQO8jZW4fBY6I7hBpkavo8DFhZh8CjonuEJG+ckx1bumqI0jndhFJjqhmAOkT+sxanyhzeyvwlegOkRaZCeyQFf5odEgdZnYMcHJ0h4j0rWPdvZN33srclgKuBUZHt4i0yNuywjv7hIw8RQN6Hyhz25f03rmeiBBJfgFsnRV+X3RIHWY2CbgQHdMiMnzmAfu6+yXRIXWUub0IuAXYJLpFpCXmAW/OCr8wOkR6owG948rctgeuARaPbhFpib8Ao7LC74wOqcPMtiV9Tq2Tuy2LSKfMAXZy9xujQ+ooc1sDmAW8NLpFpCUeB3bJCr8uOkTq04DeYWVurwFuBJaJbhFpiXuAMVnht0eH1GFmrwZuAjr5vWIR6aQHgW3c/SfRIXWUub0cmAGsFN0i0hIPA9tmhf8wOkTq0YDeUWVu65PesV05ukWkJWYD22WFfz86pA4zW5d0TK8a3SIiA+fvwGh3/310SB1lbq8FbgCWjm4RaYm7gdFZ4b+NDpGFp/cbO6jMbXVgGhrOReabC+zd4eF8VdIxreFcRCKsCkyrzkWdU5379yZdC0QkzQjTqplBOkYDeseUua0ADAFrB6eItIUDh2SFD0WH1GFmywFTgZdFt4jIQHsZMLU6J3VOdQ04hHRNEJE0KwxVs4N0iAb0DilzWxK4EnhldItIi7wjK/y86Ig6zGwJ4HLgVdEtIiKkc9Hl1bmpc6prwTuiO0Ra5JXAldUMIR2hAb0jytwWBS4Axka3iLTIp7PCi+iIOsxsEeA8YNvoFhGRp9kWOK86R3VOdU34dHSHSIuMBS6oZgnpgE6efAfUN4DdoyNEWuTMrPD3REf04GukdyZFRNpmb9I5qpOqa8OZ0R0iLbI7aZaQDtCA3gFlbh8HDovuEGmRq4AjoyPqMrMPAUdHd4iIPIejq3NVVx1JulaISHJYNVNIy+kzay1X5vZ24EvRHSItMhPYISv80eiQOszsGODk6A4RkQV0rLufEh1RR5nbUsC1wOjoFpEWOT4r/MvREfLsNKC3WJnbfqR3VC26RaQlfgmMzQq/LzqkDjObBFyInl4Ske6YB+zr7pdEh9RR5vYiYDqwcXSLSEs4sH9W+LejQ+S/04DeUmVuE4CrgcWiW0Ra4i/AqKzwO6ND6jCz7YDJQCd3RxaRgTYH2Nndb4gOqaPMbQ1gFvDS6BaRlpgL7JoVPi06RP6TBvQWKnPbErgRWDq6RaQl/gmMyQr/dXRIHWb2auBmYNnoFhGRmh4Cxrn7T6JD6ihz2xCYAbw4ukWkJWYD22aF/yA6RP6dBvSWKXN7OekCslJ0i0hLzAbGZ4V/LzqkDjNbl/Te/KrRLSIiPfo7MNrdfx8dUkeZ2+uA69ENEJH57iHdALk9OkSeovcgW6TMLQOG0HAuMt9cYFKHh/PVgGloOBeR/rAqMK06t3VOdS2ZRLq2iEiaOYaqGURaQgN6S1SbmAwBa0W3iLSEA4dkhU+NDqnDzJYDpgAvi24REWnQy4Ap1Tmuc6pryiGka4yIpNljqJpFpAU0oLdA9RmQq4BNoltEWuQdWeHnRUfUYWZLAFcAr4puEREZBq8CrqjOdZ1TXVveEd0h0iKbAFdVM4kE04AerMxtUdJnl/SNTpGnfCYrvIiOqMPMFgHOB7YJThERGU7bAOdX57zOqa4xn4nuEGmR0cCF1WwigTp5Uu0zpwK7RUeItMi3ssLfHR3Rg5OBvaIjRERGwF6kc14nVdeab0V3iLTIbqTZRAJpQA9U5vYp0ntQIpJcDRwRHVGXmX0YOCq6Q0RkBB1Vnfu66gjStUdEkkOqGUWC6DNrQcrccuAL0R0iLTIL2D4r/NHokDrM7Fjga9EdIiJBjnP3Tt5Nr967vQ4YFd0i0iIndvV1w67TgB6gzG1/4BzAoltEWuKXwNis8PuiQ+ows32AC9BTSSIyuOYBb3L3i6ND6qh2sJ4ObBzdItISDhzQ1Q17u0wD+ggrc9sRuBJYLLpFpCX+AozKCr8zOqQOM9uO9Dm1xaNbRESCPQ7s5O43RIfUUea2BulprpdGt4i0xFzgDV395G1XaUAfQWVurwOuB5aObhFpiX8CY7LCfx0dUoeZbQ7cBCwbnCIi0hYPAdu4+4+jQ+ooc9sQmAG8OLpFpCVmA+Ozwr8XHTIoNKCPEJ3wRf5Dp0/4ZrYeMBNYJbpFRKRl/gGMdvffRYfUoRsqIv+h0zdUukbvS46AMreXAENoOBeZby4wqcPD+WqkY1rDuYjIf1oFGKrOlZ1TXZsmka5VIpJmmKFqppFhpgF9mFWbjkxF7zOJzOfAoV19n8nMliMd0y+LbhERabGXAVOrc2bnVNeoQ0nXLBFJs8zUaraRYaQBfRiVub2Q9G1N7Qgq8pR3ZoWfGx1Rh5ktQdrkcbPoFhGRDtgMuLI6d3ZOda16Z3SHSItsDFxdzTgyTDSgD5MytxcAF6Fvaoo83Weywr8QHVGHmS0CnA+Mi24REemQccD51Tm0c6pr1meiO0RaZBRwUTXryDDo5Mmy7crcDDgN2CW6RaRFzsoKf3d0RA9OAfaKjhAR6aC9SOfQTqquXWdFd4i0yC7AadXMIw3TgD48Pg0cFB0h0iLXAIdHR9RlZh8BjozuEBHpsCOrc2lXHU66lolIchBp5pGG6TNrDStzewfwuegOkRaZBWyfFf5odEgdZnYc8NXoDhGRPvFWd/9adEQdZW5LAdeh1xdFnu6dWeGfj47oJxrQG1TmdgDpESg97iGS/Ir03cz7okPqMLM3At9GTxuJiDRlHrCfu18UHVJHtYP1DOAV0S0iLeHAQVnh50SH9AsN6A0pc9sZuALQhgkiyR3AqKzwv0aH1GFm44HJwOLRLSIifeZxYGd3vz46pI7qW9CzgDWjW0Ra4glg96zwydEh/UADegPK3LYCrgf0yQGR5J/A2Kzw26JD6jCzzYGbgGWDU0RE+tVDwDbu/uPokDrK3DYCpgMvjm4RaYlHgPFZ4d+NDuk6Deg9qk7QM4AVo1tEWqLTJ2gzWw+YCawS3SIi0uf+AYx2999Fh9ShGzQi/+Fe0quNnbxB0xZ6r7IHZW5rAtPQcC4y3xPApA4P56uRjmkN5yIiw28VYFp17u2c6lo3iXTtE5E0E02rZiSpSQN6TWVuKwJDwEuiW0RawoFDs8KnRIfUYWbLA1OBdaJbREQGyDrA1Ooc3DnVNe9Q0jVQRNJsNFTNSlKDBvQaytxeSPoW5kbRLSIt8q6u7uBpZkuQNnncLLpFRGQAbQZcUZ2LO6e69r0rukOkRTYCrqlmJllIGtAXUpnbC4BLgK2iW0Ra5LNd/QammS1K+pTauOgWEZEBNg74dnVO7pzqGvjZ6A6RFtkKuKSanWQhaEBfCGVuBpwB7BTdItIiZwHvjo7owcnAntERIiLCnqRzcle9m3RNFJFkJ+CMaoaSBaQBfeF8FjggOkKkRa4BDs+Kbn4Owsw+AhwZ3SHSgH9Uf4l03ZHVublzqmvh4aRro4gkB6CnSxaKPrO2gMrc3gV8JrpDpEVuBbbPCn8kOqQOMzsO+Gp0h0gDHgK2JW1SdROwbGiNSDPe6u5fi46oo3rv9jrg9dEtIi1yUla4BvUFoAF9AZS5HQScCejxDJHkV8DYrPB7o0PqMLM3kt4711NE0nWPAzu7+/UAZrYtMAXo5GZbIk8zD9jP3S+KDqmj2sF6OvCK6BaRlnDgkKxwvQbyPDSgP48yt12BywBtcCCS3AGMygr/a3RIHWY2HpgMLB7dItKj/zrAmNlewEVAJzfbEnmaf/sFVNeUub0EmAXom9AiyRPAnlnhV0eHtJkG9OdQ5jaK9IjSUtEtIi1xLzAmK/y26JA6zGwL4Eb0CLD0h2d9BNjMjgC+OcI9IsPhIWBbd/9RdEgdZW4bATMAfRNaJHmU9IrkrOiQttLjnc+izG1j4Go0nIvM9wiwS4eH8/VJd841nEs/+OhzvZ/r7qcC7xvBHpHhsiwwuTqHd051zdyFdA0VkTRbXV3NWvJf6A76f1Hm9lLSI0lrRLeItMQTwO5Z4ZOjQ+ows9WBmcA60S0iDfiGux+9IP9BMyuAE4a5R2Qk/BEY7e5/iw6po8xtZ+AK9MqkyHx3kl6Z/Et0SNvoDvozlLm9GBhCw7nIfA4c2uHhfHlgKhrOpT98Bzh2If7zJwLnDVOLyEhaB5handM7p7qGHkq6popImrWGqtlLnkYD+tOUuS1NegR2w+gWkRZ5V1b4OdERdZjZksCVwKbRLSINuAl4s7vPW9D/gqfH5A4m7ewu0nWbAldW5/bOqa6l74ruEGmRDYHJ1QwmFQ3olTK3xYBLgddGt4i0yOeywj8fHVGHmS0KnA9sHd0i0oCfAru7+5yF/S+6+xPAJODWxqtERt7WwPnVOb5zqmvq56I7RFrktcCl1SwmaEAHoMzNSN85nxjdItIiZwMnRUf04BRgz+gIkQb8AdjJ3R+s+we4+yOkjap+2ViVSJw9Sef4rjqJdI0VkWQicGY1kw08DejJF4D9oyNEWmQycFhWdHMXSTP7KHBEdIdIA/4BTHD3u3r9g9z9PtIi6M89V4nEO6I613dOdW09jHStFZFkf9JMNvAGfhf3Mrf3AJ+M7hBpkVtJ36fs5CdhzOytwFeiO0Qa8BCwjbv/uMk/1Mw2IH2XeeUm/1yRIG9z969GR9RR5vZC4Drg9dEtIi3yP1nhn4qOiDTQA3qZ2yHAGdEdIi1yGzAmK/ze6JA6zGxf0nvnejpIum4OsLO73zAcf7iZbQHcSPrGtEiXzSNtnnhhdEgdZW4rkn5htlF0i0iLHJoVfmZ0RJSBHdDL3HYDLgM6ucmIyDC4AxidFX5HdEgdZrY9cA2weHSLSI/mAfu6+yXD+Q8xs/GkR2x1zEjXPQ7s4u7XRYfUUea2JjATWDO6RaQlngT2zAq/KjokwkAO6GVuY4BpwFLRLSItcS/pzvlt0SF1VHcDbwKWCU4RacKx7j4iG2CZ2STgQvTUiXTfw6RXQn4UHVJHmdtGpDvpK0a3iLTEo8CErPAZ0SEjbeAuyGVumwBXoeFcZL5HgF07PJyvT/rGs4Zz6QcfHqnhHKC6S3/sSP3zRIbRMsCU6prQOdU1eFfSNVlE0qx2VTW7DZSBGtDL3NYChoAVoltEWuIJYJ+s8E5+H9nMVic9DaPNrqQffN3dPzTS/1B3/wbwwZH+54oMg5WBadW1oXOqa/E+pGuziKSZbaia4QbGwAzoZW4rkRbyWXSLSEs46VNqnfzMi5ktD0wF1g5OEWnCpcBxUf9wd/8o+vqB9Ie1ganVNaJzqmvyYaRrtIik2W1aNcsNhIEY0MvcliFthLNBdItIi5yUFX52dEQdZrYkcCWwaXSLSANuBPZ393nBHccD3w5uEGnCpsCV1bWic6pr80nRHSItsgEwuZrp+l7fD+hlbouR7kxsGd0i0iKfzwr/XHREHWa2KGmI2Dq6RaQBPwH2cPc50SGedo09iPQqmEjXbQ18u7pmdE51jf58dIdIi2wJXFrNdn2trwf0MjcDzgImRLeItMg5wLuiI3rwdWCP6AiRBvwe2MndH4wOmc/d5wJ7A9+LbhFpwB6ka0ZXvYt0zRaRZAJwVjXj9a2+HtCBLwL7RUeItMhk4NCs6Ob3Fc3sY8Dh0R0iDfg7MNHd/x4d8kzuPhvYGfhVdItIAw6vrh2dU12rDyVdu0Uk2Y804/Wtvv0Oepnbe4GPR3eItMh3gfFZ4Z38hIuZvQ34cnSHSAMeJH2v+SfRIc/FzF4CzAReGt0i0oC3u3snN0Isc3shcD2wVXSLSIu8Lyv8E9ERw6EvB/Qyt8OBU6M7RFrkNmBMVvi90SF1mNm+pPfO+/qRJhkIc0iPtd8YHbIgzGxDYDowMLvnSt9yYD93vzA6pI4ytxWBGcBG0S0iLXJEVvhp0RFN67sBvcxtd9KmcJ3cFERkGPwO2CYr/M7okDrMbHvgGmDx6BaRHs0D3ujul0aHLAwz2xK4ARiI3XOlrz0O7OLu10WH1FHmtgZwE7BecIpIWzwJ7J0VfkV0SJP6akAvcxtL+tZ5Jz+rITIMfgNsmxVeRofUYWavIX2CSoOB9INj3L2TG1aZ2Q7A1egXZdJ9DwPbuvsPo0PqKHPLSNdFfTpYJHkMmJAVPj06pCl9s0lcmdumwFVoOBeZ73bSnfOuDufrkzbG0XAu/eBDXR3OAdz9WuAA0lMAIl22DDC5usZ0TnVN34Z0jReRNPtdVc2CfaFvBnTgS8Dy0REiLfFr0nD+t+iQOsxsddLTMCtHt4g04BR3/3B0RK/c/SLgbdEdIg1YGZhWXWs6p7q2b0O61otImgG/FB3RlH4a0PcFfhodIdICvyIN53dFh9RhZisAU4G1g1NEmnAx8NboiKa4+8nAh6I7RBqwNjC1uuZ0TnWN3wZ9DlEE0gy4b3REU/rtHfTlSZtJjY5uEQnyS2C7rPB/RIfUYWZLku6cj41uEWnADaQd2x+PDmmamX0NODa6Q6QB04EJ7v5YdEgdZW6rkM41G0e3iASZCeySFf5AdEhT+ukOOtW/mAnAUHSLSID/I20I19XhfFHgAjScS3/4MbBHPw7nlbcBnfxclcgzjAUuqK5BnVNd87clrQFEBs0QaYO4vhnOoc8GdICs8EeANwCXRLeIjKCfk+6c3x0d0oOvA7tHR4g04HekO+cPRYcMF3efBxwIXBvdItKA3UnXoE6qrv3bkdYCIoPiEuAN1ezXV/puQAfICn8ceBNwRnSLyAj4KWk4vyc6pC4z+zhweHSHSAPuAia6d/NJloVRPR2wF/D96BaRBhxeXYs6qVoDbIf2Y5LBcAbwpmrm6zt9OaADZIU/SVrwF9EtIsPoJ8D4rPB/RofUZWZvB94b3SHSgAdJd87/EB0yUtz9YWBntJu09If3VtekTqrWAuNJawORflUAh1ezXl/qq03ink2Z2weBzn/iRuQZrgLekhX+YHRIXWb2JuB8wKJbRHo0B9jR3W+KDolgZmsCs4CXRLeI9MiBN7v7BdEhdZW5LQecC+wW3SLSsP/NCv9IdMRw69s76E9X/Ys8nnTSFek6Bz4G7N7x4XwH4Cw0nEv3zSMt6G+KDoni7neQNmnt7NM8IhUDzqquUZ1UrQ12J60VtPaVfuDA8YMwnMOA3EGfr8ztIOBUYLHoFpGaZgMHZYVfGh3SCzN7DXAjsEx0i0gDjnL3b0ZHtIGZvQ64Hlg6ukWkRw8D27r7D6NDelHmtjfpl+E6JqWr5gJHZIWfFR0yUgZqQAcoc9sKuAhYM7pFZCH9gXTX/BfRIb0wsw2AGcDK0S0iDfigu380OqJNzGwi6RUc/TJcuu5uYIy7/yY6pBdlbpsAVwAvi24RWUh3AG/MCv9udMhIGohH3J+u+he8OfpWunTLtcCWfTCcZ6RjT8O59IOvaTj/T+4+BByEHq2V7lsZGKquXZ1VrR22RJ9FlG4ZAjYftOEcBnBAh399imJn4H9J7w6KtNkXgJ2ywu+NDumFma0ATAXWDk4RacJFQGd3ex5u7v5t9P+P9Ie1ganVNayzqjXETqQ1hUibzSPNaDt3+RPCvRi4R9yfqcxtB+A8dEdP2ucx0js350aH9MrMlgSmAWOjW0QacD2wc/UdcHkOZvYR4APRHSINmA5McPfHokN6Veb2FtKeTEtGt4g8w93A/lnhA/20x8AP6ABlbi8h3Q15fXSLSOUOYM+s8B9Fh/TKzBYFLiXtKCvSdT8ibRz1UHRIV5jZKcDR0R0iDbgC2Nu9+99fLnPbArgM7ckk7XEr6X3zv0aHRBvIR9yfqfpBGAd8MbpFBLgZeE0/DOeVb6DhXPrD70h3zjWcL5zjgIujI0QasDvpmtZ51RrjNaQ1h0i0LwLjNJwnuoP+DGVuk4DTgeWiW2TgzAbeC3w1K7wv9kYws4+T/jeJdN3fgNHu/sfokC4ys8WBycD46BaRBnzC3d8XHdGEMrdFgLcCn0CfYpOR9yBwWFb4JdEhbaIB/b8oc1sfuATYNLpFBsZ1wJFZ0T+LfzN7O/Cl6A6RBjwAjHP3n0WHdJmZLQPcSLprJ9J1x7v7l6MjmlLmtg7wTWD76BYZGD8HJmWF/zY6pG00oD+LMrfFgZOA96FNNGT43A+8Myv89OiQJpnZfqTNFy26RaRHjwET3f2W6JB+YGYrAzOADaJbRHrkwP7VFwv6RpnbYcDngE7vWi+t9hjwceAzWaHNVv8bDejPo8xtPeBkYIfoFuk7VwDHZoWX0SFNMrMJwNXAYtEtIj16EtjH3S+LDuknZrYWMBNYI7pFpEdzgV3dfVp0SJPK3DLS2lf7x0jTriWtfX8XHdJmGtAXUJnbfqRvR64W3SKddzfwtqzwC6NDmmZmWwI3AMtEt4g04Eh3PzU6oh+Z2cbALcCK0S0iPXoY2M7dfxAd0rQyt32Br6BPEUvv7gJOzIr+euJkuGgX9wVU/UBtBJwC9MUGXhLifOAVfTqcb0DaBErDufSDD2g4Hz7u/ktgV+CR6BaRHi0DTK6ugX2lWqu8grR2EaljHml22kjD+YLTHfQaytxeR/rMxmbRLdIZdwJHZ4VfHR0yHMwsA2YBa0W3iDTgq+7+tuiIQWBmO5Fe99ErMdJ1fwZGuffXa2vzlbntCnwdvZoiC+5nwFFZ4d+LDuka3UGvofpBew3wTtKnsUSezRzSTuav6OPhfAVgKhrOpT9cCBwfHTEo3H0KcAhpwy2RLlsLmFpdE/tOtYZ5BWlNMyc4R9ptNmlGeo2G83p0B71HZW5rkt7P0UYa8nRPAGcAH8sKvyM6ZriY2ZKkDT/GRLeINOA6YBd37So70szseOCL0R0iDZgB7ODuj0WHDJdq7ft+4FDgBcE50i5XkPZZ6tu170jQgN6QMrdxwAeB7aJbJNQ80ufFPpwV/vvomOFkZosC3wHeEN0i0oAfAtu6+8PRIYPKzD4OvDe6Q6QBVwJ7ufuT0SHDqcxtXeB/gf3RU7kYajC9AAAbYUlEQVSD7gbgI1nhN0eH9AMN6A0rcxtNGtQnRLfIiHLgUuCDWeG3RceMBDM7nfTbc5Gu+y0w2t3vjg4ZdGb2TeCI6A6RBpzh7odFR4yEMreNgI8AewMWnCMjaxppMJ8ZHdJPNKAPk2ojuQ8CO0e3yLC7BvhAVvhPokNGipl9Avif6A6RBvyNtLHTn6JDBMxsEeBiYK/oFpEGfNLdB+apkDK3VwMfBXaJbpFhN5k0mOsd82GgAX2YlbltQRrU9Rhw/7kBeH9W+K3RISNJ74pKH7kfGOfuP48OkaeY2RLAFGDb6BaRBpzg7l+KjhhJZW6vBz6GXvvsR1eSBvMfRYf0Mw3oI6TM7VXAB4A90eM/XTeLNJjfGB0y0sxsP9I79voZlq57DJjg7tOjQ+Q/mdmywE3A5sEpIr1yYH/3wfsGdJnbtqRBfVR0i/TEgcuAj2aF/zQ6ZhBoQB9hZW6bkAb1SWhDjS6ZTfr80qlZ4d+NjolgZhOAq9H3iqX7ngT2dvcrokPk2ZnZKqQdsdePbhHp0VxgV3efFh0SocxtK9LeEvsCSwfnyIKbB1xCGsx/ER0zSDSgBylzWwc4EDgIWCc4R57dD4BTgQuywh+KjoliZlsCN6ILq/SHI9z9tOgIeX5mtjYwE8hiS0R6Npv0pYgfRIdEKXNbFngTaVjfMjhHnt0fgbOAs7PC/xgdM4g0oAcrczNga+Bg0l31ZUKDBNJ7qecCp2WF/yw6JpqZvZx0F2ul6BaRBrzP3T8RHSELzsw2AW4BXhTdItKje4Ax7n57dEi0MrfNgMOBtwArBOcIPEy6W/4t4Jas0IAYSQN6i5S5LU0a0g8GxqH3fEfazcBpwCVZ4Y9Fx7SBmWWkd+7Xim4RacCX3f346AhZeGY2GrgWWCq6RaRHfyZ9OaKMDmmDMrclSWvfw0lrXxk5Tlr7fou09p0dmyPzaUBvqTK3tUmPv+sR+OH1D9KJ6fSs8N8Et7SKma0ATAc2iW4RacAFwJtdF73OMrNdgMuBF0S3iPToF8BYd78/OqRNytw2AA4j3ahaJbamr81/hP2srNAnRttIA3rLPeMR+D3QY0BNuB2YBgwB07LC5wb3tI6ZLUX6/2hMdItIA64FdnHXsd51ZnYAaWGpJ8yk62aQviTxaHRI25S5LQZMACZWf395bFFfuJ/0C85voUfYW08DeoeUuS1K+uTMeNK3Jcegx/0WxL3AdaRF+rSs8L8E97SamS0KfAd4Q3SLSAN+AGzn7g9Hh0gzzOxE4PPRHSINuBLYy92fjA5pszK3l5IG9R2A7YEVY4s64VHSL4FuAK4HfpwV+jnrCg3oHVbmtjjwep4a2F+LPoEF6XMms6gGcuBHWeHzYpO6w8xOBw6N7hBpwG+A0e5+T3SINMvMPgm8J7pDpAFnuPth0RFdUea2CLAFTw3so9DaF9La9/s8NZDfmhX+eGyS1KUBvY+UuS0DjCUN7OOBzRicxwDnP7Y+DbgpK3S3rA4teqWPlKSNmP4cHSLDw8xOI72vKtJ1n3L3/4mO6KJq7bsNaWAfpMfhHfgZaRi/HpiutW//0IDex8rcXkx6DP4VwIakk9bL6e577A78FbjtaX/9CrgtK3SHrFdmdgJQRHeINOB+YGt3/7/oEBk+1es4l5D2ZxHputzdvxgd0XVlbisBG5HWvhs97a+X0N2bVveTbkTdDvyatPadkRX+z9AqGTYa0AdQmduqpEH96UP7hsDawKJxZf/yBPB7/n0Qvw34tX47ODzM7M2kb7939eIlMt9jwA7uPiM6RIafmS0JTEWfZ5Luc+At7n5+dEg/qu60b8i/D+0bAevSji9DPAn8iTSAP30Yvz0r/O+BXRJAA7r8S/VO+/qkgX1tYLnqr2Wf5+/P9e7Po8ADwIML8Pd7SO+M/lbvzYwcM5sIXIXe4ZLue5K04dKV0SEycsxsOdK3fF8V3SLSo7nAbu4+FB0yKJ629t0AWIm0rl1+Af7+XJs0zyWtax96nr8/SBrKb0drX3kaDejSszK3JXhqYH8hMJtq8M4KfyKyTZ6bmb2WtKHI0tEtIg04zN3PiI6QkWdmqwIzSXfDRLpsNunLE9+PDpFnV+b2Ap4a2JcGHqEavLPC50S2SfdpQBcZUGb2ctInOFaKbhFpwHvd/ZPRERLHzNYhfcFjtegWkR7dA4xx99ujQ0Rk5GlAFxlAZrYG6W7TWtEtIg34krufEB0h8cxsU9Lj7l3dDFVkvj+TPhN5Z3SIiIwsDegiA8bMXgTcAmwS3SLSgPNJGyvpYiYAmNlYYIjnfkdUpAt+QfoixX3RISIychaJDhCRkWNmS5E2hNNwLv1gCDhYw7k8nbtPB/YlfRFEpMs2Aa6qrt0iMiA0oIsMiOqbwRcCo6NbRBrwfWBvd58bHSLt4+5XAUeQPl0l0mWjgQura7iIDAAN6CKD41Rgt+gIkQbcDuzi7rOjQ6S93P1bwEnRHSIN2I10DReRAaABXWQAmNmngEOiO0QacCcw0d3viQ6R9nP3zwGfje4QacAh1bVcRPqcNokT6XNmdgJQRHeINOA+0oZJv4gOkW4xszPQLymlP+Tu/sXoCBEZPhrQRfqYme0PnANYdItIjx4FdnD3mdEh0j3V+7vfAd4Q3SLSIwcOcPfzokNEZHhoQBfpU2Y2kbRj+2LRLSI9ehLYs9r4S6QWM1sSmAaMjW4R6dFcYDd3H4oOEZHmaUAX6UNm9lrgBmDp6BaRBhzq7mdGR0j3mdnywM3AZtEtIj2aDWzn7t+PDhGRZmmTOJE+Y2YvByaj4Vz6w3s0nEtT3P0BYEfgD9EtIj1aGphcXfNFpI/oDrpIHzGzNYBZwEujW0QaULj7idER0n/MbF1gJrBqdItIj/4CjHL3O6NDRKQZGtBF+oSZvQiYDmwc3SLSgPNIGyHpIiXDwsxeBdwELB+cItKrXwJj3f2+6BAR6Z0ecRfpA2a2FGlDOA3n0g+mAodoOJfh5O4/BXYHHotuEenRxsBV1VpARDpOA7pIx5nZC4CLgNHRLSIN+B4wyd3nRodI/3P3m4E3kb4UINJlo4GLqjWBiHSYBnSR7jsV2DU6QqQBvwZ2cffZ0SEyONz9CuDI6A6RBuxKWhOISIdpQBfpMDP7FHBwdIdIA+4EJrr7P6NDZPC4+xnAe6I7RBpwcLU2EJGO0iZxIh1lZjnwhegOkQbcR9rg6JfRITLYzOzzgL4cIP3gRHcvoiNEZOFpQBfpIDPbHzgHsOgWkR49Cmzv7rOiQ0TMzIBvAQcGp4j0yklfwjgvOkREFo4GdJGOMbMdgSuBxaJbRHr0BLCnu18dHSIyX7XJ1mVobw/pvrnAG9x9anSIiCw4DegiHWJmrwOuB5aObhFpwMHuflZ0hMgzVZ+ruhZ9HUO6bzYw3t2/Fx0iIgtGm8SJdISZbQhcg4Zz6Q/v1nAubeXuj5LuoP9fdItIj5YGrqnWECLSAbqDLtIBZrYGMAt4aXSLSAO+4O7viI4QeT5mtjowE1gnukWkR38BRrn7ndEhIvLcNKCLtJyZvQiYDmwc3SLSgHOBA10XH+kIM1uPNKSvEt0i0qNfkr6YcV90iIg8Oz3iLtJi1XuQV6PhXPrDFOAQDefSJe7+O2BH4MHoFpEebQxcXa0tRKSlNKCLtFS1k/BFwKjoFpEGfBeY5O5PRIeILCx3/wmwBzAnukWkR6OAi6o1hoi0kAZ0kfY6FX3mR/rDbcCu7v5IdIhIXe5+I/Bm4MnoFpEe7UpaY4hIC2lAF2khM/s0cHB0h0gD/gpMdPd/RoeI9MrdvwMcE90h0oCDq7WGiLSMBnSRljGzE4GTojtEGnAvaTi/IzpEpCnufirwvugOkQacVK05RKRFtIu7SIuY2VuAswGLbhHp0SPA9u5+a3SIyHAwswI4IbpDpEdO+rLGudEhIpJoQBdpCTPbEbgSWCy6RaRHTwC7u/vk6BCR4WJmRvqF6luiW0R6NBd4g7tPjQ4REQ3oIq1gZq8DrgeWjm4R6ZEDB7v72dEhIsOt2gn7CmDn6BaRHs0Gxrv796JDRAadBnSRYGa2ITADeHF0i0gD3uXun4uOEBkpZvZC4Drg9dEtIj36JzDG3X8dHSIyyDSgiwQys5cAs4A1o1tEGvA5d39XdITISDOzFwHTgY2jW0R6dAcwyt3/Gh0iMqg0oIsEqRZ0M4BXRLeINOBs0qPtuqjIQDKzNYCZwFrRLSI9+hXpTvp90SEig0ifWRMJUD0SeTUazqU/TAYO03Aug8zd7wQmAHdHt4j06BXA1dVaRURGmAZ0kRFWbSp0ETAqukWkAbcC+7j7E9EhItHc/TfATsBD0S0iPRoFXFStWURkBGlAFxlB1Wd5TgN2iW4RacCvgF3d/ZHoEJG2cPcfAXsCj0e3iPRoF+C0au0iIiNEA7rIyPo0cFB0hEgD7gAmuvu90SEibePu1wP7A/OiW0R6dBBp7SIiI0QDusgIMbN3ANrhWvrBvaThXLv8ijwLd78EODa6Q6QB76rWMCIyArSLu8gIMLMDgLMAPSYmXfcIMN7dvxsdItIFZvZ+4KPRHSI9cuAgdz8nOkSk32lAFxlmZrYTcCWgjVak654A3uDuU6JDRLrEzL4MvC26Q6RHugaIjAAN6CLDyMy2Aq4H9KkS6TrdPRGpqdpk6zxgv+gWkR7pKSqRYaYBXWSYmNlGwHTgxdEtIg14p7t/PjpCpKvMbDHS01Q7RreI9OifwFh3vy06RKQfaUAXGQZm9hJgFrBmdItIAz7r7idFR4h0nZktDVwHbBXdItKjO4BR2ixUpHka0EUaZmYrku6cvyK6RaQBZwGHuC4WIo3QNUL6yK9Id9L1uU2RBmlAF2mQmb2QdHfk9dEtIg24BtjD3Z+IDhHpJ9VTVjOBl0a3iPToVmB7d38kOkSkX+g76CINMbMXABeh4Vz6wyxgHw3nIs2rHgueANwT3SLSo9cDF1VrIBFpgAZ0kQZUO/SeDuwS3SLSgF8Cu7r7o9EhIv3K3W8HdgYejm4R6dEuwOnVWkhEeqQBXaQZnwEOjI4QacBfgB3d/b7oEJF+5+4/APYCHo9uEenRgaS1kIj0SAO6SI/M7B3AO6M7RBrwT2CiduUVGTnufi1wADAvukWkR++s1kQi0gNtEifSAzM7gLTLtR7rkq6bDYx39+9Fh4gMIjM7FvhadIdIjxw4yN3PiQ4R6SrdQRepycx2Bs5Aw7l031xgkoZzkTjufjLwoegOkR4ZcEa1RhKRGnQHXaQGM9sKuB54YXSLSI8cOMDdz4sOEREws68Cx0V3iPToEdJTWd+NDhHpGg3oIgvJzDYCZgArRreINOBEdy+iI0QkMbNFgPOBfaNbRHp0LzDG3W+LDhHpEj3iLrIQzOwlwBAazqU/fEDDuUi7uPs80qZxV0W3iPRoRWCoWjuJyALSgC6ygMxsRWAasGZ0i0gDTnL3j0VHiMh/cve5wCQ0pEv3rQlMq9ZQIrIANKCLLAAzeyFwNbBRdItIA453989GR4jIs3P3x0lD+tXRLSI92gi4ulpLicjz0IAu8jzMbFHgYuD10S0iPXLgKHf/cnSIiDy/akjfG7gmukWkR68HLq7WVCLyHDSgizwPd38S+GF0h0iP5gGHuPs3o0NEZMFVQ/peaEiX7vthtaYSkeegXdxFFpCZHQt8Bf1iS7rnCeBAd/92dIiI1GNmSwDfAfR9aemaecDb3P3k6BCRLtCALrIQzGwf4Fxg8egWkQU0F3iTu38nOkREelMN6ZcBO0W3iCygx4G3uPvF0SEiXaEBXWQhmdl40gJp2egWkecxB5jk7tpkSqRPaEiXDnkI2NPdr48OEekSDegiNZjZ5sAUYJXoFpFn8Siwh7tPiw4RkWZVQ/rlwI7RLSLP4h/ATu7+4+gQka7Ru7QiNVQXnNHAH6NbRP6Lu4DtNZyL9Cd3nwPsQXrlSqRt/giM1nAuUo8GdJGa3P13wCjgZ9EtIk9zK7CFu8+KDhGR4ePuc9z9AOAk0iZcIm3wM2BUtUYSkRo0oIv0wN3vAsYBt0S3iADfBLZx9zI6RERGhrt/FtgNeCC6RQbeLcC4am0kIjVpQBfpkbs/AEwkDUciER4HjnL3o6pvJovIAHH3ycBWwG+iW2RgfROYWK2JRKQH2iROpEFm9ibSRUo7vMtIKYG93f270SEiEsvMVgAuIP3SWGQkPAQc6e4XRIeI9AvdQRdpUHWB2gL4aXSLDIRZpPfNNZyLCO5+P7AL8IXoFhkIPyVdgzScizRIA7pIw9z9t6RHDU+JbpG+9nXS++Z6109E/sXdn3T3dwAHA3OCc6R/nQJsVa15RKRBesRdZBiZ2T7AacBy0S3SN+YAx7n76dEhItJuZrYV8B1g9egW6RsPAoe7+8XRISL9SgO6yDAzs3WBC0mPvov04ufAIfq2rIgsKDNbHTiV9Oi7SC9+BOzr7r+PDhHpZ3rEXWSYVReyUcBXoluks+YAHwBeo+FcRBaGu//N3XclPfJ+f3COdNdXSN8313AuMsx0B11kBJnZHsDXgCy6RTrjVuAwd78tOkREus3MMuAbwK7RLdIZJem1qsujQ0QGhe6gi4yg6gK3IVAATwTnSLvNBk4Axmg4F5EmuHvp7rsBBwL3RfdIqz1BWqtsqOFcZGTpDrpIEDN7JXAyMCa6RVrnWtJ3Zf8UHSIi/al6N/3rwBuiW6R1ZgDHuv9/e/cSaudVxnH4v9rUWm3aZmIraLGiKa0IihdapcUU7UDQog46sV4KXkYdiSjtxEHxgoITQeikGh0U0Q5EBx3EghfiDZWitQFt8IaGYJvUEKtJloO103OaGkziyVnvPvt54OOcTMIbMvi+317rW7s/MnsQWEVW0GGSxY3v5oz3Ag/MnYYinkhyZ+/9VnEOnE+Ld9NvS3JHkr/PnocSDmQ8k9wszmEeK+hQQGvtiiT3JvlofHC2qh7MWLHwvebApmqtXZWxmn7b7FmY4kTG///dvXcHCcJkAh0Kaa29LmPb+xtnz8Km+VXGQ9F3Zg8CrLbFQab3Jrl+9ixsmp9kfDj889mDAIOVOihkcYO8MWMl/eDkcTi/Hktye5LXinOggsVhYK/O2Oa8f+ownG8HM541bhTnUIsVdCiqtfbCjJvnx5JcNXkcNs7+JJ9Ksrv3fnzyLAD/VWvteUk+nOSeJFdOHoeN89ckn0/y5d77kdnDAM8l0KG41trzk3woyceTvGTyOJy7v2RsHb2v9/7v2cMAnInFh8V3ZdyDrpg8DufuT0k+l3EP+ufsYYDTE+iwJBarGR9I8okk18ydhrNwMMlnk3yp93509jAA56K1tiMj0u9K8oLJ43DmHk/ymST3997/NXsY4H8T6LBkWmvbkrw3ySeT7Jw8Dqd3KMkXknyx9/7U7GEANsLixPd7Mra/XzR5HE5vX5JPJ/la7/3Y7GGAMyfQYUm11i7IOGTs7iSvmjwOax5Ncl/GasUTs4cBOB9aa1cn+UiSO+OclEp+nfE61QO99xOzhwHOnkCHJddaa0nenrH9/R1JLp460Go6muQbGe/2/WD2MACbZbGr650Zsf62JG3uRCvp6STfTnJ/ku92D/ew1AQ6bCGLdwRvT/L+JDdMHmcVPJKxWr679/7k7GEAZmqtXZNxqOkHY1V9M+xN8pWM1XI7tmCLEOiwRbXWdiZ5X5I7klw9eZyt5EiSBzJWy/fOHgagmtbaRVlbVX9rrKpvpD8k2Z3kq733fbOHATaeQIctbrEF/i0Zq+rvSXLp1IGW1y8yVsu/3ns/PHsYgGXQWnt51lbVfZ/6uflHkm9mrJY/bAs7bG0CHVbI4vts353kXRnRvmPqQLU9mWRPkoeSPNR7f3zyPABLa3Gw6RuS3Lq4bkiybepQtT2R5OEkDyb5Vu/9yNxxgM0i0GFFLR6WXpNkV5JbktyUZPvUoeY6luTHWQR5kp/23o/PHQlga2qtbc+4/5wM9lfOnWi6p5J8P+OD4e8l+aVT2GE1CXQgyTMn8b4+I9Z3JXlzkkumDnX+/S5rQb7H1nWAOVprL8tarN+Srb/D62iSH2bE+J4kP/N95UAi0IHTaK1dnLEFcVeSNyW5NslLs7yH/fw54zvKf5Nx+vqe3vvv544EwKlaaxdmfGB8U5Lrk1y3uC6fOdf/oSf5Y5LHkvwoI8r39t6fnjoVUJJAB85Ya+2SJDsX17Xrrp2p8eB0Isn+rIX4Mz+tjgMst9bai/PsYL9u8ecqh88dSrIvI8RPXvuS7Ou9H505GLA8BDqwIVprV+bZwf6iJJctrsvX/X5Zzm7r/PGMh57Di5+HTvnzwYyHoEeT/NZDEMBqaa3tyFqwvyJje/z6e8/6n9uTXHgWf/3RjPvNyevQut8PZF2Q997/tgH/HGDFCXRg0y3ed18f7Ccfmo7llAB3ci0AG6m1dmmeG+7bMg5qWx/gh70XDmw2gQ4AAAAFXDB7AAAAAECgAwAAQAkCHQAAAAoQ6AAAAFCAQAcAAIACBDoAAAAUINABAACgAIEOAAAABQh0AAAAKECgAwAAQAECHQAAAAoQ6AAAAFCAQAcAAIACBDoAAAAUINABAACgAIEOAAAABQh0AAAAKECgAwAAQAECHQAAAAoQ6AAAAFCAQAcAAIACBDoAAAAUINABAACgAIEOAAAABQh0AAAAKECgAwAAQAECHQAAAAoQ6AAAAFCAQAcAAIACBDoAAAAUINABAACgAIEOAAAABQh0AAAAKECgAwAAQAECHQAAAAoQ6AAAAFCAQAcAAIACBDoAAAAUINABAACgAIEOAAAABQh0AAAAKECgAwAAQAECHQAAAAoQ6AAAAFCAQAcAAIACBDoAAAAUINABAACgAIEOAAAABQh0AAAAKECgAwAAQAECHQAAAAoQ6AAAAFCAQAcAAIACBDoAAAAUINABAACgAIEOAAAABQh0AAAAKECgAwAAQAECHQAAAAoQ6AAAAFCAQAcAAIACBDoAAAAUINABAACgAIEOAAAABQh0AAAAKECgAwAAQAECHQAAAAoQ6AAAAFCAQAcAAIACBDoAAAAUINABAACgAIEOAAAABQh0AAAAKECgAwAAQAECHQAAAAoQ6AAAAFCAQAcAAIACBDoAAAAUINABAACgAIEOAAAABQh0AAAAKECgAwAAQAECHQAAAAoQ6AAAAFCAQAcAAIACBDoAAAAUINABAACgAIEOAAAABQh0AAAAKECgAwAAQAECHQAAAAoQ6AAAAFCAQAcAAIACBDoAAAAUINABAACgAIEOAAAABQh0AAAAKECgAwAAQAECHQAAAAoQ6AAAAFCAQAcAAIACBDoAAAAUINABAACgAIEOAAAABQh0AAAAKECgAwAAQAECHQAAAAoQ6AAAAFDAfwBBl7VFH0QaHwAAAABJRU5ErkJggg==;" parent="uibnQeh16Y-J-jfBilOQ-23" vertex="1">
          <mxGeometry x="80" y="1.75" width="31.499999999999996" height="31.499999999999996" as="geometry" />
        </mxCell>
        <mxCell id="uibnQeh16Y-J-jfBilOQ-102" style="edgeStyle=orthogonalEdgeStyle;rounded=0;orthogonalLoop=1;jettySize=auto;html=1;endArrow=box;endFill=0;" parent="uibnQeh16Y-J-jfBilOQ-5" edge="1">
          <mxGeometry relative="1" as="geometry">
            <mxPoint x="630" y="3" as="targetPoint" />
            <mxPoint x="130" y="55" as="sourcePoint" />
          </mxGeometry>
        </mxCell>
        <mxCell id="uibnQeh16Y-J-jfBilOQ-104" value="192.168.1.146" style="edgeLabel;html=1;align=center;verticalAlign=middle;resizable=0;points=[];" parent="uibnQeh16Y-J-jfBilOQ-102" vertex="1" connectable="0">
          <mxGeometry x="0.9022" y="1" relative="1" as="geometry">
            <mxPoint as="offset" />
          </mxGeometry>
        </mxCell>
        <mxCell id="uibnQeh16Y-J-jfBilOQ-6" value="&lt;b style=&quot;&quot;&gt;&lt;font style=&quot;color: rgb(5, 149, 144);&quot;&gt;Caddy&lt;/font&gt;&lt;/b&gt;" style="rounded=0;whiteSpace=wrap;html=1;fillColor=#0050ef;strokeColor=#001DBC;align=left;fontColor=#ffffff;" parent="uibnQeh16Y-J-jfBilOQ-5" vertex="1">
          <mxGeometry y="55" width="130" height="35" as="geometry" />
        </mxCell>
        <mxCell id="uibnQeh16Y-J-jfBilOQ-85" value="vmbr0" style="rounded=0;whiteSpace=wrap;html=1;fillColor=#a20025;strokeColor=#6F0000;fontColor=#ffffff;" parent="uibnQeh16Y-J-jfBilOQ-5" vertex="1">
          <mxGeometry y="90" width="40" height="17.5" as="geometry" />
        </mxCell>
        <mxCell id="uibnQeh16Y-J-jfBilOQ-145" value="" style="verticalLabelPosition=bottom;sketch=0;aspect=fixed;html=1;verticalAlign=top;strokeColor=#b85450;align=center;outlineConnect=0;shape=mxgraph.citrix.firewall;fillColor=#f8cecc;gradientColor=#ea6b66;" parent="uibnQeh16Y-J-jfBilOQ-5" vertex="1">
          <mxGeometry x="34.26" y="150" width="61.29" height="76" as="geometry" />
        </mxCell>
        <mxCell id="gvSB1-JG7Jc6pJ1Mvs8h-1" value="" style="shape=image;verticalLabelPosition=bottom;labelBackgroundColor=default;verticalAlign=top;aspect=fixed;imageAspect=0;image=https://caddyserver.com/old/resources/images/caddy-lock.png;" vertex="1" parent="uibnQeh16Y-J-jfBilOQ-5">
          <mxGeometry x="80" y="57.5" width="30" height="30" as="geometry" />
        </mxCell>
        <mxCell id="uibnQeh16Y-J-jfBilOQ-17" style="edgeStyle=orthogonalEdgeStyle;rounded=0;orthogonalLoop=1;jettySize=auto;html=1;" parent="1" source="uibnQeh16Y-J-jfBilOQ-10" target="uibnQeh16Y-J-jfBilOQ-15" edge="1">
          <mxGeometry relative="1" as="geometry" />
        </mxCell>
        <mxCell id="uibnQeh16Y-J-jfBilOQ-10" value="&lt;b&gt;Internet&lt;/b&gt;" style="verticalLabelPosition=bottom;sketch=0;aspect=fixed;html=1;verticalAlign=top;strokeColor=none;align=center;outlineConnect=0;shape=mxgraph.citrix.cloud;" parent="1" vertex="1">
          <mxGeometry x="-178.62" y="220" width="153.23" height="100" as="geometry" />
        </mxCell>
        <mxCell id="uibnQeh16Y-J-jfBilOQ-13" style="edgeStyle=orthogonalEdgeStyle;rounded=0;orthogonalLoop=1;jettySize=auto;html=1;" parent="1" source="uibnQeh16Y-J-jfBilOQ-11" edge="1">
          <mxGeometry relative="1" as="geometry">
            <mxPoint x="270" y="490" as="targetPoint" />
          </mxGeometry>
        </mxCell>
        <mxCell id="gvSB1-JG7Jc6pJ1Mvs8h-16" value="eth0" style="edgeLabel;html=1;align=center;verticalAlign=middle;resizable=0;points=[];" vertex="1" connectable="0" parent="uibnQeh16Y-J-jfBilOQ-13">
          <mxGeometry x="0.5076" y="1" relative="1" as="geometry">
            <mxPoint as="offset" />
          </mxGeometry>
        </mxCell>
        <mxCell id="uibnQeh16Y-J-jfBilOQ-11" value="Home Router" style="verticalLabelPosition=bottom;sketch=0;aspect=fixed;html=1;verticalAlign=top;strokeColor=none;align=center;outlineConnect=0;shape=mxgraph.citrix.router;" parent="1" vertex="1">
          <mxGeometry x="40" y="460" width="87.4" height="58" as="geometry" />
        </mxCell>
        <mxCell id="uibnQeh16Y-J-jfBilOQ-16" style="edgeStyle=orthogonalEdgeStyle;rounded=0;orthogonalLoop=1;jettySize=auto;html=1;" parent="1" source="uibnQeh16Y-J-jfBilOQ-15" target="uibnQeh16Y-J-jfBilOQ-11" edge="1">
          <mxGeometry relative="1" as="geometry" />
        </mxCell>
        <mxCell id="uibnQeh16Y-J-jfBilOQ-18" value="Tunnel 443 only" style="edgeLabel;html=1;align=center;verticalAlign=middle;resizable=0;points=[];" parent="uibnQeh16Y-J-jfBilOQ-16" vertex="1" connectable="0">
          <mxGeometry x="-0.0032" y="1" relative="1" as="geometry">
            <mxPoint x="-8" y="1" as="offset" />
          </mxGeometry>
        </mxCell>
        <mxCell id="uibnQeh16Y-J-jfBilOQ-15" value="Cloudflare" style="verticalLabelPosition=bottom;sketch=0;aspect=fixed;html=1;verticalAlign=top;strokeColor=none;align=center;outlineConnect=0;shape=mxgraph.citrix.xenapp_services;" parent="1" vertex="1">
          <mxGeometry x="-140" y="444" width="76" height="90" as="geometry" />
        </mxCell>
        <mxCell id="uibnQeh16Y-J-jfBilOQ-21" value="Public IP @" style="rounded=0;whiteSpace=wrap;html=1;fillColor=#a20025;strokeColor=#6F0000;fontColor=#ffffff;" parent="1" vertex="1">
          <mxGeometry x="50" y="410" width="40" height="40" as="geometry" />
        </mxCell>
        <mxCell id="uibnQeh16Y-J-jfBilOQ-41" value="Storage Management" style="swimlane;whiteSpace=wrap;html=1;startSize=23;fillColor=#06bcf9;fontColor=#000000;strokeColor=#0066CC;" parent="1" vertex="1">
          <mxGeometry x="469" y="149" width="150" height="141" as="geometry" />
        </mxCell>
        <mxCell id="uibnQeh16Y-J-jfBilOQ-42" value="" style="group;fillColor=#6d8764;fontColor=#ffffff;strokeColor=#3A5431;container=0;" parent="uibnQeh16Y-J-jfBilOQ-41" vertex="1" connectable="0">
          <mxGeometry y="55" width="130" height="35" as="geometry" />
        </mxCell>
        <mxCell id="uibnQeh16Y-J-jfBilOQ-44" value="" style="group;fillColor=#bac8d3;strokeColor=#23445d;" parent="uibnQeh16Y-J-jfBilOQ-41" vertex="1" connectable="0">
          <mxGeometry y="22" width="150" height="35" as="geometry" />
        </mxCell>
        <mxCell id="uibnQeh16Y-J-jfBilOQ-45" value="&lt;b style=&quot;&quot;&gt;&lt;font color=&quot;#3399ff&quot;&gt;TrueNas Scale&lt;/font&gt;&lt;/b&gt;" style="rounded=0;whiteSpace=wrap;html=1;fillColor=#bac8d3;strokeColor=#23445d;align=left;" parent="uibnQeh16Y-J-jfBilOQ-44" vertex="1">
          <mxGeometry width="150" height="35" as="geometry" />
        </mxCell>
        <mxCell id="uibnQeh16Y-J-jfBilOQ-47" value="&lt;b style=&quot;&quot;&gt;&lt;font color=&quot;#0066cc&quot;&gt;Nextcloud&lt;/font&gt;&lt;/b&gt;" style="rounded=0;whiteSpace=wrap;html=1;fillColor=#b1ddf0;strokeColor=#10739e;align=left;" parent="uibnQeh16Y-J-jfBilOQ-41" vertex="1">
          <mxGeometry y="57" width="150" height="35" as="geometry" />
        </mxCell>
        <mxCell id="uibnQeh16Y-J-jfBilOQ-75" value="&lt;font style=&quot;font-size: 6px;&quot;&gt;100&lt;/font&gt;" style="rounded=0;whiteSpace=wrap;html=1;fillColor=#B266FF;strokeColor=none;fontColor=#ffffff;" parent="uibnQeh16Y-J-jfBilOQ-41" vertex="1">
          <mxGeometry x="130" y="130" width="20" height="10" as="geometry" />
        </mxCell>
        <mxCell id="uibnQeh16Y-J-jfBilOQ-132" value="" style="shape=image;verticalLabelPosition=bottom;labelBackgroundColor=default;verticalAlign=top;aspect=fixed;imageAspect=0;image=https://cdn.icon-icons.com/icons2/2699/PNG/512/nextcloud_logo_icon_168948.png;" parent="uibnQeh16Y-J-jfBilOQ-41" vertex="1">
          <mxGeometry x="102" y="57" width="35" height="35" as="geometry" />
        </mxCell>
        <mxCell id="uibnQeh16Y-J-jfBilOQ-144" value="" style="edgeStyle=orthogonalEdgeStyle;rounded=0;orthogonalLoop=1;jettySize=auto;html=1;endArrow=diamondThin;endFill=1;" parent="uibnQeh16Y-J-jfBilOQ-41" source="uibnQeh16Y-J-jfBilOQ-45" target="uibnQeh16Y-J-jfBilOQ-47" edge="1">
          <mxGeometry relative="1" as="geometry">
            <Array as="points">
              <mxPoint x="160" y="40" />
              <mxPoint x="160" y="81" />
            </Array>
          </mxGeometry>
        </mxCell>
        <mxCell id="uibnQeh16Y-J-jfBilOQ-147" value="" style="verticalLabelPosition=bottom;sketch=0;aspect=fixed;html=1;verticalAlign=top;strokeColor=none;align=center;outlineConnect=0;shape=mxgraph.citrix.globe;" parent="uibnQeh16Y-J-jfBilOQ-41" vertex="1">
          <mxGeometry x="138" y="59" width="7.85" height="7.5" as="geometry" />
        </mxCell>
        <mxCell id="uibnQeh16Y-J-jfBilOQ-73" value="Monitoring" style="swimlane;whiteSpace=wrap;html=1;startSize=23;fillColor=#f0710a;fontColor=#000000;strokeColor=#BD7000;" parent="1" vertex="1">
          <mxGeometry x="641" y="150" width="150" height="270" as="geometry" />
        </mxCell>
        <mxCell id="uibnQeh16Y-J-jfBilOQ-74" value="" style="group;fillColor=#6d8764;fontColor=#ffffff;strokeColor=#3A5431;container=0;" parent="uibnQeh16Y-J-jfBilOQ-73" vertex="1" connectable="0">
          <mxGeometry y="55" width="130" height="35" as="geometry" />
        </mxCell>
        <mxCell id="uibnQeh16Y-J-jfBilOQ-76" value="" style="group;fillColor=#b1ddf0;strokeColor=#10739e;" parent="uibnQeh16Y-J-jfBilOQ-73" vertex="1" connectable="0">
          <mxGeometry y="24" width="150" height="35" as="geometry" />
        </mxCell>
        <mxCell id="uibnQeh16Y-J-jfBilOQ-77" value="&lt;b style=&quot;&quot;&gt;&lt;font color=&quot;#0066cc&quot;&gt;Portainer&lt;/font&gt;&lt;/b&gt;" style="rounded=0;whiteSpace=wrap;html=1;fillColor=#b1ddf0;strokeColor=#10739e;align=left;" parent="uibnQeh16Y-J-jfBilOQ-76" vertex="1">
          <mxGeometry width="150" height="35" as="geometry" />
        </mxCell>
        <mxCell id="uibnQeh16Y-J-jfBilOQ-133" value="" style="shape=image;verticalLabelPosition=bottom;labelBackgroundColor=default;verticalAlign=top;aspect=fixed;imageAspect=0;image=https://static-00.iconduck.com/assets.00/portainer-icon-366x512-rt9if7pd.png;" parent="uibnQeh16Y-J-jfBilOQ-76" vertex="1">
          <mxGeometry x="109.63" y="2.25" width="19.12" height="26.75" as="geometry" />
        </mxCell>
        <mxCell id="uibnQeh16Y-J-jfBilOQ-79" value="&lt;b style=&quot;&quot;&gt;&lt;font color=&quot;#ff7300&quot;&gt;Prometheus&lt;/font&gt;&lt;/b&gt;" style="rounded=0;whiteSpace=wrap;html=1;fillColor=#f9f7ed;strokeColor=#36393d;align=left;" parent="uibnQeh16Y-J-jfBilOQ-73" vertex="1">
          <mxGeometry y="55" width="150" height="35" as="geometry" />
        </mxCell>
        <mxCell id="uibnQeh16Y-J-jfBilOQ-134" value="" style="shape=image;verticalLabelPosition=bottom;labelBackgroundColor=default;verticalAlign=top;aspect=fixed;imageAspect=0;image=https://upload.wikimedia.org/wikipedia/commons/thumb/3/38/Prometheus_software_logo.svg/2066px-Prometheus_software_logo.svg.png;" parent="uibnQeh16Y-J-jfBilOQ-73" vertex="1">
          <mxGeometry x="105.06" y="60" width="23.57" height="23.38" as="geometry" />
        </mxCell>
        <mxCell id="uibnQeh16Y-J-jfBilOQ-91" value="&lt;b style=&quot;&quot;&gt;&lt;font color=&quot;#4e9544&quot;&gt;Node-Exporter-Pve&lt;/font&gt;&lt;/b&gt;" style="rounded=0;whiteSpace=wrap;html=1;fillColor=#9cdf86;strokeColor=#3A5431;align=left;fontColor=#ffffff;" parent="uibnQeh16Y-J-jfBilOQ-73" vertex="1">
          <mxGeometry y="125" width="149" height="35" as="geometry" />
        </mxCell>
        <mxCell id="uibnQeh16Y-J-jfBilOQ-153" value="" style="verticalLabelPosition=bottom;sketch=0;aspect=fixed;html=1;verticalAlign=top;strokeColor=none;align=center;outlineConnect=0;shape=mxgraph.citrix.tablet_2;" parent="uibnQeh16Y-J-jfBilOQ-73" vertex="1">
          <mxGeometry x="-7" y="-13.51" width="31" height="32.51" as="geometry" />
        </mxCell>
        <mxCell id="uibnQeh16Y-J-jfBilOQ-82" value="" style="verticalLabelPosition=bottom;sketch=0;aspect=fixed;html=1;verticalAlign=top;strokeColor=none;align=center;outlineConnect=0;shape=mxgraph.citrix.database;" parent="1" vertex="1">
          <mxGeometry x="447" y="130" width="32.5" height="38.24" as="geometry" />
        </mxCell>
        <mxCell id="uibnQeh16Y-J-jfBilOQ-22" value="Private Net" style="rounded=0;whiteSpace=wrap;html=1;fillColor=#a20025;strokeColor=#6F0000;fontColor=#ffffff;" parent="1" vertex="1">
          <mxGeometry x="440" y="444" width="70" height="17.5" as="geometry" />
        </mxCell>
        <mxCell id="uibnQeh16Y-J-jfBilOQ-86" style="edgeStyle=orthogonalEdgeStyle;rounded=0;orthogonalLoop=1;jettySize=auto;html=1;entryX=0.5;entryY=1;entryDx=0;entryDy=0;exitX=1;exitY=0;exitDx=0;exitDy=0;strokeColor=default;endArrow=box;endFill=0;" parent="1" source="uibnQeh16Y-J-jfBilOQ-6" target="uibnQeh16Y-J-jfBilOQ-41" edge="1">
          <mxGeometry relative="1" as="geometry">
            <Array as="points">
              <mxPoint x="545" y="472" />
            </Array>
          </mxGeometry>
        </mxCell>
        <mxCell id="uibnQeh16Y-J-jfBilOQ-88" value="192.168.1.141" style="edgeLabel;html=1;align=center;verticalAlign=middle;resizable=0;points=[];" parent="uibnQeh16Y-J-jfBilOQ-86" vertex="1" connectable="0">
          <mxGeometry x="0.7931" y="1" relative="1" as="geometry">
            <mxPoint as="offset" />
          </mxGeometry>
        </mxCell>
        <mxCell id="uibnQeh16Y-J-jfBilOQ-90" value="&lt;b style=&quot;&quot;&gt;&lt;font color=&quot;#ea6c06&quot;&gt;Grafana&lt;/font&gt;&lt;/b&gt;" style="rounded=0;whiteSpace=wrap;html=1;fillColor=#ffcc99;strokeColor=#36393d;align=left;" parent="1" vertex="1">
          <mxGeometry x="641" y="240" width="149" height="35" as="geometry" />
        </mxCell>
        <mxCell id="uibnQeh16Y-J-jfBilOQ-92" value="&lt;b style=&quot;&quot;&gt;&lt;font color=&quot;#1cceab&quot;&gt;Tapo&lt;/font&gt;&lt;/b&gt;" style="rounded=0;whiteSpace=wrap;html=1;fillColor=#cce5ff;strokeColor=#36393d;align=left;" parent="1" vertex="1">
          <mxGeometry x="641" y="310" width="149" height="35" as="geometry" />
        </mxCell>
        <mxCell id="uibnQeh16Y-J-jfBilOQ-93" value="WebHost" style="swimlane;whiteSpace=wrap;html=1;startSize=23;fillColor=#bac8d3;strokeColor=#23445d;" parent="1" vertex="1">
          <mxGeometry x="815" y="148" width="153" height="272" as="geometry" />
        </mxCell>
        <mxCell id="uibnQeh16Y-J-jfBilOQ-94" value="" style="group;fillColor=#6d8764;fontColor=#ffffff;strokeColor=#3A5431;container=0;" parent="uibnQeh16Y-J-jfBilOQ-93" vertex="1" connectable="0">
          <mxGeometry y="55" width="130" height="35" as="geometry" />
        </mxCell>
        <mxCell id="uibnQeh16Y-J-jfBilOQ-95" value="" style="group;fillColor=#bac8d3;strokeColor=#23445d;" parent="uibnQeh16Y-J-jfBilOQ-93" vertex="1" connectable="0">
          <mxGeometry y="23" width="150" height="35" as="geometry" />
        </mxCell>
        <mxCell id="uibnQeh16Y-J-jfBilOQ-96" value="&lt;b style=&quot;&quot;&gt;&lt;font color=&quot;#3399ff&quot;&gt;Portainer Agent&lt;/font&gt;&lt;/b&gt;" style="rounded=0;whiteSpace=wrap;html=1;fillColor=#bac8d3;strokeColor=#23445d;align=left;" parent="uibnQeh16Y-J-jfBilOQ-95" vertex="1">
          <mxGeometry width="150" height="35" as="geometry" />
        </mxCell>
        <mxCell id="uibnQeh16Y-J-jfBilOQ-97" value="&lt;b style=&quot;&quot;&gt;&lt;font color=&quot;#000000&quot;&gt;Wordpress &lt;sub&gt;(x2)&lt;/sub&gt;&lt;/font&gt;&lt;/b&gt;" style="rounded=0;whiteSpace=wrap;html=1;fillColor=#bac8d3;strokeColor=#23445d;align=left;" parent="uibnQeh16Y-J-jfBilOQ-93" vertex="1">
          <mxGeometry y="57" width="150" height="35" as="geometry" />
        </mxCell>
        <mxCell id="uibnQeh16Y-J-jfBilOQ-99" value="&lt;b style=&quot;&quot;&gt;&lt;font color=&quot;#000000&quot;&gt;Server&lt;sub&gt; (x1)&lt;/sub&gt;&lt;/font&gt;&lt;/b&gt;" style="rounded=0;whiteSpace=wrap;html=1;fillColor=#bac8d3;strokeColor=#23445d;align=left;" parent="uibnQeh16Y-J-jfBilOQ-93" vertex="1">
          <mxGeometry y="92" width="150" height="35" as="geometry" />
        </mxCell>
        <mxCell id="uibnQeh16Y-J-jfBilOQ-154" value="" style="verticalLabelPosition=bottom;sketch=0;aspect=fixed;html=1;verticalAlign=top;strokeColor=none;align=center;outlineConnect=0;shape=mxgraph.citrix.geolocation_database;" parent="uibnQeh16Y-J-jfBilOQ-93" vertex="1">
          <mxGeometry x="-10" y="-14.13" width="38" height="35.13" as="geometry" />
        </mxCell>
        <mxCell id="uibnQeh16Y-J-jfBilOQ-100" value="&lt;b style=&quot;&quot;&gt;&lt;font color=&quot;#000000&quot;&gt;Bot &lt;sub&gt;(x4)&lt;/sub&gt;&lt;/font&gt;&lt;/b&gt;" style="rounded=0;whiteSpace=wrap;html=1;fillColor=#bac8d3;strokeColor=#23445d;align=left;" parent="1" vertex="1">
          <mxGeometry x="815" y="275" width="150" height="35" as="geometry" />
        </mxCell>
        <mxCell id="uibnQeh16Y-J-jfBilOQ-101" value="&lt;b style=&quot;&quot;&gt;&lt;font color=&quot;#000000&quot;&gt;Database &lt;sub&gt;(x5)&lt;/sub&gt;&lt;/font&gt;&lt;/b&gt;" style="rounded=0;whiteSpace=wrap;html=1;fillColor=#bac8d3;strokeColor=#23445d;align=left;" parent="1" vertex="1">
          <mxGeometry x="815" y="310" width="150" height="35" as="geometry" />
        </mxCell>
        <mxCell id="uibnQeh16Y-J-jfBilOQ-105" value="Home-Assistant" style="shape=cube;whiteSpace=wrap;html=1;boundedLbl=1;backgroundOutline=1;darkOpacity=0.05;darkOpacity2=0.1;" parent="1" vertex="1">
          <mxGeometry x="460" y="550" width="90" height="90" as="geometry" />
        </mxCell>
        <mxCell id="uibnQeh16Y-J-jfBilOQ-110" value="Jellyfin" style="shape=cube;whiteSpace=wrap;html=1;boundedLbl=1;backgroundOutline=1;darkOpacity=0.05;darkOpacity2=0.1;" parent="1" vertex="1">
          <mxGeometry x="560" y="552" width="90" height="88" as="geometry" />
        </mxCell>
        <mxCell id="uibnQeh16Y-J-jfBilOQ-111" value="CasaOs&lt;div&gt;&lt;br&gt;&lt;/div&gt;" style="shape=cube;whiteSpace=wrap;html=1;boundedLbl=1;backgroundOutline=1;darkOpacity=0.05;darkOpacity2=0.1;verticalAlign=top;" parent="1" vertex="1">
          <mxGeometry x="665" y="552" width="125" height="218" as="geometry" />
        </mxCell>
        <mxCell id="uibnQeh16Y-J-jfBilOQ-112" value="Crafty" style="shape=cube;whiteSpace=wrap;html=1;boundedLbl=1;backgroundOutline=1;darkOpacity=0.05;darkOpacity2=0.1;size=10;" parent="1" vertex="1">
          <mxGeometry x="692" y="610" width="90" height="60" as="geometry" />
        </mxCell>
        <mxCell id="uibnQeh16Y-J-jfBilOQ-114" style="edgeStyle=orthogonalEdgeStyle;rounded=0;orthogonalLoop=1;jettySize=auto;html=1;entryX=0.386;entryY=-0.012;entryDx=0;entryDy=0;entryPerimeter=0;exitX=1;exitY=0.75;exitDx=0;exitDy=0;endArrow=box;endFill=0;" parent="1" target="uibnQeh16Y-J-jfBilOQ-105" edge="1">
          <mxGeometry relative="1" as="geometry">
            <mxPoint x="400" y="470.75" as="sourcePoint" />
            <mxPoint x="495" y="554" as="targetPoint" />
          </mxGeometry>
        </mxCell>
        <mxCell id="uibnQeh16Y-J-jfBilOQ-115" value="192.168.1.143" style="edgeLabel;html=1;align=center;verticalAlign=middle;resizable=0;points=[];" parent="uibnQeh16Y-J-jfBilOQ-114" vertex="1" connectable="0">
          <mxGeometry x="0.4962" relative="1" as="geometry">
            <mxPoint as="offset" />
          </mxGeometry>
        </mxCell>
        <mxCell id="uibnQeh16Y-J-jfBilOQ-116" style="edgeStyle=orthogonalEdgeStyle;rounded=0;orthogonalLoop=1;jettySize=auto;html=1;entryX=0.201;entryY=0.007;entryDx=0;entryDy=0;entryPerimeter=0;endArrow=box;endFill=0;" parent="1" target="uibnQeh16Y-J-jfBilOQ-110" edge="1">
          <mxGeometry relative="1" as="geometry">
            <mxPoint x="400" y="472" as="sourcePoint" />
            <mxPoint x="595" y="554" as="targetPoint" />
          </mxGeometry>
        </mxCell>
        <mxCell id="uibnQeh16Y-J-jfBilOQ-117" value="192.198.1.144" style="edgeLabel;html=1;align=center;verticalAlign=middle;resizable=0;points=[];" parent="uibnQeh16Y-J-jfBilOQ-116" vertex="1" connectable="0">
          <mxGeometry x="0.6664" y="1" relative="1" as="geometry">
            <mxPoint as="offset" />
          </mxGeometry>
        </mxCell>
        <mxCell id="uibnQeh16Y-J-jfBilOQ-118" value="Uptime Kuma" style="shape=cube;whiteSpace=wrap;html=1;boundedLbl=1;backgroundOutline=1;darkOpacity=0.05;darkOpacity2=0.1;size=10;" parent="1" vertex="1">
          <mxGeometry x="692" y="680" width="90" height="60" as="geometry" />
        </mxCell>
        <mxCell id="uibnQeh16Y-J-jfBilOQ-119" style="edgeStyle=orthogonalEdgeStyle;rounded=0;orthogonalLoop=1;jettySize=auto;html=1;entryX=0;entryY=0;entryDx=52.5;entryDy=0;entryPerimeter=0;endArrow=box;endFill=0;" parent="1" edge="1">
          <mxGeometry relative="1" as="geometry">
            <mxPoint x="400" y="471" as="sourcePoint" />
            <mxPoint x="717.5" y="553" as="targetPoint" />
          </mxGeometry>
        </mxCell>
        <mxCell id="uibnQeh16Y-J-jfBilOQ-120" value="192.168.1.145" style="edgeLabel;html=1;align=center;verticalAlign=middle;resizable=0;points=[];" parent="uibnQeh16Y-J-jfBilOQ-119" vertex="1" connectable="0">
          <mxGeometry x="0.7839" y="1" relative="1" as="geometry">
            <mxPoint as="offset" />
          </mxGeometry>
        </mxCell>
        <mxCell id="gvSB1-JG7Jc6pJ1Mvs8h-13" style="edgeStyle=orthogonalEdgeStyle;rounded=0;orthogonalLoop=1;jettySize=auto;html=1;" edge="1" parent="1" source="uibnQeh16Y-J-jfBilOQ-121" target="uibnQeh16Y-J-jfBilOQ-11">
          <mxGeometry relative="1" as="geometry">
            <Array as="points">
              <mxPoint x="905" y="860" />
              <mxPoint x="104" y="860" />
            </Array>
          </mxGeometry>
        </mxCell>
        <mxCell id="uibnQeh16Y-J-jfBilOQ-121" value="PiHole" style="shape=cube;whiteSpace=wrap;html=1;boundedLbl=1;backgroundOutline=1;darkOpacity=0.05;darkOpacity2=0.1;" parent="1" vertex="1">
          <mxGeometry x="860" y="570" width="90" height="86" as="geometry" />
        </mxCell>
        <mxCell id="uibnQeh16Y-J-jfBilOQ-125" style="edgeStyle=orthogonalEdgeStyle;rounded=0;orthogonalLoop=1;jettySize=auto;html=1;endArrow=box;endFill=0;entryX=0.441;entryY=0.01;entryDx=0;entryDy=0;entryPerimeter=0;" parent="1" target="uibnQeh16Y-J-jfBilOQ-121" edge="1">
          <mxGeometry relative="1" as="geometry">
            <mxPoint x="400" y="471" as="sourcePoint" />
            <mxPoint x="960" y="550" as="targetPoint" />
          </mxGeometry>
        </mxCell>
        <mxCell id="uibnQeh16Y-J-jfBilOQ-126" value="192.168.1.200" style="edgeLabel;html=1;align=center;verticalAlign=middle;resizable=0;points=[];" parent="uibnQeh16Y-J-jfBilOQ-125" vertex="1" connectable="0">
          <mxGeometry x="0.8691" relative="1" as="geometry">
            <mxPoint as="offset" />
          </mxGeometry>
        </mxCell>
        <mxCell id="uibnQeh16Y-J-jfBilOQ-127" value="" style="verticalLabelPosition=bottom;sketch=0;aspect=fixed;html=1;verticalAlign=top;strokeColor=none;align=center;outlineConnect=0;shape=mxgraph.citrix.laptop_1;" parent="1" vertex="1">
          <mxGeometry x="-200" y="80" width="91" height="77" as="geometry" />
        </mxCell>
        <mxCell id="uibnQeh16Y-J-jfBilOQ-129" value="VPN" style="rounded=0;whiteSpace=wrap;html=1;fillColor=#a20025;strokeColor=#6F0000;fontColor=#ffffff;" parent="1" vertex="1">
          <mxGeometry x="1050" y="670" width="70" height="17.5" as="geometry" />
        </mxCell>
        <mxCell id="uibnQeh16Y-J-jfBilOQ-130" value="" style="verticalLabelPosition=bottom;sketch=0;aspect=fixed;html=1;verticalAlign=top;strokeColor=none;align=center;outlineConnect=0;shape=mxgraph.citrix.globe;" parent="1" vertex="1">
          <mxGeometry x="778.15" y="242.5" width="7.85" height="7.5" as="geometry" />
        </mxCell>
        <mxCell id="uibnQeh16Y-J-jfBilOQ-131" value="" style="shape=image;verticalLabelPosition=bottom;labelBackgroundColor=default;verticalAlign=top;aspect=fixed;imageAspect=0;image=https://www.svgrepo.com/show/331613/truenas.svg;" parent="1" vertex="1">
          <mxGeometry x="576" y="176" width="28" height="28" as="geometry" />
        </mxCell>
        <mxCell id="uibnQeh16Y-J-jfBilOQ-136" value="" style="shape=image;verticalLabelPosition=bottom;labelBackgroundColor=default;verticalAlign=top;aspect=fixed;imageAspect=0;image=data:image/png,iVBORw0KGgoAAAANSUhEUgAAAgAAAAIACAYAAAD0eNT6AAAACXBIWXMAAA7EAAAOxAGVKw4bAAAgAElEQVR4nOzdfXiU5Zk3/u953fdMJkMIQ5INFAOEaRL4oXUpZSlFyrLW2ja1rfUFMcNLLNitFbY/39Yf6/p4+PhYH2vVda1VK7SAJrLWWte1qaWutdZS6rKs5QAeCGkIIUbIk4RhDMlk5r6v8/dH0PUFyNtkrpl7zs9xcIhkct/fBDLXeV+vBCGESIGuVeEi5diXEtPVYOzRPveRoi1NTaZzCSFOj0wHEEJkt4ZaUp/pr1xCpG4A8EUA9qkPRQH+USK/914A3aUbj5gLKYT4CCkAhBAj1rUqPMVK+m4BqAZA6Rle1g3ie/rJ2fCfdnO0ehOnM6IQ4gykABBCjEg0MvNSMN0GYA7++6n/jIh4v9Z8h2beVrz1YHTsEwohzkYKACHEsHQum15oU+B+EF0BIDTMT9cAv8DQ9ycRe6O0/lhiLDIKIQYnBYAQYki6llXaAOZaynoawDQM4an/LDoBbGDSj0+sa2xJRT4hxPBIASCEGFQ0UhUC8E2wuhNAIEWX1QDeAPT9bwUPPXfuhqRO0XWFEEMgBYAQ4ozalpapoB08TxHdA6bqMbpNJ8DPu77kncWbm9vG6B5CiA+RAkAIcVpdkXBQsf1FAt0N0Kwxvp0DYD8sfWvoycaGMb6XEAJSAAghTqNrWeUURWoNEd0EoDCNt+4B8Y/fym++CYBz7oZkGm8tRG6RAkAI8QHR5VXnQatbANRgdBP9RkoD/KrjT6zQlnO0dOMRmRsgxBiQAkAI8Z5oZGY1mG4FsAiAMhynlZW+hpXeUbSlqddwFiE8RwoAIQQA4HjNzG8S6AYAYz3ePxy9UHo9FG8NbTnYYTqMEF4iBYAQOa6hltTCRNUdAK0BMMV0ntPQAH4A4kdCdQcaTYcRwiukABAih+1d47PPORl+/NSufumc7DcSL4D4vlDdgddNBxHCC6QAECIH7V3jAwD7nJPhp0F0CVK3uc9Y2w7wfaH6A8+bDiJEtpMCQIgcs3eND6Xxc4p8Om8jQJeazjMCewB+aLu/8cfVm1hWCAgxQpbpAEKI9GmoJczqC0+z2fcEiL5qOs8IlQI0e6pbrBZ/qvuNujch5wsLMQKml/kIIdJoYaJqlkXq4VPd/tmsAqBbFiaq7jQdRIhsJUMAQuSIaM3MOQBuA+gK01lSqBPEPwrVHbjNdBAhso0UAELkgOjVM+diYFvfGtNZxkAPwP8Uqj9wu+kgQmQTKQCE8LhopOp8MN0E0ErTWcaQBvFNAB4L1R2Imw4jRDaQOQBCeNjxSFUFWK0DyItP/u+nwHQ/iJdFV1QVmA4jRDaQAkAIj+qOhEtpYF//5TBzqE+6KWj1qHbwxa5llVIECDEIKQCE8KDOZdODin13nprwly2b/KRCQJF6XCla3BUJ59LXLcSwSQEghAfZFFgP0CUAQqazGFBEoPsV24vblpblQs+HECMiBYAQHhO9euYaEC0HUGY6izk0i0DrC+xxi00nESJTSQEghIccj1QtANFtAMpNZzGPlgBYfbymaq7pJEJkIlkGKIQHHIvMAIDSPM77LYAK5Makv6FwAPwQcO8N1R9sNx1GiEwiPQBCeEAe++089v8EQBjS+L+fDaAGUGvalpb5TYcRIpNIASBEljteUxVk8BqAqgFII/dRJQBdWeAbt9x0ECEyiRQAQmSxrlVhP1s8h6AeNJ0lw50HphXHIzIfQIh3SQEgRJZqqCVQ0ipXrnoQubXWf6QWEKvbO5dNl02ChIAUAEJkrYXJqmmK1LUAzTedJUsEAMy3rcDfmQ4iRCaQAkCILNQdCRcw80Iwfdt0liwzBUyrj0eqpGgSOU8KACGykGLfPALdACBoOksWmqJA9zbUkrz/iZwmPwBCZJnoiqoqEL4uXf8jFmCmeQuTldJ7InKabAQkRBZpW1pmj7PHfYNAdwMoMZ0ni2kA0UT+yUoA0dKNR7TpQEKkm/QACJFFCnzjFhPo65DGf7QUgCJ/X/B2f19QhlFETpICQIgscSwyo5AZXwJwoeks3kHfYnKruiNh2UBJ5BwpAITIEnnwX0KgCyG7/aVSgNi6VbGv1HQQIdJNCgAhskDXqvAUML4GQHaySzm6ghXP7V5ZIUMBIqdIASBEFrASvuUy63/MKNK0WjnWNNNBhEgnKQCEyHDdKyvKQfQFAOWms3gXXcLgOd2RsPQCiJwhBYAQGU451nIAVaZzeJwioqsUfLNMBxEiXaQAECKDdUfCZRhY9ldmOovnMX0RjNmdy6bLJEuRE6QAECKDKfZdD2n80yUA0JdsCpxnOogQ6SAFgBAZqmP11CKALoNs+pNOFzHR+XJOgMgF8o9ciAzl7w2uxEDjLz+n6VNKxJ9eqCvCpoMIMdZs0wGEEB/UUEsAoJCg1QAKDcfJPUwLkFRzATSZjiLEWJInCyEyzEJdoRbqiosBhCFFugnnQeGTHaunypJA4WlSAAiRaZLKRlKthmz5a4oNxvm+vnzZdVF4mhQAQmSQjtVTlZOXKAHRJZCnf4NoNoHmmU4hxFiSAkCIDOLryw9aCd9lAAKms+S4coD+8lhkhszBEJ4lTxhCZBACBQF82XQOAQBYlAf/XdHIzD8wuDmBZPOkukOdpkMJkSpkOoAQYkDnsunKIv8sIus/IT0AmUgDiAK8D4R9AB9kYB/D2ePwyaOl9ccSpgNmu4ZawkQdVFXupMlwrSmWTaVgKsHAapgCMCac+n0AgB/0vodYRgJAAkAvgF4QHwDh1dBTjS3p/0qygxQAQmSIaKSqCKCVYHrQdBYxbN0AGsH8JoD/YsVvum7/vpKth3tMB8tEHaunFtiJvDKl1WwAswCaCUYYoGkASpGaAjgB8B2ako8V1TVHU3A9z5EhACEyhaYQgM9LWZ6VigAsANECACAm2Co/Hq2Z2QRgBwh/1ErvBPH+oi1NcbNR0y9aU3keiBaA6VMAzUcfqgAUjPFt/QBdruBrBPDcGN8rK8lbjRAZIlozaw6AX0O2/vWyGJh3gXg7K/4dK95VtKWpw3SoVOqKhAMKVpigLgTw12BajIGnehM0gMcA9+5Q/cF2QxkylhQAQmSArkg4oNheQlC/NJ1FpFUPgP0Avwbi3/YjuT0bJxp2R8JFStvzQfQVAEsAmoXMWWXWCPCDofoDj5kOkmmkABDCsGORGQEf7PMU1LVg+qbpPMKoBMBvAniZiX/dS4k3/mQf7q3exKZzfUTnsukFthVYAsaVAF0EYIrpTGfxrKvd9cVbD8r2zu8jBYAQBkRrKstAajEYXwCwCKByZM4Tk8gcUYBfg+JfM/gV10k0lWw9bHS1QbSm8nxArT51UuVkZMdcsmaAHw3VH/i+6SCZRAoAIdJg7xqffU6ifBEc9eVTT0tVAGSveTEcDga6s1/R0L9MkrN9Ut2htMxuj66sDIJxMVy1DqAlyM5i9SVtO9cVbWlqMR0kU0gBIMQY2LvGhxJncmGeDiyGo64E6FIMzHrOxjdOkZk6AX6Nwf+azO97sXTjke5U3yC6oqoMjKXQdD1A2X5EcjPAj4TqDzxgOkimkAJAiBQ6HqmaTKDFAC4H08UAQqYziZzgALwNxD9ztPtC3O3vLnumTY/0YtGVlRWkaQWYVjJTeepiGuUAeMXRfZfL/gwDpAAQYpS6I+ESBXsJWF0NYDFkGZ8wqxfgbQB+ysSvTKxrPDrUT4zWVE47Nb6/HAPHUXtNE4jvCtUd2GI6SCaQAkCIEdi7xmef0z/jQrh0JUBfBFBmOpMQH8VHAbzKzE8nVPLVSXWHYqd7VUfNpKAPoVoCrQMwK70Z06qHiLdNqDtwuekgmUAKACGGqGtVWAEIq6TvWgItxUCjnw0zoIVwALSC+QVW/OTEusZd737geKRqEbG6F8Bc5MYZFM2udq8s3npw1+Av9TYpAIQ4i4ZawnwnXGKzVQ2m1RgY3xcim8WJ+E0GngDjEwB9E7m1IqUbxBtCdQduNR3ENCkAhDiNzmXT/ZaVN4dAq8DvrXcWQmQ/B0Djdv+BT1Rv4hFPlPQC6b4U4n26I+FSxXY1oK4BYz5yo0tUiFxiA5jymWTlEqDxFdNhTJICQAgA3SsrwsqxrgFTDbw5+1kI8d8CxHQ1ACkAhMhVXcsq51tKfQcOXQKg0HQeIURa+AGqNh3CNJkDIHJO17LKIAELlFK3AXSh6TxCCFPcvwSwL1R/0DGdxATpARA5o2tZZZEiuoiIrpfZ/EIIsPoigCYMTAzMOVIACM/rXllRqlx1CZiuA2ie6TxCiAxB+AqAHwHoNR3FBBkCEJ7VFQkXWWxfAai/BTAHchCPEOKD4g4lZxzLbz167oak6SxpJz0AwnM6aiYF/QitBNP1GNjWVP6dCyFOJ2DBnjelb8YrQGPO9QLIG2MW2rvGpybEJ/rz3GCAFQVs0Htr1dk+9XfqIq5tN86cTMSdRHyPr8vJhU0vopGqpWB1GwYafr/pPEKIzEYanwZoB3JwGEAKAMMaagmfSk4r9MFXRlDTCJgMTaUgfAyMKSAUASgAqAhAEYBC9MIGoEAA+EMXfF8vlpUAgHz4ASxMlDjRGsQBxADuBvDur04Q2pn5GBE6AG7T7LQ66O0srT+WGPNvQAp0Lav0A5hrKfUwmOZA/l0LIYaKMBe5tRXye+SNMk2ORWaU+uGrImAWQJVgVAFUjgSmYeDM+P8en6YP/Tc1bAAFA79oygc+wgCB3ismFCz4kdcTrZnYBnArgGYw/g98ep/ruvsAtBfXNac03Eh0LptuW+SvIFK3A7QMMsYvhBg2Og85uuOnTAJMse5IuIBIVRDUHNb0SQLOB2g2gFLT2VKoG+A9AHaB+D816V1Jdlsm1R1KWxdaNFJVDtBqMH0bAz0jQggxIgz9aVf37yrZejinlgNKATAKe9f47I/1lc9SWs0H4a8Amo+Bsedc7E7qBrAH4O0g/q0LZ2dxXXNnqm/StSpcpBz7CmL6zqnCSgghRoWJVwD84sS6xqjpLOkkBcAQNdQSKpKT/cVuwRyL1GIQ/gagBfhw9714Vxzg/SC8BuJ/73P6X3a121v2TNuILtZQS+oz/VUXE9FNAJZAhq+EEKlCfDuADaG6A0dNR0knKQDOonPZdL9l+6YR1IXQ9HmAlgAoMZ0rS8UBfhWEX2vlvuT4+5tKNx4Z0iTDaE1lBaBuBehSyPdfCJFy/CMA94bqD5if3JRGUgB8SFckXKTYmkdQXwBw4aluZllOlloa4P0AXgLxzx23f2fJ1sPxD79o7xqffU5f+NtgugnAtPTHFELkBOIGALeE6g7sMx0lnaQAANC5bHqBpfIuIdDlp/aI99KEvUznAGgBcwMs/tlbgUPbP5aYrgHMUo71+Kmte3Nyhq4QIl14F4BrQ/UHdplOkk45WQA01BI+4U4NjOfAxXBpBYguxsASORnLNysBoA3g104t65OGXwiRDu0ALg/V799hOkg65dREqq5V4QLlWnMooa4GaCmAktwsgTKWH0AYoLDpIEKInBJCDg715kQBEF1ZWQGXLkOSrgJIDoURQgjxfkEG2w21hOpNH95e1bs8WwDsXeOzp/SVLyJW18KhiyGzx4UQQpyJ4oJ5VpkfGNrqJC/wbAFwTt+Mr4LV7Rg4BlYIIYQ4M01+K+7Lqd5hD3+xVIgcHNMRQggxEmyTp9vEj/LuF8sogBQAQgghhoJgs+3hNvE0vPzFBuHhIQ4hhBBiNLxbADDGQwoAIYQQQ8FwyIE2HSOdvFsAEGQOgBBCiCGieBIsBYBH2PD21yeEECJluKczvy1nlgAC3m4g/ZAhACGEEINLEFTi3A1J6QHwAiLpARBCCDEknRg4iySnePYJmRl+SAEghBBiUNyNgZNJc4pnCwCApAAQQggxOEY7gLjpGOnm4QJACCGEGAJCC4Be0zHSTQoAIYQQuY1wBFIACCGEELlFa25i5pwrAGSMXAghRC7TRNzkqpgUAEIIIUTu4GaCipbWH5NVAN7BCYByalMHITwsASAKcOfAfxEDIwpCjIEoEU4CiDFzLylEobiHNfWS5h5WiLPSDhM7YGhyP7jfO9sD74PEyiaXbNbwgyhICoUEFIARBKgIwAQAJQCKwCghQhEzTT71Z7LtePbagRwc/wc8XQCgFzm4rlOILBQD0AZwK4AWEN4G0MbgVla6g7Xbzq6Olmw9nJE/z21Ly/wB2xeyyJ4C0DQClQGYCsY0AOUAzQJQZDalOCPCf0IKAM9JQAoAITJF+6kGvgmMZig+yIqbHJVs7vC91ZnNW7CWPdOWANBx6tebp3tNx+qpRb54fhUYVUT0/4AxG6DzAJRBeg/MYlzNcLZ11EzqybVhADIdYKxEa2Y+BNAyAKWmswiRQzoA3gNgD4j3MrDHdfv3AIiVbD1sOlvG6VoVDimtZpFWc8H0lwDmADQbQIHpbLmFdzH0uiRib+RSEeDlAuA+gJYDmGw6ixDexC0A3gTxfzHjTVfr3XEdbyt7pi1n3kBTraGWMMUN2eVuyWwQLYSmC0C0AMA0SE/BGOM9DH1rErGXS+uP5cS5AN4tACIz/weYrsVAF5sQYnR6Ad4NYAcs/n2S3R2a9dFJdYeksU+D7pUV08hVcwh0AZgWATgf0kswBng/wHclcOLZXCgCvFwA/L9gWgcgbDqLEFmoE+BdIPwGln7NSSR2l2w93GM6lBjoJZjXHy6xYc1Xiv4GjMUAzYMs604RbgRwX49zcpPXe7O8WwDUzFwD0E0AZpnOIkQW6AV4J4P/HeBXmdzdRXXNUdOhxOA6l01XABXalv8SMH0FoIsAhCAFwWjsB/RDbwUP/SibJ6gOxrsFwNUza0C0HsB5prMIkYE0gKMgfp7B/5ZQ8e2deW/3ePnNLle0LS3zF/iDC6DpSwBVY+AhSOYPDF8zmB/dntf4QPUm9uTPhXcLgMjMajDdBWCu6SxCZIg4gP0Av8DEv/yD7+AbXn1jEwP2rvGpKf3ls0mrS6DxFRDNgxQDw9EC8KOh+gPfMx1kLHi3AFhZOR+O9SCAhaazCGFQL4CdIP6Zht62w9fUKI1+bupcNt22lL+cSH0VjK8DtMh0pizRCuJ7Q3UHfmg6SKp5tgDoWlY521LWIwCWmM4iRJppgF8H4adauQ1v5x1uka598X5dq8I2gHIr6bvm1HLpKfD2xnCjdZSh10+sb9xkOkgqebcAiIRLLPZvBlBtOosQadIC4noNt46hm4rrmj2/jEmMXkMtqYVO5RJouvrUnIEppjNlqBgsvRrAc6EnGz1RUHu2ANi7xmef0/vxnwK41HQWIcZQD8CvQPET2+2DDQB09SY2nUlkqe5IuFSxXQ2oawDMBxAwnSnDxF3tfg7AzuKtB7O+wPZsAQAA0ZpZPwGwDPKPWHiLA6AJ4Dptu/VFW5qaTQcS3tJRM8nvo/HnE1QETJcBNM10pgzSweR+meHuLsryXjaPFwAz7wWoFnIegPCGXgCvMOmNCSRfmVR3KGY6kPC2hlrCfCdcYrN1CZi+A9Ac05kyAzcx9NWuTryZqadUDoW3C4CrZ94MousguwGK7NYJ4mcYemOSY3tyYYtSkXmOR6psAIuJaT1Ai5Hzywn5DQ2+fof/4M5sHXbzdAFwvGbmSgLdAECqVpGNjoL0I5r1ll4n3lb2TJsnJh6J7Ne1rHKOpdQ6gL4KoMR0HnP4OQB3h+oP7DKdZCQ8XgBUXUxQtwFYbDqLEEOkAXSC+f5+nXgsyckeafhFpupaVjnLUuoagJYCKDedxwx+DMQPheoa95tOMlzeLgAiVecRq3sAXGI6ixCD0ABaAX7U0fHHSrYelvF9kTWOR6rCxLQUwCqAcu38lQSD/1lr/VDx1oNtpsMMh6cLgK5IuMhi/0MAlpvOIsRZNAH8E5eSPyqua+40HUaIkToeqZpCoCsIWMdMFabzpFEM4B+4lLyvOIsO0fJ0AQAA0ZpZDwP4FmSXK5F52hj8lNb6ieKtB2Upn/CEhlrC/OTHJ9uwloPpJgCTTWdKkzaAH3kr2Py9bNl50/PHRRLxMQDdpnMI8T49AB5j0l/+g7/xNmn8hZdUb2KU1DUd7UmefKBf988E8R0AohgY5vKyMoAi5/SGa00HGaoc6AGYuRKgmwCcbzqLEAA/z0rfl8yL7yzdeESW84mc0BUJT7Hgux0D8wSKTOcZYzth6VtDTza+YjrIYLxfAFw982IQ3QrgQtNZRE5rZeKbAN42sa5RJviJnHQ8UjXv1D4CFwEoNJ1njDgA3nB9iUjx5uYW02HOxvNDAPDpNhAfNR1D5Kw4wP/Ur+PnnkyefFYaf5HLJtY17tzub7ySia8E8BIAL/aC2QDm2I7vkbalZRm9Db3nJ8a5rttuseownUPknDiA3Uz6OxPrGneYDiNEpqjexBo4sK07Et6p2L4MoHUAeW2INshMiwp84+4GcJPpMGfi+SEAAIjWzPp7ALcDKDCdReSEVoAfTyD6T6X1x3pNhxEik0VXVJVD08qBswY8Nz+gF7Z7OYBtoS0HM24SpPeHAAAA3ApAZlqLsRYH8DyUvjJUf+C70vgLMbjQk40tjhv/LrP716e21vWSABxrc9LVZcciMzKuvc24QGOCcBRAVu3QJLJOE6DXu5S4JvRU4xumwwiRTUq2HnYmPn1wDxSvgNJXAuiAN5YNKgClPrYfz2N/xp2ZkBsFgKXbQNxqOobwJA3gWSa9Yrv/4D9n0y5gQmSa0FONvf2cfLaf+j8B5noM7JnhAfRFEK6PRmZm1NH0OTEHoHPZ9ICtAt8G6D7kStEj0iEGxXdB6frQloPtpsMI4TXRSNWlYHUngNnI/knrcVb6Km05Lxdvbs6I4cGcaAxLth6OE6GdiGUYQKQEEe8DuV/TnPyBNP5CjI1QXePzri/xZYB/DCDbz8kIkKY7VdKe01CbGc/eOVEAAAAD7Qxk3XGNIgMxP+fqxBcSHHutqK45bjqOEF5WvLm57a1g83UM/bcAtiOr5wbQHGK6dmF/1XmmkwA5VAAAfBSMRtMpRFaLg/gOKFxZ9PShttL6Y1n8RiRE9jh3Q1JPrG98jkmvAPifAGTvhlpENVCo7l5ZYXxSYM4UAC6cdgB7TecQWUkDaIGlrwrVHfifoboD0vALYcDEusZml5J3MPS1AO8xnWeE/GBcR45V3VBLRtvgnCkAiuuaewC0nNoTQIihSgDYzqQvDz3Z+ILpMELkuuK65p724KFnNemrAH7KdJ6RoXICvr4wWbnAZIqcKQBOOQpA1miLoeoF8Ly2nRUT6xp3mQ4jhBhw7oakLqo7uA8Wr4PS1yIrlwtSNVhd1RUJh0wlyK0CQHEHCP9lOobICp0A/9ClxHVFW5paTIcRQnxU6MnGKDRvAtzPAmhBdk0Q9AOotti30lSAnCoAEvpEBzPvgjdPoBIpw60gfXciv/eO4rrmbtNphBBnFqo/6CTy428m8k9+CuAXMdBzly0qAPpadHmVkaGAnCoASuuPOQQ6CvCbprOITMX7AV7vuP2PlW48kk1vJELkrNKNR1C68Uj3W8Hmy0+tEsimI+DnQ6vr2paW+dN945wqAAAAhE4QXjUdQ2Qi3sPQNyVw4tmSrYdlfb8QWebcDUknVH/gNhB/B0C2POgVAFhYYI9bk+4b51wB4NrJbib+jekcItPwLob+2yRi20rrj8kQkRBZLFR34JlTkwNfBOCYzjMEYYBWd60Kl6fzpjlXABRvbu5VTE1EvM90FpEp+A2GsyKJ2Bul9cey4c1CCDGI0FONO13trmPwY8j8eQEKQNhK+m5L901zDgMxHqgMRc7jnRqJy5Po2S+NvxDeUrz1YIv2Je9g4tsxcMRwJgsB9NXoysqL03XDnCwAwDoG5l+ajiGMcoh4t6Pjn9Nat8u2vkJ4U/Hm5u4EEo+B9DoibjadZxBFcNS9DbWk0nFgUGYcSWRAtGZmEYDfAzTLdBaRdgkA+/qp/wuT6g5l+lOBECIFOpdNty2Vt4BADwE013Ses0gw9DoAmybWN47pfKTc7AEAAEIchKdNxxBplwCwy/Ulvi6NvxC5o2TrYeek07tds74a4JdN5zkLP0HdpZEo6qiZNKZtdM4WANpyE9pynzWdQ6SVA2AH4K4q3tzcYjqMECK9yp5p02+Pa2lMUv9VYM7k9/9SC3k3+REa022Cc3YI4F3Rmpn/AdAcALbpLGKMEV6F5d4a2nJQzoMQIoedGl9XCxNVPwFoKYCA4Uin08PQn9fk7Cquax6ToYCc7QF4D/FmALLpi/e9yqzvlsZfCFG9iVG9ifV2f+M1AG8AEDWd6TQKiOh6C74pY3WDnC8AEoG+egz85csscO/aAfDDE+sbM3ncTwiRZqeKgO9gYK+AzNs+mGkpM8/pjoSDY3H5nC8ASjce6QbzNmTlcZJicLyfwY9u9zc+bzqJECLznCoCbgP4IQycKJhJ/AS6VrGvaiwunvNzAADgeKRqERE9CaDcdBaROkQ4CvD6ZLK/vmTrYdneVwhxRg21pBYmqm4E4ToQwqbzvIegGbyOSdcXbWlK6VBFzvcAAMAffAe3Q1MjZC6Ad2jqZRf3sMsvSOMvhBhM9SbWbwWbHwDzQ2BkzoZBDEWarlKuNSfVl5YCAAN/8WD+FwDtprOIFCH9AIifD9Uf7DYdRQiRHc7dkNQJnHgMzPeD0Wo6z3sUFrHiBV2rwkWpvawAAPSrxPPQ1AqWyYBZj1EP0OZQXWPm/AALIbJCaf2xRCK/78cMvhOMNtN5ALzbC/AlK+lbkMrLSgFwyqS6Q90A/wqUQVWfGDZi7NPk3vFWfnOT6SxCiOxUuvFIXMPZyoxbwZQhqwNoIYDPdEXCham6omx+8wH6GVLqbyCTAbMSO9TjWs4KVrr13A1J03GEEFmsuK65t3tlxYukSBPR43ApZQ3vyLDNGkuU9v0HgBdScUXpAXifUP3BZnbwu4zp9hHDoUH6OqXVnuLNY7NrlhAitxRtaYpxkhp0gv6WHTI+SZxsnqfy9Gc7aialZOdCKbYj7ZIAACAASURBVAA+zNYvgrDLdAwxLHF2sTVU1/hUqG5sT88SQuSWiXWNMVL8Iix9HZueI6YpAEfN91NoSSouJwXAh4S2HHwTLv4AzsBdocRHMRLs0G7HjV9nOooQwptCTzb2wKGtcLAepneNZcwB05caamnU7bcUAKfB4FcAbDedQwyOgVYmfVPJ1sMx01mEEN4VevpAPPT0ge+xgw0Aeo0FUSgkm+cudCsXjf5S4iO2+w7uZMJvAMh58ZmM0QaNjRPrGl83HUUIkRveCjZfD5/eBjK4fTxxFfn566O9jBQAp1G9iTVcfg2MBtNZxBn1gPBqgqP/bDqIECJ3nLsh6fQjfg0Yr8FUTwBTKZJqQbSmclRnBEgBcAbbfQd3M/GvkYknRAkAeEO7fH9p/TFzXXFCiJxUuvFIlB19Azu0AwzHSAhGGUhdNppLyGFAZxFdURUmhetAuNl0FvE+GvvYoYdD9QceMx1FCJG7oiuqFpOFuwGMejx+BBwQ3kj29X+hZOvhEQ1HSA/AWWy3Djazg1/BIdlVLlNY3Is8bkjk9z5lOooQIreFnmx8DTY/bmjpuA3GNNvKWzrSC0gBcBbVmxgg7IPijaaziFMcepF76V9KNx4xNwFHCCFO+b3TVA/Fm0FoSfvNGSUEunqkny4FwCBCTzW2s0MvcpJ2mM6S8xQ3weZ/C9U17jQdRQghgIFJ4/G482O2+AlYnN4HE0IAPj4/WlN5/kg+XQqAIdHNUPoe0ylymsWaFTa7SX7JdBQhhHi/SXWHeriP6tmhHxm4fQFIXTuST5RJgEMUrZk5GYR7KaBXms6SkwgvALhnwoaD0hMjxlxDLeET1uRAvuMvVI4VBAFswSZWfuWQrW1+b+Y3EzvQHGfS8aQv0dtN/7f33A1JOVY8B0UjM+fC5lvI5mVpvK2Gpu53TvZOBRAve2boR9nIaYBD1E+JTttSd9na+ioUh0znySkKUda82TmZlDMaxKh01EyyrXxfoR3whzlml0NTGQX0VO5XpeTTk8E0GUDJqZ/xAGx89F3SB1gfeHZ69/cWfPAhiHH6xBo4cKkHLnXCpztA6IDFvdyrjkLjbRCOIk+3ccBpT8bdozKnxRu2+xp3LbQ+/ghAswGMqFt+BBQUFxXkBS/BwCmBQz4PRXoAhiEamRkA8C0K6Pshwydpw0n6Llx6PFR3oNV0FpE9ulaFJyvXOl/5MAeaPgFGFfm5nBmlprN9ACMBpg5Y3AjFLXzSOgTi3ZqdPQBai+qazawzFyPSFQkHrDy1hCyqg0ZRmm6r4dMvAbhqwmN/HnIxKQXAMDTUEgCoC5JV/4E8fT5IelDGnOJmDb78D8nmN6s3sek0IgO1LS0DEQWCdv5CAi0A41Pk53lQPBkEv+l8o6IpBuImKOyGi//QSexidhuL6pq7TUcTZxZdXlUEhSvIx4+n7aYKjsvOTIedltKNR4Y0BCUFwAh0Laucb4/DLwCUmM7ideziGmg8H9pyMGo6i8gMDbWE+cmPl1pQC0jhs+TnxVCYC50jBTkhRoRmdrGT++n32tLbi7Y0NZqOJT4oWjOzBIT70zlvTMfpBjA2TaxvHNL7pRQAI3RiTeWdYHwbUgSMHZ/eBmDVhMf+LNsx57iOmkkBn1U4R+XhIih8HhpzwSgwnStDaCh0cq96BcBvHLgvu3DbJtUdGvJYsEi9jppJylKBElsFfg+fDiM9w8Y7AFw1YePBIQ2XSgEwQh01k4KBcYU/Z43FAAKm83hSwP0sFL8x4WF5I8tFbUvLAgV5wQvJz1+DQjUYU8Ay92aIdpNPv8oav+Ye9Uao/qCcbGrA8UiVDWCBCvKvoBFMxz3Z5c+6Sf1GcV3zoO+bUgCMwvFI1XyVx4+CMNd0Fo/RIDwPIDJhw8G46TAifY5HqgIgLFbjdAQJVQ3FRZAJt6ND6ITGdu5X/6ot95WiLU0tpiPlmhNrKu8D45sACsf6Xpyg/wWNR0N1je2DvVYKgFE6sabyW2B8B8As01k8Q6HH7edPA9hftKVJ1lN7XMfqqX47kTdLkbqK8vRSaKowncnDekG8h/usn7lIPlVc1zxoIyFGr21pWWD8hMAvoWkBxr7HeBeAayZsPLh7sBdKATBKbUvL/OMnBO4BUS2QtiUfXtYD4q0THm8a0c5WInt0r6woVXmoJoVVBCxgJhlKSyeGA0tv4z7racdxX4on+7vLnmmTgnuMHI9UzVP5vBkKszCWvVoMR2v+eiLuvjyp7tBZe1ClAEiB7pUVZXYAd4Cwkpmye9mRaYxWJ+H+TfHm5mbTUcTYOB6pOl+N0ytAuAxMYdN5BABGlGz9HGve7PRgV3Fds2xMNAZOrKm8EQrrAJSP5X24n77PSTwysb6x5Wyvk7G1FCja0tQGv36cB7arFSPXCcXPSePvTdGVlUtOrK78qQrybwC6WRr/DEIIsau+AW39xg5av4t+o/Lm45EqGYpJsf7e2GPEeB3AmBZYFNCLVKE7ZbDX5ca62TTQMauH/OiRkmrENBjtbhyPmg4iUufULOjFKsC3w0I6xj/FaBAUgDlkYw4Bt0RrZr4Mi5/Ybh18rXoTy/DAKJXWH+uNLp/wCAV4ChQuHKv7EHA+a0xpW1pmlz3TdsadJKW5ShHK57lQadv72Ys6wNgmG5p4Q7SmMhhdVbFEjXd/ocbxv8PCEkjjn11sLqUCXUP5/IsL/B//XWxteNneNT577xqf6WRZLfRU4w4APwdjzN7rmCkIR32qwB8sO9vrpABIgbalZX4CPknE55nOkrUIzch3NpqOIUbnWGRGIPqt8GIV0k+Sn34NrS42nUmMWhCghZyw6qZS+Z/P6QuveXv5jIJTW6OLEXD73K1EvI2Ix2yPE8rTc1XImXa210gBkAIFecE57NJsmQA4QowOONg+4eFD+01HESPTUEvqeKRqfiDPfkKx+hU76jI5K8NzFBOm0Tj9RDDf+q+FuuLGrkjFFCkEhq+orrkTfv1zJrwyZjdx1Fz0W1IAjDXK4wUgVJnOkcV2cxL/YjqEGJkT62aULyqccY+aoH8GG8tlOV8OIKqgAO63g/jDBerj/xBdWVluOlK2iXUkXmMHPwfzmOzFwIQSDS7vWhU+4/J0KQBGqW1pmZ8s/iQIZ620xBl1A7wztOXgTtNBxPC0LS3zn1hT+W3E7V9w3LoZDp11vFF4ENE02HQ35fMvot/8+I3dKysGnXkuBpQ90+YgQdugaetY3YNc+oTl2GdczSFddKNUkBdcwKwroFi6/0eCsIMs/W+mY4jh6VpWOccu4Hth8SJQevY4FxltNoHus/KxOrY2/Hi8L7mpdOORmOlQmS605WDLiW99/JcAFgM0L+U38PNs8iMM4I3TfVh6AEaJgno+FKTqHQlNvXBoV6wjIU//WWDvGh/2rvHZsbXhO+3x+A0sXCyNv3gPQYEwm5Pqvjwr8JvY2vBlpiNlA7eXdnJSPQFNZ1yuN1LEVAGm8oZaOm1bLwXAKOxd47MJ+GtAuv9HxNbbKc/9XdkzbXLaX4brjoTtKe7U86YGp/6BHfU/YHFI9hEVp0XwQ/FcTqq6E6srf929smJ298oKaWvOoGhLU1Tlu9vJp1O+kRwTAlA8/YLx5ad9SJW/lFE4J1E+n4EpkKGU4dOkkVDbk8exw3QUcXbR5VVFyra/oWzrt5xQqe+mFN5ECMDHF1l59Ce7UN/ddf3UItlD4PT6jnOj7scjxOhN+cUVysnGaecBSAEwCqrQXQKFUtM5spLSe2DrPxXXNcs4YYZqqCUcX1Mxh/L5UcrXj8NiOexKDJ/FNjvq//Mp32+mBqdeemLdjDE/EjfbTKo7lFAB3gdb/yDlF3cpzH3qtKfVSgEwGv3WZ6FRYjpGVnLpZe5Vu0zHEKfXsXpqYGHejCuUzRth8VLTeUT246Q6n+PWT8lRj55YO2Pu3jU+aX/eJ959ssPt441wqTOlF2aUwVXTT/chGcUboWhN5WxVyD+X9f8j4FIHM1//++Sfn63exKbTiA/pXlkx2R6vryeib7NL8tQvUs/iFmZ+yOnBU8Wbm1Pb4GWx2I0zCsD4BuLWQym9MOOpZJ++pXhz89H3/7FUYCOkitwLQZCurJHw6VcoTzdJ4595oisr59h5eBiu+ntp/MWYcamcXHWvL189EVsbXmg6TqY4Emvr6Uv0/Zh8ugVA6g5fUpjsG//Rh1UpAEaI+6zPgVFgOkc24iT9yjmOJtM5xAfF1oYvVuP4cdi4AgTZ10KMLYIfhEvhqM0n/rbi7ztqJuX8ktJzNySRT8E4a9wBIIWro3gyIAVASnSsnlpEfl4AkgJguJh5OxTvKaprHtPzsMXwxNaG18BVjwKYbzqLyDGECiLcnjdu/E+7V1bk/JDq6z2HnNd7Dj3FDvYhVUUAoRQKH//wH8vytRHwJ/KXIM/1ywyK4SPiXwE4OugLRdqcWFN5F7T+NpTM8hfGFJCNi+0A/zK6vOo7oacaXzQdyJRTQ6M6tlbfD6YHgRSsNFMoIoVpe9f41Lkbkvq//1gMGwX1V0BytvmwOdTL/Xg53n1SCgDDGmoJDbWkYmvDj1KevhkEafyFWQwbmsJqgvvz2NrwXW9dd04gl08aPBI/8gxZvB+E+KgvpmFzkkrK8ss+sB+AFAAjQPn6IkAKgOFiwktQqr20/ljKt7wUQ9dQS5jnnx66IO/jPwHTtyD/lkVmscH0jwUc+NfP2NPCHTWTcrKdOndD0mGbHweQqtMCQ8RU/v4/yMlv7Eh1r6xQ3SsrZiNJkyHfu2GjfOenND7ZbTpHLmuoJSzIm1GWp+zHyeaVpvMIcSZk4WJrnPqVPxRc0hUJ52SRGmtLPgubG1PSCwAUAZj9/j+QRmwY7GLXbxe7F0O+b8Pn46OOxvbXO1tl5z+DFhXMqLJ9uJ9kcx+RDRxVoXz0U18Jak+sm5Fzm66VPdOWgIOnwWgZ9cU0hbjPmvH+P5KGbBi4T9ncpz5vOkdWcvCi7aoeWftvTuzG8jmw+C4wSeMvsodDRcR4iFy1PrqyMmw6TrolOt1noXgPaJQrAiwupHHuB75/UgAMUUMtIelz/OTnhZDv2/DluT9DwE39QRdiSGJrw3PRb90KR0njL7IOu+SHwo1qgr43tjacUwdSlWw93Auf/iWIG0d1IYYfDhV1RcLvrSqQZYBDdMH48gBA54MpJM3/sGhY3NGTcF578532VIxjiWGKrQ3PAdENICwznUWIUboCCqWxG2bcU/jgoZdMh0mX5DH1vG8ifR4K543qQoSg72NuOYAOQJ5kh4yYgsT4nOkcWciBg+cLOM+R7v/0Ox6pqgDoelIsjb/wBqbFcNR9sbXhnJnEWlzX3A2//i3UKHsBgCC0Kn/3f6QAGCJ2KMgOLTCdIws5Omb9q45ZsvQvzbpWhSdbRc56EJazJuntE15yHojuiK0Nf9t0kLTJc18GsGOUVwkCPO3d/5ECYIjIzwHys2yTOjwaxN3vfPbPr77z2T+n7mALMaiOmklBX4hvB+FSyDp/4U1hEN0eWxu+2XSQdCi8p7UJjD+CuHXEF9EIcq/13pbAUgAMQffKiqCOUxWY5PS/4emFza9NvVbHp14r7X86BSYHbwOrS8Fyop/wtMkguiN2Y/l9poOkhcYOML0+4s9XCFBAT3n3f6VbcAjsErcQjHnQubst5Qj1IkG/MB0i18TWhr8JFzUgniLnVYgcUABX3RhbG44DuLvwB82enWwc60jsHj/J/0ciXArCSE5PDBCorKGWVPUm1tIDMAR80irkuPVJ0zmyUG/fcd5mOkQuia2fNh8WbgNQbjqLEGmkYOEf4eMbYzfM8GyvV9kzbQ759JtQ/OoIL6GYUfDp5IxSQHoAhoTy3QIA54HlcWoYesB4c1LdoU7TQXJBx+qpAFBEJ+0nmDBlsNeLAUSIQ6ODFfcC0GBKgDEwYZVgg7gAoEJoBECQIcBMp+luaDixteFNhT9o7jAdZyw4nfYea7z+LdmoHuElbN80ZxqAo1IADKJz2XSbHSohCxWDv1q8TxQavzUdIlcEJtgKwBPsYhaksH8PMbqhsJ/B++DQQShuYVu3O11Wu5s82VFaf6xnKNdpqCX8BY2zp6uJhf4SlClXFaHfmgxGObs0nRTCsLgCwOQRds2KVFG4l/yu/c4/TN00/rtHUnWQTsYo2tLUHfu78G4wGkGoGsEl/HjHLgfwhrxRDMJfhiK4PEvG/4eJEMV45zXTMXJBbG04iASWwsJlprOYRIQ4bL0dCm8w8x/dft6dPMntpRuPjHpMeGAPix4H6OkGcMYDrboi4aBSapry4zwK6k9Tnp7DCTUPhNBoM4hhSFp3QCsntn7alsJ7Wr13/LhGIxReADCSFRB+AJMBeVIYXNwKgXCurJcYFgcaR19/+8ibpoN4XVckbOt+VKl8PGg6iwFxAvazpRug+N+jM49sB2B0xUlxXXMvgP2nfj176jx7dcH48vPJxgIQPkOaljCjDLIKa8wwww+X1nOP7XStCm8q3tzsqVNI490nW/OKgr8hRd8cwdCUgl8XA1IADM7PRWBID8BwEDpg8c7qTSxr/8aY/2N6GhgPsaNy4wmT0APinQD/jB16qfDhQ02mI53Nqd0vNXDoTQBvAnhs7xqfKpvwsVkEtYRc+hI0LWBCzp10N+YYIUW4zTce/mORGT+YVHdoSMM92aC0/pjzzq3lrdB4jRN0yTA/3Q/QNEAKgEGRQyEQqlhq9eHoBuNPpkN4XWxteAonUAMLiz3/LEm8A5b+OdvuC79/+63GbC4uz92Q1EDrPgD7APzwxLoZRaR4IYguB1M1CKWDXUMMDQNFUFiXXwIceUI9MPVaPboT9TIIK90GrX4KNcwCgGCTj4sAKQDOqmP11IAmLiVFk01nyTKd2u/sNB3Cy45FZgS0xnxl4RbTWcYKMeLs4jndj8fdftpZvPmwJ0+TnPDwoW4ALzbU0oufDE0OjrP8i8iiCPrVZTwwodDr5d3YIkwBU2TCn8o7geYNpuOkSuE9rdF3/i68E0AbWygb8icyFPeTFACDCUxURdAoh5xhMxy9YLSG7j2S0V2z2S5YxnOgcT073tudkhg9rPSP4lF6UCfQPqnuUNY+7Q/HwHDB270AtgHY1rF66g2BQvsycmk1K5wvqwtGQeE8KFwXu3FGR+EDh14wHSdV2NZRAA1g9c1hfJoNUOjUb8QZuaoEhBkgqQCGoQOE/2M6hJfF1k+bwkl8CRoXeebfJkOTpnZ28VTvcX5wUl2LJ9dwD0fpxiPdADY01NKPF00pW0BarWBHVUNj2qCfLD6KMYeY1sfWT2stvKfVExOUtc/tJq1+Si4PtwAobaglJV1LZ0F+LiGLy03nyDJHwdhnOoRXNdSS4pP2EjhqueksKUNoJ+J/TkTxmcIfNK+fVHco5xv/96vexLrwu0e2j//fh6+Dz/0sWfomIt5tOlfWISgmnos++5GuSNgTw7qhe4/EKal2Qw/zPZdYzbPKQlIAnAX3qRAn1NDHVgTAOMoO9piO4VWLCmbMIcVfhuKw6SyjxhQD8BTlOV8b/0DLDcWbm9tMR8p0hfe0to6/7/AD7NefI79eRTbvMp0py/hh8Rx/mX68oZa80f45FIdDzw/zs5Tl+Iq88Q0YAw21BCiUkJLutiFjOMTU0dbX1mI6ihd11EwKwMIloGEv+8k8Ll7hfkQS7fra8d89IhNGh6nwntbO8f/78BbW/Ncg/vqwnwBzGSPISbpoUcGMO01HSQU9LtmrxyV/NtzPswu5UAqAM/g0zyhi5lIm9pvOkjUstCNP/3lgmZNItfyy/Itg8+dAnL0T/zR1ArgJPh2Z8MPmF0u2HvbsyW3pUPj9wz2vdx1+vqX/+F8CuI583A6C/PwNLgg//2Ps5ukXxm6entXv8aF7jziq3353GGCof/eK8rQMAZyJ/5xkKfl5qukcWUXjKCfRYjqGF3WsnloA4CsgzDedZRRechP8pb5j+EHh9w97b3tWQ6o3Mc5/NOoUPnDosb5O91yy+QEQZB7FUDhWndNL0zpWT83uCfF+reHXzwEY6j4Hivw6lN1f9BjimK+IbC6FZTpJFlHcBp8ry//GQKBYfRWa5hMjgGzclNLi/wng/ok/bImZjuJlpRuPRAHcErt5+tNk0XpouhgspxiekcWT7QA9aAfs6wG0mo4zUtynNICfKz/+DkBgSJ8T8xVID8AZ0DhdAh88MVM0XdihjsRbPpnIlWIdq6cWEujrAGabzjIsBA2bjzLpz7HmO8d/Txr/dCn8/uFdJ1qcCPfR9XAhcyzOggiXwKHlsbXZuzJgwsOHMOHhQ7uQpOb3jrM+OwU/B6UAOLMQwLI/91ApjpOf3y7e7M0zuE0KFKtl0HQ+GNkzVkmIg3hH8m37bwq/f/iVwu8flnHpNCt7pi1R+EjzU2zrq1jje6wpajpTpqKAvpVCzoLY90qH9PScqVjjFQBDO/MgQTIH4Ey4X5Wwo2RP7iGjdgCeO3vbtI6aSUEiugpA9iz7Y0S5n57tbaevFW1p2m86Tq4r/P7h5r4O3Mlarxg4SEl8hEuFiKvbqCOYzXNsgID7r6AhFQAKQXeczAE4jc5l0wNk62IoGTsbMo1WTkoBkGqBScGl0ByG4uz4WWW0QWNLvKv37kn1xzy5d382mlR3qLehll5c+BfT9lkKNwBYazpTBpoHh66KrQ13FP6gOSsL1xMzj7wR2lsehU9PAQ1yhoRDMgRwOr6/UCUAikznyCpM7UgomdmdQg21pMjHq0BZMheF0QzwQ9FZrXeWSuOfcao3MUL3HW6mwuR6GudcBYIMCXyYj2uRr7/YsXpqVp67MPVaHWfFrwLoHuSligJaCoDTUeOdElicG+erpwrxUSaWAiCFFldMuRCEWRjirF6jNHZrF3e0Hm/31JGrXlTwj2/19Df7n0scVX8FoBlDXzvufYwgEa7OL7G+aDrKKPx+SMWdq6QAOC3HmgwmGf8fBia8/c6xpEwATCGO+q7PiiVcjN0Mvqst9la9bAKVHYo3NzvFm5ub+rrcvwKhAYD02Py3+WB8PXbz9Fmmg4xEsou2gwctABQnSZYBnpatC6GyeLe19OsgQmfZM21DWX4iBtEdCavuSLgcChcBGX4ELGE3M98Wb4+/II1/9indeKQ7WtF6JTu0AYxO03kyhosvwlFX713jy7o2snhzcysIzRikqCPFUgCcVkKVwCUZAhgqxlFoyBrvFLHPcZV9jrsayPhlf23a4Vvjx/W20vpj0u2fpaZeq+Ovd7fcAJ++GwTZyAsALJSQjy+aOr6s2nSUEbH1H0E485AsQ3FCyWFAp8MOhaCzoOs1UzDaWMvTQ6oQyCZQDYDMnflPiCHoXKemxF8r3XhEGv8sV72J9fjvtv4TM98GyMZBAADCPPLxio7VU7OvLbB4DwafCDjIMoEcRXk8EZYUAMPQAcgmI6kQWz/Nz5ZegIF1/5n586kACjrXkc2vjb9JZvt7SeH3Dj/D4DsAvGo6SwbwgzAvfxKtMR1kuPrasQN0loOhCA4VODsz8w3GkK5V4SmxW8r/HoxLkA0zrzMFoR1KSwGQAkQoIELEdI6z0riDT9ovFPzjWzLs40GF3zvcwOA7ATSYzpIBygG66p37J5WbDjIcpRuPxDhBP4PGntN8WIPQnnjLvj9zuxjTqDsSnuY7R6+D5daAaTIy9ckrU1n6bUyID9rdJM6uoZbgOCiwSV2Rof8CHTh4BcB3x3+/RSZ8eljh9w6/+s4/TNNgssF0sek8Bim4FOa3gjcBWGc6zHC83n34qQuKpvcqH98AhQVgUgDi0HiDlb6leHNLU84WAB2rpyoAofxJdDfYXQ6mAnA2HrNmGLFmTd2v7/u/Q9t/WpzRopJphWAshEImTkDVYLT3vk0rgCEdNiKy3O/aj7x2Qem0XkXQIGTzuvjRIZSQny85sW7GExMePrTbdJyhqt7EGmh5tmP11Ab/BJpMfi7RzJ1/6GhrGfhYJk8yGiMNtYRPh6aW+JT1TfLxLdAZ+WabPTR1EKOnehObTpL1yM8hAF+GzshC9Cgs9/pJdUdkr4ccUb2JsXdN+66yCR+7VSlVAAuLTGcyqFTl8R0ALjcdZLhKNx7pxcCGT80f/lhmdjSOkdjN00s/O2Xqt/IK8Ufy890gafxHTaMNeoinT4mzIgshUsjE7tYOMJ4a/90jL5oOItLr3A1JnXyL9jH0dZTnZuX++CkShI2LYzdPvzB283TPtJue+ULO5lhkRsGJ78xYClL/Bq0e5YTKnpPVMp3NR+HXUgCMUvTWqYU6SbMz7gRKxXGy9c6+Tvce01GEGSVbDztOu73fOWpfRT6dy9t9B8iiO8giz7SbnvlCziR244zFwXN4swrwT8ji7D7qMRNp6oajZCnYKKmEXQRH/ZXpHB/BtIeJHyrdeERWeeSworpmR43X+3QfRUAcN53HEBuExaz0wtj6aZm+SdeQeHYOQNeqcJm/VN8Ei5cCmGI6j2dZfBSW9ACMFllcCsJC0zk+5P9v796jpKqvfIF/9++cehdN0110d1roEMJwCWEMw3CN4wOJQ9RhVCJRdKLGTgCR8QY1+Lgk43V5jZcLSoJ4kSASIYrjEPPwMYwSwgBhsgzj4jKMMlyGIQQY0t00TVPUu8757fsHajQC9qO6fqfq7M9atVZc6a7z1e6us8/vsX9HofH6oEcObzQdRJhX8/hvHQCbk/d86gEK8SOAP3ulUFE9COBG9KDRjtdVZQGQ/OanbiJbPwCbx4I83061srk4xgXl1yeCkji8Sik+6DaRVhM9NSan8aZOq2dNxxDeUvO93yxLfvNTf0xhfb0v11FZmKI1T+h+YPj22kWHK/qzr2oKgPabPwUADdFP8EoE9RUgjx+iUiVYcVJbvh0SLInBB4YliGgUlIf+HjV2Q9PLg5/8zUdWDgtROKrvCbXQMNg8yY+ftYrVHAD7ABwynaU/vPS80Wep3Eqt1gAAIABJREFU75wXjn2mMDU20v0XhPhaP/5CmkIWd6m6rBQA/UCuaoKmPzGd430MDYs36/NSsupfnFHixd+m2NILwNgNPku72WpG/CWEnNHJxQ0V3TG2oguADa2ErvuGN+tT9kLO2n/PWrr4lRu7lDr87yflMJh+oJjbQCHtnbPHCb+Cxi8Gz+us+DlOMXBqFh7axS5WANhjOkvZKdhcsG5EZ2SY6Sj9UbE3y+Tihuilw4ZdFbCsV8nG3abz+JJLSXJVTs6B7yeH6uDCG1tTGZoLeKP4W3u76SjC+w53HX2egvp1KPZdsagC/CWKuiMOr1IVex+tyODJBS3NlAzPI6J1sHkCCJCXgRcjCZa2sP2RXNwQZ0Izg+qM/zwJANN2UvRm3boDsu1PfKzPPlPU7nF7OVx63fjvbplfzJSAo75Ye+i8lhL95yy7iisAkt/81AWk1feg6VFmqjOdx88o7BYo6srTfz9Qd6gZLj5tOsd7WOlXXbi7TOcQlWPwk785CPBPwdhhOku5kY1rKQDvTN/1UsUUAO/MCqjkt1q+ShG9AgGeAVU52asV561uzloy/98P7KgGaPLGE4RLu8lRO2sXHe40HUVUluzB/CsA/4iIfXVENDs0RufV+O4HhidMZ+mLiriJdt70yWhL3XmLCLQIhAmm84jTKOzmZASgf1RU11GAvdGoytYbEHRl25/otYYX2gtQ/DozXjKdpdzIwaWqaI01naMvPF8AJBc3NITH6OcQ0ndAocl0HvEBTBlZA9BvCXigUyURd7LlvtHd8p8Vva9ZmDPokcNvU5BfJpv3mc5SThTkiyjqjn1nVsDz99M/5OnA3Q8MH6dOhd9gR10NprjpPEKU0oZWUgzU4nQRYBRrbKaCdXT4bC0jOqLPdJbe5CKtNp2jnJipFkyfb2loqrhRAO90HvuA5IIWBeBCFeYfwUUTEXu6UPErLlAOWskNo48unlBfSycwFECQFBvNQiHnxwi5fj7pTZRAzcJDHamHh28D401outB0nrIhTADhfABvm47SG567saa+c15YxdyrVYh/AZea4cGMQpQC/S5aA4fMH6jC6OCcvSt2b7uvFnCJgeFksEcXabnpHOXFY6Hxuc6bPllRnQE9dXM99a3htZxTX4Wj/g6aKuo/pC8pzsHSsgagj8jmOhCMb2XVWfUTnVZy8xclUbvocFIFeAcUv246S9kw2QCNDf2RHm86Sm94pgA49a3hTVCYRYpWys1f+ELeqoNrvpcFBfWrCGkpAETJULxwlILuStM5yoowlmxU1LSHJwqAU98a3kIW7iQbj5rOInpBUxiu8uQ6kopg6xoQm50CsLjbsYo7Dx/7XcZoDlFVYve2p7hovQmLN5nOUkYt0Phcx8zhFbNg3XgBcOpbw0eTjflQuB+agqbziJ6joA5TxDX+O1SpKMhRWMZPrnwzYNu5zz5TNBxDVBt9SnXrtHrCdI6yYdhgGhFpxkTTUXrK6Id36jvnjaEQzwfhDrDc/IW/cNaKwzG7vZVC+hcU0tLNUZRczeO/zamo3gzFewCfHBlMGEEWLjAdo6eMDd8mF7SMQpEXgPAVENkgU0mEMIMibhQw3N/CdrYAkAJADAh2UQCwkCysBuCHh7xmEP7knVkB+7PPFD2/QNrICED3A8NHqBA/AqIZAMkcsvAnl6LQMLjglXNb3+7YufXtDs9/UInKlP2PgpP9j8LPQNwFf4wCBKGpZXhtc0XsBih7AZBc3JCwQ7QETF8CTH74iX4jREHebCZVEWwOwWJTT0UOFHZPXcN66hqzTYhE9Wp4oR0NL7SnOE/rAfhjoaniBlXvVMQ0QFkLgM6bPhlX6dBKKFwBkpu/8DmGDTZWQDmco52Gri18RtXl1wJImc5RFkxNyKtLTcfoibIVAO/MCtjhz+jlUDQFhDgIkFfFv2pkBKAfiOz317+U/+XQIPdfy/LvKXwvdm/7ToDfBiHngc+tgX7FQTQquShhvMfHxylbAdDS8IklYJoOwHzrU1EaGlFoKQD6YkMrmd4+6ejj9l7DGYSPUNx9FYQu0znKglFDJyOe3w444B/eqYXnBQHMgsN3wB+rQP1DIwH5mfbJJ20bUEYPuXLQkJMCQJSNJvc1Ims2yPzx1wOOUQvQpQA2mo5yLgP6AZS895NhfcK+AgVrOeRGUX0Uapg4uKGVTCepOL91HMDcqmgNF7nte47J6X+ibAbNbz8AF3vAvlgLEKcge34h4IAVACeXJcI0tDBRxfRzMHzUqRg4pLjmks/Uy4LOXpq6hk1uiSoAOGg4g/CjkP4lFDpMxxhwhCgsjPb6OoABKQAOr1KKTgXHUt5eDoXagbiG8AiFONmWjO70hQsHGuXfg0/QFNX+mIsVnqKT1jZoHxQAp4VVMTTBdIhzGZACoO74J8ZZpL4NwvkD8f7COzhrJfh3YdP97CsTwQEZKAAYDmdUZ9mvK3zv8LHf7QHjCNgX3SfDsHCZ6RDnUvICIL20aSQTbmWXppf6vYX3kMVDKaJlCqAvHMpDU/k/CAmaYm6u7NcVvvdue9y9APxQgAZRUGNNhziXkhYAJ5clanXKuhZ5dUcp31d4FwW5TsW0jAD0hcUZKC7/jVhD6xO2P7qyCc+hkP6/UDhqOkcZhAFvHwxUsm2A78wKKHUiPJ0U3QWFijkPWfRbA2D8SNuKRFGdYZdScKmhvBeGpkHuybJeU4j32M7bcANtp7vmVDUFC7UnlyVGADg0eF6n5xbdlmwE4JOfbphKNm4DYUSp3lN4HzvUzHklBV8fcEalUCQ/bIkS4n1dg48dhINOIwtgy89WbZEJqi1iOscZlaQASC5oGQ1H3QrQJA+0YZRXOV9AA1hGfPqCwjoFm1OGfm5CGDF8ti6A6DdQ6DT++TXwL6Xq3LGqzjXd+fOM+h3qyIxhQRXkOQCmlCCPqDSMJkAKgD7qAtBtOoQQ5UZBfQCK/dCISnHK+hynrOosAIZM4NsRwtVQ8HTDAzFAbAQR5ERycYMUAb0VdpNQUgAI/2HGUfhjJ4ACMBZlPnm3p/q1CDC5oGU8u/pWEI+WYUX/4gJ9Al2ROvjluM8ScduD3Sqqu2GVvVOmIsKgcl9UiPfopHVIxXSHD7rEKgrzqFS+qDa0Eqau8da/b5+rksOrVFiF+CGcrm6Ej1GQm1W9Ix0feynXwR0MtJf9wgybcypR9usK8a5cB7cx/HEyIGsKRmrQcvGEes+dnNrnAmBI5ye+iSBfBJL5X78j4mFEkBtKLzWsPpxRIe4kxcmyXljBpqiWn5cwpmH14RS51A2XfNGQSqUDo61kqDoKgFNLGkcTYS4gH/oCAGGYrAHpsy4A5V4MZVNADyvzNYX4MEI7iP1xLoCFkbBK13enVPpUACjXXsGaGvr6/aLKEFpAXN5mNtVCo5OZjpT1mgyb86rpnVkBz30gCR9hZAD4pSPlcJSw8V6p9OoGnl7aFEwvbbqJHZoMQE6AEwAAdinKLn3i5LKErAPoJZ1WR+Fgf5kvq1hTuOUzdSPLfF0h3kch3QXLH+sAkFcjkFeeKwB6HKjjK42qeJQSgYR6gpQ8+YsPY4eGqbbIMMi+9t6pLbSRY/8HuOzbaGw+HhwHYF+5LywEAMDmFLlIGfjdLztWaEEljwBE/9ius4eoB6DL3LdcVASy0UKDZF65t375rx1dTHwEiss9FKpUnSs7eIQxXKQMmHwxBUBh3UJhXZkFQHJxQxBKjyGCnPInzowwgixIAdBLU9cwkLU6uKD2lPXChCDZfGlZrynEB3BG5diFL3YBQKMW2nsj5z0KZJE9gojuA0jm/cWZETeDePiGVvLcL7nXUUi3ka13l/WiDJuLdOGGVlIbWqt/CFZ4kIsCGAXTMcqDggxdl1yU8NQowMeGST/eWAuNSdDqWpC3uhgJD2GE2aFhFzUOawYOl3dVe6WznTZo619Q3j8vBU01l41rmABgF9Duh5PZhIdQVDtkw/FNF1mFWlKWDXjnFMSPfVojW40jG7Pl5i8+DikMs2v1KNM5Ks3Wtzs6mbEHZGJFtHUVYMnInig7nbZyrP3RCAgACIgr9tY0wDnDpJY2NnORLuciXVCuQKKCKTSTzbK1rJemrmGQQgfAb5b94pq+CC1Te0IMNC6qOs7ZnpoCOGcBQAV7IphuLFcYUeEYI8H0x6ZjVCLO01F26I2yX5gwScNtSS5u8NQHkxDVhsK6huKup/7OzloApJY2jgDxF8By2I/osSgYw04taWw2HaTSdO+mLmbeAcXlPVFRA+RaVyk3UFPW6wrhM6QQ9VoPnbNWI1SwJwG42ltxhecxmqlgjwdw1HSUSjJs/RGd/q/NbQA2QmF6Oa+tgvpWEF6CT05nE96gGvOKHEv5oREQAHBeDQZ7qxnQGW/vqaWNo6D4CyDIgi7ROzY3qxr3fNMxKhHnqYuL9HLZr+uocUx8fnpFQk72FOWTsoNwfbT+xOIwbPbUI/UZwyioK0C4pNxhRBVwqZkz6k/koJne27b/aNIlvQWM8p+QlrNuxMmQTN2IsqG4G4bFYdM5/OwjBUD68caRXKTLoEme/kVfBAEa9slxdTIK0EtT1zAsqCS7eL7sF1d8NYfckd3r4v55IhNGkUIQJIfKmfTRpzS2poJovIEsolowmilnXw5gp+kolcaN5VPEapVVDHyzvFemOBWt6wKHBx8EUnvLe23hRzpt2WTBlnVm5nzoP31ycUMCLn0BWub+RT8obqCQvth0jEo0eF6nY7N1gGy9EeXuGEaYwYxxR2YMk+kbMeAowFEoRE3n8LMPFQDKDUyHhbHw2FYFUWGYouyqUenHG8eZjlKJdEo5OqW+B5S5TzqhlixMGzKBZfpGDDyH4tCQhacGvX+jf2dWwCYLfwFghLk4oorUAtZk0yEqUfxv/lPH/+Y/Xydb70L5i4Br2eILj62OyNysGFgWh6Hgn0WALuXgkDYd44PeLwBGjKu/AgqjQT76gYiBQ6gjm680HaOSMfh7ALrLelFCDTFdF+mom1zW6wr/YaoFo9Z0DD97f66PQNPY4iaTYURViTLT+PSKxNjY3M7ynnVfJbbuav/J5M81fYNBNUD5CnMK8GQC9pxa0rhr0Pz28m9JFL5AAV0LoJb9chygJpT5xM+PpQAgubihiZkmA6gzG0dUFUacu0N/ZTpGpZq6hjUTPwagrMcrsyabNV1tWeqmcl5X+As7FGNNvlkEyIwsM7w3BWAp+yuADMWIEiPEVVh/yXSMSrZ1V/sGIn4TQLLMlx7JoC9nljVNKfN1hQ90zBweZ4VaP60BUGFdUDHXWwXAhlZSZPHNkAJAlJ7NoJGppY2TU0sbZWdJH0xdw1qn1HIwyj+N4uJCzqs7Ty5LyNSgKKnYZwoJUv665zAjw9pjIwCTxjdMYtBIQDoyiQERpKI1k4qW7C3vo/jf/OebpHgjyjwVAIUgLFxi50Lf3tBKUsCJkqFBXAfFvtoCSEGdo4j2VgFAOfsGlHGBkfAdG8C12XAqeniV3EP6ynX1SrJ4G6jszYESCPC1l437xB1lva6oanzKHgaXEqZzlJNO2gV9LOCtAoAZKcBbwxKiytioibjRa+vSDb5Z8FNqg+a3H9Vp9WM4eMvA5VugsCD1nfNkPYAoDUYTfLbonAJuF4Wd8hbwH0Nt+39HF1BQvwQq+yIj4ScFazYKlq+G/ErtROJ3r8DSLxO4y8DlmynEz55a0jj61JJGA5cX1YQCPBwEX40AMCGlyVsP22rqGtbHgx1zUKCfAegGAfKSV8lfQb6EbXfsqSWNMt3UR8Nna4eJ1zPhxbL//BQUAmi2lHoDmluSixtkPkf0yYZWUlBohkKd8c+lcr4YGXbZWwUAAAyfrXPF805+gxSfLgKEGADkWF9TRbvBdI5KFr+7/QBy6sdwaJOByysmGmEFrJcR1S3HVkekCBC9dvGE+gRrqgWf4TTaKqYDbvfJIZ3emgJ473/U3pxKOnn3PmL+Ccq/51j4geLpOugMO7Y64qs//FLrqv/dNgScJwl8wMT1GTTeJutHkUJsnPwsRW8FQmokiP01/684Z8PODZ/tsV0AH/yHmvs7OotWcQEx/wDgbhBDXvIq2SvAcStEX44VaoaZ+oWvBsNnawdBdxts/SgpLpj4WbKjJlI69Gyke/CFUgSI3tBdgTHQSBj/PCrny0UH3DLv4OmBjwzhDZ7X2eFqvZAs/j4plpEAUVoFuomzNHJDK5lOUtFiczu7oWkjwP/bWIiAnqAsWhtNDp6eXJSQtR2iR8jCZwB/bQEEoRseWwAIAGf9FE6vSDSQtr4OpgVgqilnKFHlLP4OLL0qOqfjkOkolS79WHMLCN+jEE83FkKjkzUvciznmcHzOmUNkTirDa2kJk9o+ikIV+MMD6BVy8Vu5xRNS/6rOjRs/RHPFAJn/QHE5nZ2cBY/gIsHQSx/1KJ0GNPh0jjTMarBiX9WR5w07oKLXcZCKCQogIcCZC9KLW0cYyyH8LzLxjWMAZCAn27+AGDhfHsQ//2QP3OuOLWk0TP9UM75Q4jd297BQWcNSM8FGdl7LKqRprEg/FlmTX2z6SiVbtj6IxpDCm2OKt4A4g6YaurFFAfo68pSKzMrGq82kkF4HsVwPnx2BsD7LIylMP9IhXFHammjJ87X+NgqLDa3M8lKv8JK3wziznKEEj5QUF9Cd/Ai0zGqweB5nY5VsPZzjv8SjE6Y6+xpA5gER63KLG9a0r0uLlOH4sM0/SnYXx0AP8RRcXLVQkXq2+mlTcZHy3o0DBOb25nRWdqsi/wX7z5lCNE/CuOgcGn68UbZEVACsXvbEbu3/S2E3K8BaDMcpwku/XWwY9DPU0sbLzGcRXjEhlZSsPgCEPtrAeAfIgSh8N/Iokcyy5ouMBmlx/Mwg+a3F1zL3VnUzufhYD/gvS0NosIoXE4Rutx0jGoSndOxgV2eDWCv0SCEMGxcoCz1i+zTDauSPxyc6F4X99e8r/iQyZPrxsNRDWCSbaOnXQ+FhZkVjcbO2OjVH+TgeZ168LzOg07RvQwutgHIDVAu4QeMcXDpi+nHG0eYjlJNYne3bYCtHwRht+ksAIKct2bZycg7gc74HemlTf4d/vW7ojUJgEwLfRDT5XDVo5kVjdeauHyfKvKa+zuOFoaeug6WfgkkrYNFv1xCtrredIhqE53b/hIsvQCEX5nOAgBgaiBFyynA/5h+svF2ryyCEmWUtq6E9ukCwHNhXABHPZpZ1vSlcl+6X91YDq9SwfpCw7fB9HUwZC5X9NVG7er74ne3e+GJtapkVjReDpceANMVprN8iMbbzPwcg1+K391upKVxKXSvi8cD7YOmUoCngTEOgA2FfZxXf19sSq6vvTklzdQAJBc3NNsR69eA3CfOYT+C7p3ROR0by3XBfrdj29BKavJFQ2+CS/OhaUIpQgnf6QDx89G/bp9vOkg1Si9tGkdEd0Hhq1AcNJ3nDxyF4teYeO3WN4+9OXWNt05LO5vudfGaQFvNVyjizgVo7BkOtnHAeNvN8w2D5rfvNxLSQzLLmlphYQng4x0AH4ehoekQF/SXY/e27yzHJUvWjzWzrOlCKDwAQtmHMURV2Albz4/O6dhiOkg1Sn3nvBaK8GwK8v0eLAIAjQwc2sMurXO1s77m/o6jpiP9oZPLEgpASzCs7mRNt0BTA/ic06gOWbzn+ObA5wHkhq0/Uqak3pNd1fAqF9UUMKRl9LlpMI46Gf15AG0193cMaEFc0obsqaWNLRTEHCLcDU2e6XYkKgAhQ4o3dVrHbhw+W8vi0gGQfryxjgL0JVh4DOTpJzFNQb2Jc+qnusCbtMuHau7vKJgIcmx1xA5lo82WE7iKQDciwL3dtZKDi28AWBOd1+a7nVPJRQkFoM6O24cBufn3kAbxm9lk8S/a9p9KfvaZ4oBdqOQnspxa0lhjhXEtKSxkTTLfI3rjEBQ/FJ3bvsZ0kGqVXNwQVLaaoCxaBZsrox0z8W5YvJ1d/NJ1+K18LHVo6MzsgBUEJ5cl6mxY40nRFwBMAdOEfoyaOABeA3Bj9M42I0WMSZkVjUEAd0DTEuAj0yTiHCigfwhgfuT2jgFrwDcgR7J1r4vbgVTkfHKshSB4a/GR8DINxfucJP+5F4eAq8XhVUoN4kF1IYQWsqNmmc7TG6TYgUIHiPdCYzcz/g1hd38xSQeSka42ALnhs3s+appc3NCsgjRSBTEWCn9KwHhmGg0u2Wp1hwJ6M4BrIrPNjGKYlHmqMQrg5wBdCL/1/y8BdnAXNF6I3d02IEXAgJ3JuqGVcNEF9YlgQM1HUf33gbqOqDoZKH4pekf7baaD+EFmWdMsCvFCdqkO1fABrdFJQd3GLqVQpAwsJGFxDgwbDoXBiMLmOCkkQGhmlwZ6WLpAtv4hgDsjt/urADi1pDFICmNViP6v6SwVS3FKa77ZdfSmwfM6M6V++wE/lD2zssEGcDWYVkFXyYeMGGgFXeArAWyP393uu3nTckuvSIxRZC1nTRcCkLU7pZXRBf5LANvid7dXxA6HUsk+3VAH4GF21H8znaWy8W5mfGPrP3dsm7qGS/rOA14AvOfkskRLwLaeBOhyAPFyXVdUJE0BvTt7snjZ7/amBnQRjDjt8CoVTHBiFrvqLjBGm85TJVLvjmZ9zXSQcntnVgAtnx0y0gqoX0PB373/S4BC7hoE9fcitx4vaa+Usj2ND57Xeeg3O7u+TKdblB4s13VFRVJcVONDFLlvxJih0jmsDIbP1oXI7R1P6TxfB+KnQZDjv/unE4p/8Ju3umabDmLCiHH1CWWpq+XmXyJF9RVO2VNPLWks6e6dso0AfFBmbf0EpO1vA3QVlAw5ijMj4pwu4C91Ab8aNL9dtgaWyeFVyq5D/STF6i4wrmIm7/UN8C6HwLu4QI9E57W9YjqMKZmnGscBWAslzeFKhnk/azyy9Z87ni9Vwywj8/HR247vdE65t0FjPhhvm8ggvI+ZwmThMQrxqA2tRmpVXxo+Wzux2cc2F3LurbqIG6CxzXSmisA4Apcfd9KY5uebf3pFogaKz5ebf4kRjSKi6yZPaCzZEcLGP1Wzz9WP47yaC0e1AtI8SJwB81IAT0bnVm7P+EqWWtpYSzauUCF+kF1VGb0DyoozAF5jjSe27uiomHbGAyX7dMP5YHqEmYyccFfVNFLQ/FQ6knxo6Mxsv0dFjRcAAHByWSJuB2myUurb765EFuJ9RFxgzXOLRb1+8LzOlOk8fpVZ2RAEMJUUHmRXnQ9p7AKAt7CLJW6at9Tc3+H73830y5Gw6oxPh6OelamjAUK8k4iXRG7veKHfb1WKPKWSfa4+AZdu4Zz1MEjOjRYfoLGXNR7Y+s8dr5R6K4zovczKhqvg0hwoTAb58IhXF28hqBfC1pujrcflSPR3ZVY1TADjPjDdZDpLFXOI8YqTxl2D5rf364AJTxUAAJBc3GCThWYrRotAuB7ylCHeQ3gNxIuiszu2m44iTsusqR+DvDWDQDcAGMPV/ffqwMUORJ1HQNgSve24LEz9gO518XAgFW0lpiUgWdw9wA6CsTJ6R/v/7s+beK4A+KDM2vrLKWs/yoTxkIMkfI8ABxpP6TSWxO5tP2Q6j/i95KJE3IqrCcrGjSBcxUwjTWcqEU1AGzNeQdhZHW09/pbpQF6VWdVwCZgeAONq01l84k3W7q2xuZ19Pm7a0wUAcLpBST0SraTpGwyMQXU/YYiP10XM/ycVOLWwFItgROmlVyRqiGgiKboBmq5gQiUWA12keDuC7t8W261NNfcP3IEs1eDY6kgwWhz0TQI9BJKHtbJgdMClF6J3tt3T17fwfAHwnpPLEg12wLqFFGYCGGs6jzBqHxhPRO9of8p0EHFu6RUJBWCsivMVyFuXwaWLGPBkS3BiHAXxNnbwKmdpS+zedjmQqocyqxquAtN9YPT2uGTRH4x9nMINsXvb+9QhsGIKgPdk1tS3kKNuAdMcBrWYziMM0diBPD0Undf2uukooucOr1LBumDt+VS0LiCm/8qaJgIYBVX2p0YNFym4tBmK/4mhtwP8dmyu7DLpreSiRNyusR6Fwu0Gfo5+1w0XL0bvaJ/bl2+uuALgPemlTSPIxi0U4NmsIIWA3zA0Adu5Nj8nOqN7r+k4ou9OLkvELfv0kbwU1COQs/6IHRpDYd3CrmpCf6b9NHIA2oj4IDPth+L/BxdvFwt6z+B5nbKOpASyTzd8hYnmA5DGP2Z0FLPu5wfP6zzY22+s2AIAAN6ZFVDDJw5KBMLqFmiaz65qNp1JlBEjQxpb8oPSf1V7cyppOo4ovQ2tpC4aU1cTGEQJCnMtbMThUBR5KwxGmGocGxrQJwIFiugcQm4GQEqfsrodFDuK0Vz30JlZOVFygJxclmgKhqwnmfAlkKzPMiRFzN+P3N5xX2+/saILgPccXqVgsx0d7A6ZRSF9F7uqBbJY0C+SBN7wj/907Ga/d2ATotwyy5v+B2yeDYVhprP4mIaL7nQg+UkAqaEzsz3+xqooAD7o8CoVrneGzqCgvhOg88EyJ+UDKWY8Fp3d8T9NBxHCL1JLGydaMV4BwkTTWQQ0AnougDWR2zoLPf2mqisA3vPOrID9qUk1kyhvzQFjChRKeoyi8BzNLr4MYEN0TkeP/wCEEL33zqyAPXJi3U9h8eXS9McjGLsAXBaZ3dHj6dCqLQDes6GV1KQLh46xFKaDcAMI55vOJAaISzmOF69EQO+IzuiWHgFCDJDsc/V3oGA9CIasu/IQTtGfs4Nfxe7t2fHpVV8AfFB6RaKGFF1ERDPBdDUslumBaqO4TedwnZuinTX3y0iAEKV2clliRDBkbYXiYSDv9XPwNY2nADwcub2joydf7qsfXmxuZzI659jr+VjmRieW+xQCes67wyaySrhaaGpSAXrWGqInHlsdkYWgQpRYMKKWw+IGufl7kM3TXdI1G1p79mzvqxGAs0k/3jheDeK/ohBPZ6ZzVxymAAAdXElEQVQRYNlBUPE0drDG/C2/OrZdTg8Uov+yaxNBAK1w1Qr47OGxkrDSM0H8k+htH39KpRQAH3B4lQrW6foJKoxpcGkqXBoLi6UYqFQam6DxSOT2jm2mowhRyZKLG2wVwSi7hn/NLslR7V7m4iUwFkRu7/jYQ4KkADiLY6sjwWggPEaRmkqgL0LTBexS3HQu0Uuni4BFkds7NpmOIkSlyq5qGAZgLSzp9e993KE1T9u6/fibHzf6KQVADxxbHVFBHUoEdHAyEb4Im68CqBkyDFYZFG+EpRdFbj2+2XQUISpNZkVjMxTupAB/y3QW0UPEc5j0S9HW413n/LJy5ak26RWJMQTrIhXTFwO4hF0aAUbQdC5xFhrbuEgLo3Pb5fAgIXoovSJRo4J0NdlYKSOglYM11uB0c7Q95/o6KQBKYEMrqUmT6losGxNB+DwxTWSHxgGUMJ1NfADhLSj9cOS2ztdMRxHC646tjtgxZ9BUIloOm6XVbyXR2A/GnMjsjnOOekoBMECSixuCFMAwK4rxUPiciuixnLbGUkiPYKYwWKYPjCDshe0+ELn1+CumowjhZdmnGyZB4UEoTDGdRfQeu/ia06VfrHmg86xNgaQAKLMNraQu+pP6hmC9HkaEYchbfwZNU6EwznQ2HzkKSy+I3Nb5Q9NBhPCi7NrEBGiaD6avmM4i+khjMbtYEZ3TcfBsXyIFgGHJxQ3xQD1/lWw8xiw9tcsoBeL5kds6nzYdRAgvyaypH6GUWgDGLJaRysrl0itwsTBye8ebZ/sS+eEaVnN/R4o1/Uo79DPTWXwmDqaV2efq780+Vy+FlxAAkosb6shRd7GLm+TmX/HOB537mGb5AXvAcXTuRtBdSxYfMZ3Fd1z1GOethzOrGhpMRxHCpMOrVDAwBAugcAsI0uynwpHNLQjphsOr1Fmb2UkB4AHDZ2uNjLVb59UTprP4Edl8LxGWp78/dExPe2gLUU02tJIaGqn7NoJ8ExRk91IVYIaCpk/WB4Y0ne1rpADwiOicjjZivAKHpG2tCTZfb8V45eQ/r5t8ropZiGr0hYuGfpOL9HXwuYeMRYVxaQSy9lmPbJYPOg8pZPVBO0wLLIWtLD+bsmOmScrGykRkyMLkIlpf80BnxnQmIQZa9rn6vwbzfABnfVIUFSqgh6mYPuv0powAeMjgeZ0FItqj87TYdBa/YodGE9NjwU/gwfSKxFkrZyGqQfa5+q+C1ULIzb8qEdAEkBQAleI4OruzdvoxUnwAgDadx4+YKcGgb1pReiKztn686TxClFpmZUMws7LhS8RqNSAL/qqWQ83Iq7Ou6ZACwGOGz9aIRoNJDrgzAZy1g5MYcEEmTFekns0+V3+T6TBClEpmbX0cYfdLKsI/kqnG6kWMDIOf0tAvnfVryhlI9E7uxbrlXLRuAUuFbhShjQLummOnuh8ePltLUSYqVmZtfR2BphPRCrn5Vy8iPsouHtJZ/CQ2t/OsJwJKAeBh3evitaF85A1YGA+SkwaNIuQooLfnO2g2gIOD53WaTiREr2RWNgyjALeSjYfk5l+9KKC3a+j7Crq4s/bmVOGcX1uuUKJvcuuHXMF5+0kwRpvOIgBiJHWOvgZgQ3ROh4wGiIqQWz9kJIpqLlz1TZap36pEgKML9N1iQS/5px3HO6au4Z58j/C63POJhazpqwBkVbpX5OlpJ68fPbTr5JHPPlOUxZrCs7JrExOJ6B4AN8nNvyppODiKmHMrgO2RG084Pf1GKQAqQPrlSJ2Vj6xgl66FprDpPOI0Urxb5+hht8vaNGh+e9J0HiH+UGZVw9UU4vtg8STTWcSA6CJL/zDnFh6uvTnV3dtvlgKgQuTWD7mQHfUImORsbg8hlzIA/4CJV0RuPb7HdB4hgNOtfS+/asgdrOkbYBpjOo8oMY0MCvQmO/RodE7H5r6+jRQAFST3fOIOJtwDyHoAD9pN4CfdeGZ9bFpWRgOEMd3r4jVhK/gIa7oJfPYmMKJCKd4FxU+mUtkXhs7M9msdkhQAFaR7XTwaDgQXQNPd7FLcdB7xBxRnyOKNAC8Kzzhx1jO4hRgouU3REWiPrmXgAgAyXVhFSPEeEK/SSq+Pzug+WpL3LMWbiPLJrK0fRRbdB8LtprOIszpKjBfcQelFsWlZ2S8oBlxmbb0CMEVBPcsWN4FksV+1IMZRLtJyLtAL0TkdB0v63qV8M1EeufV1k6FpATRdYTqLOAuGA4cOsdIPRm49/oLpOKI6bWglXPTFQTXhqLobWfth03lECWkcZI0VTk4/f2jHqbaB2G0kBUAFOrxK2UNrB19NrL7HDo0wnUeckwOlNzvt9j3s0L5B89t7vEVHiHNJvxwJqkLwfHKtJdBKVvlXBwcaB9jFkuTRwg87/yOb++wzxQG7mBQAFSq9IlFrDeLpFODl7CqZ6/M6hxyE3KcddpacOJU6OHy2lt4Bos+yfzekgYhuAuMhuKrOdB7Rb91QvAVKr9y8oXvj1DVcls8HKQAqWHZtYhgU5pCFvzGdRfSQxhFYvAKWfj4848Qh03FEZXlnVkCNnBK/BFDz4dK1JJ/gFYsUF0D8Nmv8nc7TK9HW43vLnqHcFxSllXs+MQLAcihMNZ1F9ALxfhCv1Eq/UKoVvaK6pVckmq06fSeBvs4uNZnOI/qIeC8s3sCkf5QvOLtqb04ZaykuBUCF614XVwEOjLRgvYEAjzSdR/QS8R6AV+fbrOcHz+vsMB1HeM87swL2p6fGridX3cWaJkIO8qksLgGKd7CDv3cz9Jqbw97B8zozpmMBUgBUhcz6WhvAeAtqKzNFTecRveYQ8QEGnnVD2Wdk66B4T2ZN/Xgrxg8z02Q5FrxCMDJwaR8svR2Kf54rFrcB6K69OWU62UdIAVAlsmsTCsAsCvP3AEgRUJk0EXcw8TOFA9YTALpqHuiUxYI+070uDgC14UDwQTDNAuTG71kutQF8ABbvheJ/AfgtN5jfE5uW7XVffhOkAKgyuRfrngTRVyEfGhWNiDNM/H1tOSvZcg7EpmVl+2CV29BK+LM/G1ITjqhbKKwfAlMCcnrfgCLiDGvsAFAAKIoPT68UwEhBUwqW7obFnZxTJyikD2jwoULeOVAsuMmhMyv3b1MKgCpzeJUKDx005DkQroAUARWPiHMMvKJztLLYTTsGz+v03jii6LfM2voEBXCtCvID7JKc9VEuQfdBAN8NX9ftiTn5cpMCoApl34g1UTK0FpomQfqBVw+XdrKL59jln0Vbjx80HUf0X2Z9bQMxXU1Md4Joguk8PqJRpIPHsl2fBZAbPtufM21SAFSp7N8NGa+IHmOmyZBVw9WmDRobtcPrjue6twyfrQumA4neyb4ab6ZUaAaAmVAYZzqPD3Uz9HWRG09sMR3EJCkAqljupSFXQKtvgyFtQqtTAcQHAF5XPBxcP2h++z7TgcS5ZdbXjlZFeyYsvgmEFtN5fKobzGvCN3XdYzqIaVIAVLnc+roZYJqP08eDimrGeJMdPFt0nVfyTqFj6MysP8c1PSiztn6KCvEcEMnaHJMIOQT0tlNdueuGzsz6ct7/g6QAqHIbWkl94coht5CiBQDGmM4jBh4R55ixkR287OSx6ZfbThyauoZNx/KVY6sjKhQJNASD1gwCzWaXxkJW9HvBLoaeE7nxxA7TQbxACgAf6F4XD4eDga8Q0UPMJMOOfsKcBPAWgFe15o1bXu/eW66DRvwos6a+gWyeTAHcTIQrmEgW4XrHfjA/EZ7R9X9MB/EKKQB8IvtGLE6p4Ay4tAREtabzCCNyYD4AFxt1gV4+Xjjx5vDZ2lgf8mqRfSNWh67QJaTwZbIwhZmaTWcSH9FFxD/sONH9gCya/T0pAHwks762VoGmE2i5PJkIYs5wQb2OkLsVMWcLgu6+8JSMFAQ9kH45krCK4Slw6S9BNAUEOZzHuwrE/KIL/VB0RvdB02G8RAoAn8msra+jAE9XYV7BTLI9UPwe8VG4tBNF/BMr/hWGFHZHrkxXREvTgZZ9NR6ES2NxKjiFArgOFiZCcdB0LtEDLjZynhZFbj2+2XQUr5ECwIdy64fUAJgOUs9CyeIwcRaEJMD7iPEWM36tNb+1ZcPJPQB0tS8qzL4Rq8HJ4BgU1SUU4IsR4AugaZjpXKKXXOyBxqPhm7peMB3Fi6QA8KncS0PCAFpBtMJ0FlE5yEWGNe2G4t1Q/G+cpz2uy3sdq9hh8lzz/nhnVsAe8cXYKMuiCUT4PBMmAjQGjDrT2UQ/aCQB/rYbzP0gNk22/J2JFAA+l/tp7d9AqwcAxE1nERWKCdCcAuMggL1gHGCHDlNIH+RwcX8+iTYYPg718CplD64L1QZUYAQ51mjY/F9I0ygwnQ/Fo5hlTUw1IWKHNR5mFz+I3HjiqOk8XiUFgEBufd1CWLgdkCceMTDIRQYKh9hFGynuZFAXFHeB+Bhc6mKXujhPGRAnaUghRRGdY5cKOq8LOMNsA1mkyKIwclacTwZqQIiriI5DIQGL6+CooURcx5qawRgBC02kOM5MshffB7hAT8HBE5Fbj0t3zHOQAkAAAPI/HrKIQa0AGkxnEUKIPsurjdC4K3xL517TUbxOqmEBAGCN3wGoyDlcIYQAACg+qIPOAznK7TcdpRLINjABACCiy1imAIQQFYpcZNhy/4pCek/t9SnHdJ5KICMAAtlX46OZMA6yEFAIUZk0g29FwdoZuSYlnf56SEYABMixr4ZiOaFMCFGJkgAvCn+5+yemg1QaGQEQIFdNgxxRKoSoPN2k8Xz4uu7/ZTpIJZIRAJ9LvxxpYM1jAcg+aCFE5dDoRlG91nHqxHzTUSqVjAD4nEpGrwIgPc2FEJUkBYXX3UjmLjnRsu9kBMDnVFRfCZICQAhRIVxkWONnGJK/LzYl22U6TiWTEQCfY5emQEYAhBCVgKHB+JlOq4fDUzJtpuNUOhkB8Knsq3EbwGhyWTr/CSG8j6Gh8QJrPBZtPS6NfkpACgCfonzABjBJfgOEEF7HDMChNZyj70VuPf626TzVQj7+fYpOz/tfajqHEEJ8HGJ8n4mfiNzaJf39S0gKAJ9iBRvAhWSd4ag1IYTwCHbxNAjfC1/fLSf7lZgUAD6UfjliMzlNiqyRprMIIcTZcIG+D42F4RtOHDKdpRpJAeBDdq2KwuUJSJtOIoQQZ8Z5+i4Yj4ZvOCFb/QaIFAA+xF2BMAh/TJbpJEII8REO5+hxAA+FbzghB/sMICkAfIhCHAYwHi6ZjiKEEL/HSHKeloVvOPGg6Sh+IAWAD3FehQGMJlsWAAohPOMou1gUvuHEMtNB/EIKAJ85vEopTW7cstQI01mEEAIAoHgPRd1HQl9IvWg6ip9IK2CfqR9cE1UsN38hhEe4tF132d8Iys2/7GQEwGcUKAyNFkCG/4UQBrmk4eIVdvFo5Nbjb5mO40dSAPhNgOMgfNp0DCGEf1FQdzHjB/qktSJy44kDpvP4lRQAfpNXYVhoRkCbTiKE8CF2qI2z6lG2nBcjNyY7TefxMykAfIZq3CCAOrBsARRClFle7Qfre1w7vyl2TTZnOo7fySJAv8lYYeSsYaZjCCF8hnizazlfPtWdfz02TW7+XiAjAD5DQ4o2mOKcl9pPCFEeXMD/BGhJ9LqTSdNZxO9JAeAjh1cp5WZUXClqMp1FCFHlCJqCOqm7rJkAfhaecUIWHnmMFAA+kmiJhJWLWtkBKIQYUIwcF2inm1JzozNO7DYdR5yZjAP7SYFs1oiajiGEqGptUPz9XKb4F9EZ3XLz9zAZAfCTTCCMCNciKEMAQogSYwAu7eQiFoWvO7nedBzx8aQA8BHVVLBRVFE4MvAjhCgdsribNV7USfVE5MYTe03nET0jBYCPkMWKXYRM5xBCVBHGLl3AY65TfCV2YzJlOo7oOSkA/ESTTSwTAEKI/iOLC5xTT3GeVoSvP7HPdB7Re1IA+AlDAQiajiGEqGxk66PsYo6GsyVyfUqe+iuUFAB+oskGSwEghOgfLqg9APZErjkpN/8KJgWAEEKIXqGIG4QcJ1LxZDm4EEII4UMyAiCEEKJXOGsVTGcQ/ScFgJ8odsAokCX7AIQQfUdRNweC9PavcFIACCGE6BUmpKQAqHxSAPgJQYMgQ3dCiP7R1CmfJZVPCgAfYUaBmE6ZziGEqHAu2kFwTMcQ/SO7AHyEFTsMzpnOIYSocDZ3IKClAKhwMgLgI8TsEJAxnUMIUdlY4wjAMgVQ4aQA8BEuUAFMSenfIYToD87SEbcgawAqnUwB+EiuXRXYpaTpHEKICkbIqYDqjE3LyhRAhZMCwEdqb04VlI2krN4VQvRZQO9CQMtnSBWQKQC/IXYAdIGoyXQUIUQFsngvIDsAqoGMAPiNzTlY3GE6hhCiQrn4NVwZRawGUgD4DCkukEKb6RxCiMrEpHczyRbAaiBTAD7DTBkwHTKdQwhRgRi55BF3dy7tyAhAFZACwG+Yc2AclbEfIUQvOVC8a/B5wdzQy+T+Xw3kNuAzWnGGiX9rOocQouI4IGyRQ4Cqh4wA+AxnKEc2HZTSzyCLN4Kwh4DR0LiQNdWZjiREDzia9M9NhxClIwWAz/zj32ZyX7hpUIdlIweLw6bz+IpLOVj6u2BeGZyUPgQAmfW1DWqwvkhF9TUEnsSOGmU6phAfQQBZnDm1j3cAMgJQLaQrrA8VtsZHAvg7aJpoOotfUEDv0Rmaq/PYEbkmdcYDmXKbokEiGk2KpoDwl3DUhbA4CpmqE+ZlQLwxODl1nekgonRkBMCPLM6BsU8KgLIoIKifOnm08GC2200Nn332h6fwlEwBwNvvvpYeWx2J13xaXUQ2LiamKezSODBqyhVciA9IgfEPpkOI0pIRAB8qbI3VAWiFVktMZ6lahBxZvEuz+43QpOxbpXjL3KZoQtk0ARYuhKbPw6ULQEiU4r2F+BgHtOv+eXhK5qDpIKJ0pADwofy2SBRMl5C23jCdpeooaFK8jzWebN+XeWb47IHrmZ7bFI2Swiiy6QIoXExMk9ihEZApA1FKhAzZenPgkvQ1pqOI0pIpAB9K/jty0Ua1LxAznaTKEI6yixeddnt5dEb3gYG+XHhKJgNg97uvZwAg/XIkYQ9WE1QAY9mhz5PCRNbUAo3gQOcRVYrRxZr+0XQMUXoyAuBTxe2xOgBb2VXjTGepdGTrboB/pgu04hdrM29NXcOeWiWdfSNWQwGMUgGMJYXPQmMcQONY0wjT2UQFYOx0T/GNkWtS+01HEaUlIwA+xadP89oBQAqAPiLFDhP/zC3iidx/qrdqbz7z6n7TIlemkwB2vvsCABxbHVEAojV/hLEENQqg/0LEI0AYBaZRYNQxk3w+iC4QvyU3/+okf+B+pVEAsBXEXzcdpeIwgZR+jV0s0g7vfHcovqIMnZnVAFI4XQTu+OD/t6GV1KVfjsQDcbSQjRHENAygT0NxAg4NI5ubAGpmjVrIeoPqxjgCDWn+U6VkCsCnsm/EFIBmK0KHTWepIA40trByHwSwMzQp6+uG6MdWR6Kx86jOCnMdiBoI1ACFBFmoZ0YdGHFixNmlWhDiZHGUC6qGgjoIQhiawgCCzD17ECGCA0IBLjLsUA6EMGyWXRADRxPwWuGEe1tsWrbbdBhRelIA+FzhF4MOI8DNkCe5c+mGxkZt6eXhSzPbTIepJhtaCUOUUs2fsu3YMCtoB9VHigGnoJ3u425h39uFwtQ1/P73XX5rbKKy8CQULix7cH84QMQrApemHzcdRAwMKQB8rrA9thqavgJA2gL/IcYRMH7Cyl0ZmpTdYzqO+LD0y5GgXUsXqAB+zI5qMJ2nCr2mSS8IX5p523QQMTDkqc/3+B8A+Hoo+4OI4BBhJxHfw+ReGpycuktu/t4Um5YtsMIu7dI3TGepOoQOUvxruflXNykAfC7zW7WJCCn4/IAPUkiB8EPt4ItOhi8LXJpeGpqUPWg6lzi38KWZlLKwgWx+0HSWqqKxi4v0K9MxxMCSAsDnam9OdbPGbgCe3MI20Ejx22C+p9CtP3Nynzsz9IXUlsiV6ZTpXKLnAhelU3Dxv4j4JchoVr8RIQfCjsxRvGk6ixhYsg1QgAL8BjRNABA1naUMHABtDH6FtV4bvCS742O/Q3he9z6tAXyt9rP0Mhx1EWRNS98xtgHYWntzquK2t4rekQJAwM3wz6wwzQVQvQupGEfYxesM/mnyP/SWoTOz8uFWRYbOzAJAKv1y5MZgHX4EwoWQIqD3GA4ztrpZlsLYB2QXgAAAFLfHfgqiKQDiprOUBAOssQ8aG9nlnzopvSM2LStD+z6QfTU+yq7Fs+9uD5SHnF5g5i0AHglekt5sOosYePLHIU5T+AcwzkclFwAaBQT1di7Q3+ssb3CzfDA2LevLtQ1+FrkmtT+/LTJHsfUYCFMAOQipRxgOXPpbNydP/34hIwACAJB9I9Zkx+nHAC4ynaUXMtDYz8Tb2cU/JPfrLQBS7w4HC5/Lb4uMUsp6GITrIUXAx2LwSwAeDV6c3mU6iygPGQEQAIDIlem2wpb4r8jGSBCaTOc5I0YnGLsYvAMufq0d3hGekmkzHUt4U2hSdn9+W+TbSqlugL4OkjUBZ8VIwcFzxZN6r+koonykABC/p/jnUJjkiQLApSS72AuLdwL8ay5ipy7Q/siVaVm8J3osNCl7ML8tslDZ1AnCPIBqTWfyInboRSh6W6bM/EUKAPG+k/+ut9WOtvbB4vGgMgyZanKg0QniA2DsZ6Z/h9K7dQ67Nz+fOQRAv9f7XYi+Ck3KHsm+Gn/CGsztFOBHAKoznclbuEMXefmp3/Ah00lEeckaAPEhhX+KfZUI94Awvs9vwgCYHDCSAB9BkNu4QEegqRPMh5n4IGsccjJ8aNv6XHLqGvZ1F0JRHtk3YlErjMlk4wkojDKdxyu4iPlgrAlelu4ynUWUlxQA4kPSL0dq7MFqAim0ALChEQTT70cDFJ8eIiTkoDjHmgoMzhA4A41unaekk+bkL1+RG7vwnu51cTvczGOsGD8JlyabzmMc8Y58hv9i2w9zXTLa5j9SAAghfGVDK+Hi6yM1kRq1gAL8303nMUkX9ecB7AxNyjqms4jykwJACOFbhe3R6ymEJ+BSE9hXZ6Pk2MULwUvSM00HEeb46RdeCCE+JHhJ5iX3JC6Gg9fB8EunSAfgA5nf0nzTQYRZUgAIIXwtPCVzsO3fstexxgIA+0znKYM2dvFA7c2pbtNBhFkyBSCEEO/K/TI6Tlm4j4imo5LbYp8NowMuXghcmr7HdBRhnhQAQgjxAd3r4tHIMJ6qgrgHqqJaY58bIwfNmwrH+LbYtKxs+RNSAAghxJnkfhltVqCvkKJ7YHOz6Tz9xtiu83ggdFn6V6ajCG+QNQBCCHEG4UszR9v3Zr/rFNzLoPFdKK7cRYIae9jBOrn5iw+SEQAhhPgY2TdiNlkYocJYQAG0grhyHp5cdLBDT7bvzS4ePlsXTMcR3iEFgBBC9EJ+W+QCFab7AFwBoMZ0nnMi5NjBU26neixyTUpOzhQfIgWAEEL0Qe6X0QssG3dB4QoQEqbznJGLH3KRlgQnpXebjiK8RwoAIYToh9wvo2NVADeTwgzAO4cMsUub4eKR4CXpLaazCG+SAkAIIUogvy3STERTSdHXYOMikMHDdRh7tMP3dOzJbx4+W0uff3FGUgAIIUQJZd+IhVWAxlEAXyNbXw8LDWUN4KKTi7i1eIK3xKZlc2W9tqgoUgAIIcQAeGdWAIk/tcJD/lhdTUF8DQqXAwgP6EUZKS7ybexgY2hStnK3LYqykAJACCHKIP1yJBFMqOmw+BpYuHAgFg7qLN0MjVdCl6Xl5i8+lhQAQghRZrlN0QYVpkvodDEwCQoj+/mWmk+pewA8HfxCSob9RY9IASCEEAZl34hFVQBjyMblpHAZQjwZ1KuDiFKcp6eDF6fleF/RK1IACCGER2xoJXxqvG2PnGBPULaaDJsvBuGCd6cL7I98A6OL87QmeInc/EXvSQEghBAel9sUbVJBjIFFE8jiz4EwBow6KGz6+VPZO6euYW06o6g8/x9vtoZUEYxXTAAAAABJRU5ErkJggg==;" parent="1" vertex="1">
          <mxGeometry x="743.15" y="243" width="28" height="28" as="geometry" />
        </mxCell>
        <mxCell id="uibnQeh16Y-J-jfBilOQ-138" value="" style="shape=image;verticalLabelPosition=bottom;labelBackgroundColor=default;verticalAlign=top;aspect=fixed;imageAspect=0;image=data:image/jpeg,/9j/4AAQSkZJRgABAgAAAQABAAD/2wBDAAgGBgcGBQgHBwcJCQgKDBQNDAsLDBkSEw8UHRofHh0aHBwgJC4nICIsIxwcKDcpLDAxNDQ0Hyc5PTgyPC4zNDL/2wBDAQkJCQwLDBgNDRgyIRwhMjIyMjIyMjIyMjIyMjIyMjIyMjIyMjIyMjIyMjIyMjIyMjIyMjIyMjIyMjIyMjIyMjL/wAARCAIAAgADASIAAhEBAxEB/8QAHwAAAQUBAQEBAQEAAAAAAAAAAAECAwQFBgcICQoL/8QAtRAAAgEDAwIEAwUFBAQAAAF9AQIDAAQRBRIhMUEGE1FhByJxFDKBkaEII0KxwRVS0fAkM2JyggkKFhcYGRolJicoKSo0NTY3ODk6Q0RFRkdISUpTVFVWV1hZWmNkZWZnaGlqc3R1dnd4eXqDhIWGh4iJipKTlJWWl5iZmqKjpKWmp6ipqrKztLW2t7i5usLDxMXGx8jJytLT1NXW19jZ2uHi4+Tl5ufo6erx8vP09fb3+Pn6/8QAHwEAAwEBAQEBAQEBAQAAAAAAAAECAwQFBgcICQoL/8QAtREAAgECBAQDBAcFBAQAAQJ3AAECAxEEBSExBhJBUQdhcRMiMoEIFEKRobHBCSMzUvAVYnLRChYkNOEl8RcYGRomJygpKjU2Nzg5OkNERUZHSElKU1RVVldYWVpjZGVmZ2hpanN0dXZ3eHl6goOEhYaHiImKkpOUlZaXmJmaoqOkpaanqKmqsrO0tba3uLm6wsPExcbHyMnK0tPU1dbX2Nna4uPk5ebn6Onq8vP09fb3+Pn6/9oADAMBAAIRAxEAPwD3+iiigAooooAKKKKACiiigAooooAKKKKACiiigAooooAKKKKACiiigAooooAKKKKACiiigAooooAKKKKACiiigAooooAKKKKACiiigAooooAKKKKACiiigAooooAKKKKACiiigAooooAKKKKACiiigAooooAKKKKACiiigAooooAKKKKACiiigAooooAKKKKACiiigAooooAKKKKACiiigAooooAKKKKACiiigAooooAKKKKACiiigAooooAKKKKACiiigAooooAKKKKACiiigAooooAKKKKACiiigAooooAKKKKACiiigAooooAKKKKACiiigAooooAKKKKACiiigAooooAKKKKACiiigAooooAKKKKACiiigAooooAKKKKACiiigAooooAKKKKACiiigAooooAKKKKACiiigAooooAKKKKACiiigAooooAKKKKACiiigAooooAKKKKACiiigAooooAKKKKACiiigAooooAKKKKACiiigAooooAKKKKACiiigAooooAKKKKACiiigAooooAKKKKACiiigAooooAKKKKACiiigAooooAKKKKACiiigAooooAKKKKACiiigAooooAKKKKACiiigAooooAKKKKACiiigAooooAKKKKACiiigAooooAKKKKACiiigAooooAKKKKACiiigAooooAKKKKACiiigAooooAKKKKACiiigAooooAKKKKACiiigAooooAKKKKACiiigAooooAKKKKACiiigAooooAKKKKACiiigAooooAKKKKACiiigAooooAKKKKACiiigAooooAKKKKACiiigAooooAKKKKACiiigAooooAKKKKACiiigAooooAKKKKACiiigAooooAKKKKACiiigAooooAKKKKACiiigAooooAKKKKACiiigAooooAKKKKACiiigAooooAKKKKACiiigAooooAKKKKACiiigAooooAKKKKACiiigAooooAKKKKACiiigAooooAKKKKACiiigAooooAKKKKACiiigAooooAKKKKACiiigAooooAKKKKACiiigAooooAKKKKACiiigAooooAKKKKACiiigAooooASlpKiubmGzgee4lSKJBlnc4AoSb0Qm7ak1cr4m8bWWhBreDbc33/PMH5U/wB4/wBOtct4m+IU13vtNHLQwdGuOjv9P7o9+v0rgySxJJJJ6k17+ByZztOvou3+Z5mIx6Xu0/vPZfDPjay10Lbz7ba+/wCebH5X/wB0/wBOv1rqq+fLCyadxI2VjU8EdSfavRNE8XTWm2C/LTQ5wJDyyfX1H6/Ws8flahJyoarsYUc4pqfsqr17nf0lRW9zDdQLNBIskbDIZTmpa8Rq2jPaTTV0LRRRQMKKKKACiiigAooooAKKKKACiiigAooooAKKKKACiiigAooooAKKKKACiiigAooooAKKKKACiiigAooooAKKKKACiiigAooooAKKKKACiiigAooooAKKKKACiiigAooooAKKKKACiiigAoprMEUsxAUDJJ7VwXiX4gpBvtNGKySdGuSMqv8Aujv9en1rfD4apiJ8tNGNavClG8mdJr/iew0CHM7+ZcEZSBD8zfX0HvXkmu+I9Q1+433Um2FTlIE+6v8Aifes2eaW5meaeRpJXOWdzkk+5qMivq8FllPDe89Zd/8AI8PEYydZ2WiG1asrM3L7myI16n19qjt4GuJgg/E+grfjjWKNUQYUCu2rU5dEeTicR7NcsdxVARQqgAAcAUtGaTNch5W5oaXrF3pM2+3f5D96NuVb/PrXoWj6/aavHhG8ucDLRMeR9PUV5bSxyPFIskbsjqchlOCD9a4cVgYV9Voz1MBmlXCvlesex7PRXGaH4yDlbfUyFboJwMA/7w7fX+VdirK6hlIIIyCO9fP1qE6MuWaPsMNi6WJjzU2OooorE6QooooAKKKKACiiigAooooAKKKKACiiigAooooAKKKKACiiigAooooAKKKKACiiigAooooAKKKKACiiigAooooAKKKKACiiigAooooAKKKKACiiigAooooAKKKKACiiigBKoarrNlo1qbi9mCD+FRyzn0ArC8SeN7XSd9tZbbm8HBwfkjPue59v5V5df6hdandNc3kzSyt3bsPQDsK9bBZXOv789I/izzsVmEaXuw1ZseI/GF9rrNChNvZZ4iU8t/vHv9Olc5SkUlfUUaMKMeSCsjw6lWVSXNJjaKdT4I/NnROxPP0rVuyuQ3ZXNPT4PKg3kfM/P4VbpOlGa4W7u54s5OcnJi9qTNFJSJFpKM0lMYua2dF8SXekMIyTLa55iJ+79D2rFpKzqUoVY8s1dG1GtUoy56bsz17TdVtNVtxLayBv7ynhlPoRV6vGrS8uLG4We2laOQdx/IjvXfaF4ut9Q2293tguTwDn5XPt6H2rwMXl06XvQ1R9ZgM3hXtCppL8GdPRRRXmnshRRRQAUUUUAFFFFABRRRQAUUUUAFFFFABRRRQAUUUUAFFFFABRRRQAUUUUAFFFFABRRRQAUUUUAFFFFABRRRQAUUUUAFFFFABRRRQAUUUUAFFFFABRRWD4g8VWOhRlGPnXRHywqefqT2FXTpzqS5YK7IqVI0480nZGtd3tvYWz3F1MsUSDlmNeaeI/HVzqO+104tb2p4MnR5B/Qf59qwNY1u+1u5827lyAfkjXhU+grOr6XBZTGladXV/geDisxlU92nohtIRS0V7SPNuNpKcaSmMbV3TUzM7+gx+dU60dNH7tz6ms6r90yxErU2Xs0lFJXKeWLmkopM0ALSUUZpjCkzRRmgYUZpKKLDR0+heL7iw2297unt+gbqyf4j/PtXoFpeQX1us9vKskbdCprxer2mavd6TP5trJgH7yHlW+ory8XlsanvU9Ge3gc3nR9yrrH8Uew0lYmieJbPWFCZEVyBzEx6+4PetuvAqU5U5cs1Zn1NKrCrHmg7oWiiioNAooooAKKKKACiiigAooooAKKKKACiiigAooooAKKKKACiiigAooooAKKKKACiiigAooooAKKKKACiiigAooooAKKKKACiiigApkkiQxtJI4RFGWZjgAVn6vrljotv5t1J8x+5GvLN9BXl+veJ77XJCrsYrUH5YVPH1J7mu7CYCpiHdaLucOKx1PDq277HReI/Hud9po59muSP8A0Ef1/wD11wMjvLIzyMzuxyWY5JPuaQ0lfUYbC08PG0F8z52vialeV5sSkp1IRXUYjaSnUlMY2giloNMobWjp3+pYf7X9KzyKu6e3Dr9DUVfhMcRrTZeopKK5jzgozSUZoHYKM0lFAwoozSUxhmiikoAXNJRSUxjldo3DoxVlOQQcEGuz0HxqU222qHI6LOB0/wB4f1riqTNc9fDU68bTR1YbFVcPLmg/ke3xypNGskbq6MMhlOQRTq8l0XxFeaLIBG3mW5PzQsePw9DXpGk63Z6zBvtpPnH3o24Zfwr5zFYGph3fddz6zB5jSxKttLsadFFFcR6AUUUUAFFFFABRRRQAUUUUAFFFFABRRRQAUUUUAFFFFABRRRQAUUUUAFFFFABRRRQAUUUUAFFFFABRRRQAUUVHNNHbwvLK4SNBlmY4AFG4m7askJxXH+IfG8FhvttOKz3PRpOqJ/iawfEvjKbUt9pYlorToz9Gk/wH+fauRr3sFlV7Tr/d/meFjc13hR+8lu7u4vrhri5laWVjyzH/ADxUFOpK9+KUVZHhuTbuxtJTqSqGNopSKSgYhpKdSGmUNpKdSEUxiVPZttnx2YYqChSVYMOo5okrqwSXNFo2KKarh0DDoRS1yWPMtYM0UZpKYxc0lFJQAuaSikzTGLSZopM0DFpM0UZpjCjNJRQMKkt7ma0nWe3laOVTwynmoqKTimrMqLad0eiaB40hu9ltqJWGfoJeiP8A4H9K68HPSvC811HhzxfNphS1vC0tp0B6tH/iPb/9VeHjMr3nR+7/ACPoMDmz0hX+/wDzPTaKihmjuIUmidXjcZVgcgipa8Nqx9AmmroKKKKBhRRRQAUUUUAFFFFABRRRQAUUUUAFFFFABRRRQAUUUUAFFFFABRRRQAUUUUAFFFFABRRRQA0kKpJOAOpry/xZ4mfVrhrS2fFlG3Uf8tSO59vT/ON3x1rht4Rplu+JJRmYjsvp+P8AL6155XvZXglb20/l/mfPZrjnf2EPmNIpKdSEV7x4Q2ilpDTKEpKdSUxjaQinUlMobRSkUlMY2inU2goQikp1IRTGWrOXH7s/hVusoEggg4Iq/DN5qf7Q6isakeqOWtTs+ZE2aSikzUGAtJmijNAwozSUUxhRSUUDCikzRQFgopM0ZpjsGaM0lFAwopKM0xnS+FfEr6TcrbXDk2Uh5z/yzJ7j29RXqCsHUMpBB5BFeE5r0LwLrpniOl3D5eMZhJPVe4/D+X0rws0wSt7aC9f8z38pxrT9jN+h21FFFeCfQhRRRQAUUUUAFFFFABRRRQAUUUUAFFFFABRRRQAUUUUAFFFFABRRRQAUUUUAFFFFABVe8uo7KzmuZThIkLH8KnrkPH9+YdOhslODO+5v91f/AK5H5Vth6XtasYdznxVb2NKU+xwF7dy317NdTHMkrFj/AIfh0qvS0V9nFKKsj4iUnJtsbSU6kNWA0ikp1IRQMbSU6kplCUlLRTGNpCKdSUyhtFLikpjG0U40+3t5rudILeNpJXOFVRkmk5JK7LSu7IhIrs/DPge4vgt5qBe3tyMog4d/8BW94Z8Dw6dsu9RCzXY5WPqkZ/qff/8AXXZV8/js2v8Au6H3/wCR7eEy1Nc1b7jyfXfD9zos/wA2ZLZj8koH6H0NY+a9sngiuYWhmjV43GGVhkGvPfEPg+Wx33Wnhpbbq0fVk+nqP1qsFmSn7lXR9zgx+Uyp3qUdV27HKUUlFeweLYM0UUmaAFzSUUmaYxc0maSigYUUmaM0xi0lGaSgdhc0lGaSmAuams7uWxvIrqE4kiYMPf2/pUFJUyipKzKi3F3R7lZXUd9ZQ3URykqBhViuM+Ht+ZtOnsXbJgfcuf7rdvzB/Ouzr4vE0vY1ZQ7H22Gre2pRn3CiiisTcKKKKACiiigAooooAKKKKACiiigAooooAKKKKACiiigAooooAKKKKACiiigAry/xxc+f4iaLPEEapj3Pzf1FennpXj/iGQy+IL5yf+WzL+XH9K9XKIp12+yPGzudqCj3Zl0lOIpK+lPlhKSlpKZQlJTqSmMaRSU6kIoKG0lOpKYxKSlpKYxKQ06ul8OeD7nWStxc7oLL+9j5pP8Ad9vesq1eFGPPN2RvRozqy5YLUydH0S91u68m0j+Uffkb7qD3/wAK9V0Hw5ZaDBiFd87D55mHzN7D0HtWjZWNtp1qltaQrFEvQL/nmrFfL43MZ4h8q0j2/wAz6XCYCFBXeshaKKK847wo60UUAcl4i8HRX2+608LFc9Wj6LJ/gf8APvXnk8EttM8M8bRyIcMrDBFe31k634fs9bhxKuydR8kyjke3uPavVwWZSpe5U1X5HjY7Ko1ffpaS/M8ipM1f1bR7zR7nybqPg/ckH3WHt/hWfX0UJxnHmi7o+ZnTlCXLJWYUUUlaCFzSUZpKBi5pKKSmAuaSijNAwpM0UUDCikopjOm8CXXkeJUizxPGyfiPm/p+teq14v4clMPiPT2HeZV/Pj+te0DpXzGcQSrp90fTZPK9FrswoooryT1gooooAKKKKACiiigAooooAKKKKACiiigAooooAKKKKACiiigAooooAKKKKAEPQ141rH/Ibv8A/r4k/wDQjXsx6GvGtX/5DV//ANfEn/oRr2Mn/iS9Dwc9/hx9SjSYpaK+hPmhtJTiKSmMbRS0lMoTFJS4pKYxCKSnUhoKG0qI0jqiKWdjgKoySfQVa0/TrrVLtba0iLyHr6KPUnsK9Q8PeFbTREEr4mvCPmlI+77KO1cWLx9PDK28ux3YTBVMQ7rRdzE8NeBlj2XmrKGbqlv1A/3vX6V3QUKAAMAdMU6ivl6+IqV5c02fUUMPToR5YIKKKKwNwooooAKKKKACiiigCte2NtqFs1vdRLJG3UH+dea+IfCdzpBaeDdPZ/3sfMn1/wAa9SpGUMpDAEHsa6sLjKmHl7u3Y48XgqeJj72/c8KpK77xH4JD77vSlAbq1v2P+76fSuCZWRirAqwOCCOQa+pw2Kp4iN4fcfK4nC1MPLlmhKSijNdJzhRmkooGFFJRTGFFJmigYUUUmaAL+in/AIn2nf8AXzH/AOhCvbe1eI6L/wAh7Tv+vmL/ANCFe3dq+czr+LH0Posm/hy9RaKKK8U9kKKKKACiiigAooooAKKKKACiiigAooooAKKKKACiiigAooooAKKKKACiiigBD0NeN6v/AMhq/wD+viT/ANCNeyHoa8c1f/kNX3/XxJ/6Ea9fJ/4kvQ8HPv4cfUpU2nUlfQnzAlIRS0GmUhtJTiKSmMbSU6kplCYpY43llSONSzuQqgdyegpK3fB9utx4ntQ4yqbnx9Acfris61T2dOU+yNqEPaVIw7s9E8P6JDomnJCigzsAZZO7N/hWtRS18VOcpycpbs+3p0404qMdkFFFFSWFFFFABRRRQAUUUUAFFFFABRRRQAVw/jrQEa3OrWyASIQJwP4h/e+o/wA9K7iq95brd2U9u/Kyxsh/EYrfDV5UaimjnxVCNak4M8NopDRX2q1Pi7BmikzRTGGaKM0lAC5pM0ZpKYxaSikzQMv6J/yHtO/6+Yv/AEIV7eOleH6J/wAh7Tv+vqL/ANCFe4DpXzed/wAWPofQ5P8ABIWiiivFPYCiiigAooooAKKKKACiiigAooooAKKKKACiiigAooooAKKKKACiiigAooooAQ9DXjurf8hm+/6+JP8A0I17EeleO6t/yGb7/r4k/wDQjXr5P/El6HgZ9/Dj6lIikp1JX0J8wNNJTqQimMTFJS0UFDaSnEUlMobXSeBv+Rmj/wCub/yrnK6PwN/yMsf/AFzaubG/7vP0OvA/7xD1R6nRRRXxx9sFFFFABRRRQAUUUUAFFFFABRRRQAUUUUAFI33T9KWkb7p+lAnseCsfmP1pKVvvH603NfeR2PhnuxaTNFJVBYKKKM0DCjNJmkpjFzSUUUAX9E/5D2nf9fUX/oQr3AdK8O0T/kP6d/19Rf8AoQr3EdK+azv+LH0PoMo+CQtFFFeKewFFFFABRRRQAUUUUAFFFFABRRRQAUUUUAFFFFABRRRQAUUUUAFFFFABRRRQAHoa8d1b/kMX3/XxJ/6Ea9hPQ14/q3/IZvv+viT/ANCNevlH8SXoeBn/APDj6lHFFLSV9AfLCUlOpDTKTGmkp1IRTKEppp1FMY2uj8Df8jLH/wBc2rncV0Xgf/kZY/8Arm1c2M/3efodmB/3iHqj1Kiiivjj7cKKKKACiiigAooooAKKKKACiiigAooooAKRvun6UtI33T9KBPY8Eb7x+tNpW6n60lfex2PiHuwopM0lUAuaSiigAopM0ZoGGaM0lGaYy/on/If03/r6i/8AQhXuY6V4Xon/ACH9N/6+ov8A0MV7oOlfNZ3/ABY+h7+UfBIKKKK8Q9cKKKKACiiigAooooAKKKKACiiigAooooAKKKKACiiigAooooAKKKKACiiigBD0ryDVv+Qxff8AXxJ/6Ea9fPSvINW/5DF9/wBfEn/oRr18o/iS9D5/P/4UPUpUlOpK98+WG0UtJTKG0U4000xoQikp1IRTKExXReB/+Rlj/wCubVztdF4I/wCRkj/65t/KubGf7vP0OzA/7xD1R6jRRRXx59wFFFFABRRRQAUUUUAFFFFABRRRQAUUUUAFI33T9KWkb7p+lAnseBMfmP1ptKep+tJX30dj4l7hRRSZpgLmkzSUZpjCjNJmigYUUUlMZoaH/wAh/Tf+vqL/ANDFe6DpXhWh/wDIwab/ANfUX/oYr3UdK+Zzz+LH0Pdyn4JBRRRXiHrhRRRQAUUUUAFFFFABRRRQAUUUUAFFFFABRRRQAUUUUAFFFFABRRRQAUUUUAIeleQ6r/yGL3/r4k/9CNevHpXkWq/8he9/6+JP/QjXrZT/ABJeh89xB/Ch6lKkpaK+gPlhtJTqSgY2ilpKZQ2ilpKYxCK6LwR/yMkf/XNq56uh8E/8jJH/ANc2/lXNjP8Ad5+h2YD/AHmHqj1CiiivkD7oKKKKACiiigAooooAKKKKACiiigAooooAKQ/dP0paQ/dP0oE9jwA9aSg9TSV9/HY+Le4UUmaKYBmijNJTAXNJRSUDFzSUUlAzQ0P/AJGDTf8Ar6i/9DFe7DpXhOh/8jBpv/X1F/6GK92HSvmc8/ix9D3cq+CQUUUV4h6wUUUUAFFFFABRRRQAUUUUAFFFFABRRRQAUUUUAFFFFABRRRQAUUUUAFFFFACHoa8i1X/kL3v/AF8Sf+hGvXT0ryPVf+Qve/8AXd//AEI162U/xJeh89xD/Ch6lKkp1JXvnyglJS0GmUNpKdSUDG0hp1JTKG10Xgn/AJGOP/rm38q54iuh8E/8jHH/ANc2rnxn8CfodmA/3mHqen0UUV8gfdhRRRQAUUUUAFFFFABRRRQAUUUUAFFFFABSH7p+lLSH7p+lAnsfPxPJpKD1NJX6BHY+Me4tJRSUwFpKKTNAxaTNFFMYUUlFAzQ0L/kYdN/6+ov/AEMV7uOleD6Ef+Kh0z/r7i/9DFe8DpXzOefxY+h7mVfBIKKKK8M9UKKKKACiiigAooooAKKKKACiiigAooooAKKKKACiiigAooooAKKKKACiiigAPQ15Hqv/ACF73/ru/wD6Ea9bPSvJNU/5C17/ANd3/wDQjXrZT/El6HzvEP8ACh6lM0lOpDXvHyg2kp1JTGNopaSmUJSUtFAxtdD4K/5GOP8A65t/KufNdB4K/wCRjj/65tXPjP4E/Q7cB/vMPVHp1FFFfIn3gUUUUAFFFFABRRRQAUUUUAFFFFABRRRQAUh+6fpS0h+6fpQJ7Hz4TyaTNB60V+gR2PjnuFJRRVAFFJRQMKKTNGaYBmkzRRQOxoaF/wAjDpn/AF9xf+hiveR0rwXQv+Rh0z/r7i/9DFe9DpXzGe/xY+h7mV/BIKKKK8M9QKKKKACiiigAooooAKKKKACiiigAooooAKKKKACiiigAooooAKKKKACiiigBD0ryXVP+Qte/9d3/APQjXrR6V5RrCGPWbxT/AM9mP5nNerlP8SXofO8RfwoPzKJpKWkr3j5NCUlOpKYxppKdSYplCYptOpKYxK6DwX/yMUf/AFzb+Vc/XQ+C/wDkYo/+ubVzYz+BP0O3Af7zD1R6ZRRRXyR96FFFFABRRRQAUUUUAFFFFABRRRQAUUUUAFIfun6UtIfun6UCex89GijNJX6DHY+Pe4ZoopM1QBmjNJRQMKKKTNAxaTNJmimM0NC/5GHTP+vuL/0MV70OleEeHIzL4l01V6/aY2/AMCf5V7uK+Xz3+NH0Payz4GLRRRXhnqBRRRQAUUUUAFFFFABRRRQAUUUUAFFFFABRRRQAUUUUAFFFFABRRRQAUUUUAJXCeM9MaK8F+gzHKAHI7MP8R/Ku7qK4t4rqB4ZkDxuMEGt8NXdCopo4sfhFiqLpvfp6nkFJXU6p4OuoHL2J86I/wE4Zf8awX0y+jOHs7gf9szX0lPFUqivGR8PWwOIoy5ZxZToqz9gvP+fSf/v2aT7Bef8APpP/AN+zWvtIdzL2VT+VlWirX2C8/wCfSf8A79mk+wXn/PpP/wB+zT9pDuP2VT+VlWkq19gvP+fSf/v2aQ6fef8APpP/AN+zT9pDuUqVT+VlWug8Gf8AIxR/9c2rI/s+9/59Lj/v01bvhC0uYtfR5LeVF2N8zIQK58XUi6Ekn0OzAU5rEwbT3PRqKKK+VPuwooooAKKKKACiiigAooooAKKKKACiiigApD90/SlpD0NAnsfPNJmrX9l6h/z43P8A35b/AAo/svUP+fC5/wC/Lf4V99GrTt8SPk3TlfYqUVb/ALL1D/nxuv8Avy3+FJ/Zeof8+F1/35b/AAp+1p/zIfs5dirSZq1/Zeof8+F1/wB+W/wo/svUP+fC6/79N/hT9rT/AJkHs5dirmkq3/Zeof8APhdf9+W/wo/svUP+fC6/78t/hR7Wn/Mh+zl2KlFXo9F1WZgsem3jH2hb/Cuo0P4dX11Ksuqn7NADkxqQXb8uBWNbG0KUbykjSnh6k3ZIf8ONFefUW1aVSIYAViJH3nIwcfQfzr1GobW1gsrWO2t41jhjG1VXoBU1fH4zEvE1XUfyPoMPRVGCiLRRRXKbhRRRQAUUUUAFFFFABRRRQAUUUUAFFFFABRRRQAUUUUAFFFFABRRRQAUUUUAFFFFABSYHoKWigBMD0FGB6ClooFZCYHoKMD0FLRQFkJgegowPQUtFAWQmB6CjA9KWigdgooooAKKKKACiiigAooooAKKKKACiiigAooooAKKKKADA9KMD0oooCwYHpRgelFFAWDA9KMD0oooCwYHpRgelFFAWDFFFFABRRRQAUUUUAFFFFABRRRQAUUUUAFFFFABRRRQAUUUUAFFFFABRRRQAUUUUAFFFFABRRRQAUUUUAFFFFABRRRQAUUUUAFFFFABRRRQAUUUUAFFFFABRRRQAUUUUAFFFFABRRRQAUUUUAFFFFABRRRQAUUUUAFFFFABRRRQAUUUUAFFFFABRRRQAUUUUAFFFFABRRRQAUUUUAFFFFABRRRQAUUUUAFFFFABRRRQAUUUUAFFFFABRRRQAUUUUAFFFFABRRRQAUUUUAFFFFABRRRQAUUUUAFFFFABRRRQAUUUUAFFFFABRRRQAUUUUAFFFFABRRRQAUUUUAFFFFABRRRQAUUUUAFFFFABRRRQAUUUUAFFFFABRRRQAUUUUAFFFFABRRRQAUUUUAFFFFABRRRQAUUUUAFFFFABRRRQAUUUUAFFFFABRRRQAUUUUAFFFFABRRRQAUUUUAFFFFABRRRQAUUUUAFFFFABRRRQAUUUUAFFFFABRRRQAUUUUAFFFFABRRRQAUUUUAFFFFABRRRQAUUUUAFFFFABRRRQAUUUUAFFFFABRRRQAUUUUAFFFFABRRRQAUUUUAFFFFABRRRQAUUUUAFFFFABRRRQAUUUUAFFFFABRRRQAUUUUAFFFFABRRRQAUUUUAFFFFABRRRQAUUUUAFFFFABRRRQAUUUUAFFFFABRRRQAUUUUAFFFFABRRRQAUUUUAFFFFABRRRQAUUUUAFFFFABRRRQAUUUUAFFFFABRRRQAUUUUAFFFFABRRRQAUUUUAFFFFABRRRQAUUUUAFFFFABRRRQAUUUUAFFFFABRRRQAUUUUAFFFFABRRRQAUUUUAFFFFABRRRQAUUUUAFFFFABRRRQAUUUUAFFFFABRRRQAUUUUAFFFFABRRRQAUUUUAFFFFABRRRQAUUUUAFFFFABRRRQAUUUUAFFFFABRRRQAUUUUAFFFFABRRRQAUUUUAFFFFABRRRQAUUUUAFFFFABRRRQAUUUUAFFFFABRRRQAUUUUAFFFFABRRRQAUUUUAFFFFABRRRQAUUUUAFFFFABRRRQB/9k=;" parent="1" vertex="1">
          <mxGeometry x="742.15" y="312.5" width="30" height="30" as="geometry" />
        </mxCell>
        <mxCell id="uibnQeh16Y-J-jfBilOQ-148" value="" style="verticalLabelPosition=bottom;sketch=0;aspect=fixed;html=1;verticalAlign=top;strokeColor=none;align=center;outlineConnect=0;shape=mxgraph.citrix.globe;" parent="1" vertex="1">
          <mxGeometry x="771.15" y="697.5" width="7.85" height="7.5" as="geometry" />
        </mxCell>
        <mxCell id="uibnQeh16Y-J-jfBilOQ-149" value="Served publicly&amp;nbsp;&lt;div&gt;by Nginx&lt;/div&gt;" style="verticalLabelPosition=bottom;sketch=0;aspect=fixed;html=1;verticalAlign=top;strokeColor=none;align=center;outlineConnect=0;shape=mxgraph.citrix.globe;" parent="1" vertex="1">
          <mxGeometry x="1143.83" y="795" width="26.17" height="25" as="geometry" />
        </mxCell>
        <mxCell id="uibnQeh16Y-J-jfBilOQ-150" style="edgeStyle=orthogonalEdgeStyle;rounded=0;orthogonalLoop=1;jettySize=auto;html=1;entryX=1;entryY=0.5;entryDx=0;entryDy=0;endArrow=diamondThin;endFill=0;" parent="1" source="uibnQeh16Y-J-jfBilOQ-45" target="uibnQeh16Y-J-jfBilOQ-24" edge="1">
          <mxGeometry relative="1" as="geometry" />
        </mxCell>
        <mxCell id="uibnQeh16Y-J-jfBilOQ-152" value="Shared storage mounted&amp;nbsp;&lt;div&gt;on Proxmox to Jellyfin&lt;/div&gt;" style="edgeLabel;html=1;align=center;verticalAlign=middle;resizable=0;points=[];" parent="uibnQeh16Y-J-jfBilOQ-150" vertex="1" connectable="0">
          <mxGeometry x="0.227" relative="1" as="geometry">
            <mxPoint as="offset" />
          </mxGeometry>
        </mxCell>
        <mxCell id="uibnQeh16Y-J-jfBilOQ-151" style="edgeStyle=orthogonalEdgeStyle;rounded=0;orthogonalLoop=1;jettySize=auto;html=1;entryX=0;entryY=0;entryDx=55;entryDy=88;entryPerimeter=0;endArrow=diamondThin;endFill=1;" parent="1" edge="1">
          <mxGeometry relative="1" as="geometry">
            <mxPoint x="404" y="458" as="sourcePoint" />
            <mxPoint x="619" y="639.9999999999998" as="targetPoint" />
            <Array as="points">
              <mxPoint x="434" y="458" />
              <mxPoint x="434" y="660" />
              <mxPoint x="619" y="660" />
            </Array>
          </mxGeometry>
        </mxCell>
        <mxCell id="gvSB1-JG7Jc6pJ1Mvs8h-2" value="&lt;b style=&quot;&quot;&gt;&lt;font style=&quot;color: rgb(255, 102, 179);&quot;&gt;SnapFileThing&lt;/font&gt;&lt;/b&gt;" style="rounded=0;whiteSpace=wrap;html=1;fillColor=#D800C9;strokeColor=#A50040;align=left;fontColor=#ffffff;" vertex="1" parent="1">
          <mxGeometry x="469" y="241.5" width="150" height="35" as="geometry" />
        </mxCell>
        <mxCell id="gvSB1-JG7Jc6pJ1Mvs8h-14" style="edgeStyle=orthogonalEdgeStyle;rounded=0;orthogonalLoop=1;jettySize=auto;html=1;" edge="1" parent="1" source="gvSB1-JG7Jc6pJ1Mvs8h-5" target="uibnQeh16Y-J-jfBilOQ-127">
          <mxGeometry relative="1" as="geometry">
            <Array as="points">
              <mxPoint x="1025" y="880" />
              <mxPoint x="-155" y="880" />
            </Array>
          </mxGeometry>
        </mxCell>
        <mxCell id="gvSB1-JG7Jc6pJ1Mvs8h-5" value="Tailscale" style="shape=cube;whiteSpace=wrap;html=1;boundedLbl=1;backgroundOutline=1;darkOpacity=0.05;darkOpacity2=0.1;" vertex="1" parent="1">
          <mxGeometry x="980" y="572" width="90" height="86" as="geometry" />
        </mxCell>
        <mxCell id="gvSB1-JG7Jc6pJ1Mvs8h-10" style="edgeStyle=orthogonalEdgeStyle;rounded=0;orthogonalLoop=1;jettySize=auto;html=1;entryX=0.441;entryY=0.009;entryDx=0;entryDy=0;entryPerimeter=0;" edge="1" parent="1" source="uibnQeh16Y-J-jfBilOQ-5" target="gvSB1-JG7Jc6pJ1Mvs8h-5">
          <mxGeometry relative="1" as="geometry">
            <Array as="points">
              <mxPoint x="1020" y="470" />
            </Array>
          </mxGeometry>
        </mxCell>
        <mxCell id="gvSB1-JG7Jc6pJ1Mvs8h-11" value="192.168.1.199" style="edgeLabel;html=1;align=center;verticalAlign=middle;resizable=0;points=[];" vertex="1" connectable="0" parent="gvSB1-JG7Jc6pJ1Mvs8h-10">
          <mxGeometry x="0.8966" relative="1" as="geometry">
            <mxPoint as="offset" />
          </mxGeometry>
        </mxCell>
        <mxCell id="gvSB1-JG7Jc6pJ1Mvs8h-12" value="&lt;font&gt;DNS&lt;/font&gt;" style="rounded=0;whiteSpace=wrap;html=1;fillColor=#a20025;strokeColor=#6F0000;fontColor=#ffffff;" vertex="1" parent="1">
          <mxGeometry x="930" y="670" width="70" height="17.5" as="geometry" />
        </mxCell>
        <mxCell id="gvSB1-JG7Jc6pJ1Mvs8h-15" value="" style="image;html=1;image=img/lib/clip_art/networking/Switch_128x128.png" vertex="1" parent="1">
          <mxGeometry x="140" y="450" width="80" height="80" as="geometry" />
        </mxCell>
        <mxCell id="gvSB1-JG7Jc6pJ1Mvs8h-20" style="edgeStyle=orthogonalEdgeStyle;rounded=0;orthogonalLoop=1;jettySize=auto;html=1;entryX=0.5;entryY=1;entryDx=0;entryDy=0;dashed=1;" edge="1" parent="1" source="gvSB1-JG7Jc6pJ1Mvs8h-17" target="uibnQeh16Y-J-jfBilOQ-92">
          <mxGeometry relative="1" as="geometry" />
        </mxCell>
        <mxCell id="gvSB1-JG7Jc6pJ1Mvs8h-17" value="&lt;b style=&quot;&quot;&gt;&lt;font color=&quot;#1cceab&quot;&gt;Traefik&lt;/font&gt;&lt;/b&gt;" style="rounded=0;whiteSpace=wrap;html=1;fillColor=#cce5ff;strokeColor=#36393d;align=left;" vertex="1" parent="1">
          <mxGeometry x="642" y="385" width="149" height="35" as="geometry" />
        </mxCell>
        <mxCell id="gvSB1-JG7Jc6pJ1Mvs8h-22" style="edgeStyle=orthogonalEdgeStyle;rounded=0;orthogonalLoop=1;jettySize=auto;html=1;entryX=0.5;entryY=1;entryDx=0;entryDy=0;dashed=1;" edge="1" parent="1" source="gvSB1-JG7Jc6pJ1Mvs8h-18" target="uibnQeh16Y-J-jfBilOQ-101">
          <mxGeometry relative="1" as="geometry" />
        </mxCell>
        <mxCell id="gvSB1-JG7Jc6pJ1Mvs8h-18" value="&lt;b style=&quot;&quot;&gt;&lt;font color=&quot;#1cceab&quot;&gt;Traefik&lt;/font&gt;&lt;/b&gt;" style="rounded=0;whiteSpace=wrap;html=1;fillColor=#cce5ff;strokeColor=#36393d;align=left;" vertex="1" parent="1">
          <mxGeometry x="815" y="385" width="149" height="35" as="geometry" />
        </mxCell>
        <mxCell id="uibnQeh16Y-J-jfBilOQ-98" value="&lt;font style=&quot;font-size: 6px;&quot;&gt;105&lt;/font&gt;" style="rounded=0;whiteSpace=wrap;html=1;fillColor=#B266FF;strokeColor=none;fontColor=#ffffff;" parent="1" vertex="1">
          <mxGeometry x="945" y="420" width="20" height="10" as="geometry" />
        </mxCell>
        <mxCell id="uibnQeh16Y-J-jfBilOQ-146" value="&lt;font style=&quot;font-size: 6px;&quot;&gt;101&lt;/font&gt;" style="rounded=0;whiteSpace=wrap;html=1;fillColor=#B266FF;strokeColor=none;fontColor=#ffffff;" parent="1" vertex="1">
          <mxGeometry x="769.63" y="420" width="20" height="10" as="geometry" />
        </mxCell>
      </root>
    </mxGraphModel>
  </diagram>
</mxfile>
